<?xml version="1.0" encoding="UTF-8"?><svg id="Layer_2" xmlns="http://www.w3.org/2000/svg" xmlns:xlink="http://www.w3.org/1999/xlink" viewBox="0 0 834.45 913.62"><defs><clipPath id="clippath"><rect width="834.45" height="913.62" style="fill:none;"/></clipPath></defs><g id="Layer_1-2"><g id="Group_773"><g style="clip-path:url(#clippath);"><g id="Group_772"><path id="Path_1374" d="m55.45,251.58l.16.42.4.22c23.39,13.01,46.05,27.32,67.86,42.84.59.46,1.19.86,1.78,1.28.25.23.52.44.79.64l.37.24,2.21,1.43,1.06.68v-.04c6.69,4.14,14.37,6.37,22.23,6.45,4.84-.02,9.64-.85,14.21-2.44,9.17-3.75,16.55-10.87,20.62-19.89,4.18-9.55,4.1-20.43-.22-29.91.7-2.75,3.06-16.34-15.68-24.89-12.79-5.84-15.53-10.23-16.11-11.7,10.11-6.43,19.75-13.58,28.82-21.4.79-.9,1.76-1.81,2.8-2.79,2.31-2,4.34-4.3,6.06-6.82,1.74-2.26,1.74-5.41,0-7.67-.71-.75-1.64-1.25-2.66-1.41l.59-2.7c.15-.2.29-.36.45-.56,1.09-1.71,1.43-3.79.93-5.76l.09-.41-.24-.38c-.25-1.18-.6-2.35-1.03-3.48,106.95-48.43,226.51-61.7,341.48-37.91,39.3,8.21,77.6,20.62,114.26,37.01-.58,1.42-1.05,2.88-1.39,4.37l-.24.38.09.41c-.49,1.97-.15,4.05.94,5.76l.45.56.59,2.7c-1.02.16-1.96.66-2.66,1.41-1.74,2.26-1.74,5.41,0,7.67,1.71,2.53,3.75,4.83,6.06,6.84,1.03.97,2.01,1.88,2.8,2.78,9.06,7.82,18.68,14.97,28.78,21.39-.59,1.52-3.38,5.91-16.1,11.72-18.73,8.55-16.39,22.14-15.69,24.89-4.32,9.49-4.39,20.37-.21,29.91,4.08,9.04,11.47,16.16,20.65,19.91,4.56,1.59,9.36,2.42,14.2,2.44,7.86-.08,15.55-2.31,22.23-6.45h0l1.06-.67,2.21-1.43.37-.24c.27-.18.52-.38.77-.59.64-.43,1.2-.84,1.8-1.28,21.81-15.52,44.46-29.83,67.86-42.84l.41-.22.16-.42c3.45-9.39,5.85-19.14,7.15-29.06,1.22-11.84-5.66-23.66-20.99-36.14-10.15-8.24-32.03-30.39-36.09-34.53,2-3.03,3.72-6.24,5.12-9.59v-.12c3.12-6.43,5.84-13.05,8.15-19.82,3.87-11.23,6.73-22.79,8.54-34.53.07-.52-.19-1.02-.64-1.28C676.15,42.59,591.18,14.65,503.23,4.39c-71.71-7.99-144.22-4.92-214.99,9.12-72.48,13.54-142.45,38.16-207.44,73-.55.33-.77,1.01-.52,1.6,4.81,10.81,9.15,20.33,13.07,28.74,3.78,9.25,9.08,21.88,14.61,33.89l-1.57.05-.36.36c-.25.26-25.58,26.15-36.75,35.17-15.35,12.46-22.22,24.3-21.01,36.14,1.3,9.92,3.7,19.67,7.16,29.06m2.19-1.32c-.53-1.44-2.28-6.39-3.91-12.61l7.1,4.48c0,2.19.19,4.37.57,6.53.29,1.53.71,3.03,1.28,4.48-2.53-1.45-4.31-2.46-5.06-2.88m5.76,3.27c-.38-1.64-.6-3.32-.64-5.01-.06-1.72,0-3.43.06-5.15l6.84,4.39c-.15.81-.23,1.64-.26,2.46-.02,1.14.06,2.28.22,3.41.26,1.47.66,2.9,1.22,4.28-2.84-1.66-5.35-3.12-7.42-4.31m8,4.64c-.33-1.55-.5-3.13-.51-4.72-.02-1.07.05-2.14.21-3.2.06-.5.15-1,.26-1.5l6.11,3.84c-.01.92.03,1.84.12,2.76.14,1.2.37,2.39.67,3.56.41,1.43.93,2.83,1.53,4.19-3-1.78-5.83-3.47-8.41-4.98m9.09,5.39c-.42-1.59-.72-3.22-.9-4.85-.13-1.14-.21-2.28-.22-3.42,0-.46,0-.95.04-1.43l4.19,2.64c0,.82.04,1.62.12,2.43.18,1.4.47,2.78.86,4.14.38,1.28.84,2.55,1.36,3.78l-5.42-3.24m6.33,3.84c-.43-1.51-.77-3.05-1.02-4.6-.23-1.31-.37-2.64-.41-3.98v-1.16l5.12,3.25c-.29,3.17.05,6.36,1,9.4-1.59-.99-3.2-1.96-4.73-2.91m5.4,3.32c-.22-1.45-.31-2.91-.27-4.37.03-1.45.15-2.9.36-4.34l5.38,3.41c-.3,2.38-.23,4.79.21,7.15.15.7.35,1.4.59,2.08-2.09-1.32-4.19-2.63-6.27-3.93m7.47,4.69c-.25-.99-.41-2-.47-3.02-.1-1.93.03-3.86.37-5.76l4.68,2.95c-.29,2.29-.22,4.62.21,6.89.22.88.5,1.75.86,2.59-1.86-1.21-3.75-2.43-5.65-3.63m6.71,4.34c-.37-1.13-.6-2.3-.68-3.48-.12-1.23-.12-2.46,0-3.69.05-.64.13-1.28.24-1.92l4.52,2.86c-.09,1.09-.09,2.19,0,3.28.14,1.36.42,2.7.84,4,.43,1.23,1.02,2.39,1.76,3.45-2.18-1.48-4.43-2.99-6.71-4.48m8.66,5.83c-.17-.12-.36-.25-.54-.37-.26-.38-.5-.77-.72-1.18-.57-1.13-.98-2.34-1.22-3.58-.25-1.23-.37-2.48-.37-3.74,0-.68,0-1.37.09-2.06l2.99,1.92-.23,9.01Zm2.47,1.73l.2-7.35c.86,3.45,2.04,6.81,3.54,10.03-1.2-.87-2.46-1.77-3.74-2.69m9.82,5.9c-1.93-5.04-3.46-10.22-4.57-15.49,2.85,5.94,7.76,10.64,13.81,13.23-1.59.54-3.2,1.04-4.74,1.41-1.15.27-2.31.22-3.36.54-.38.09-.77.2-1.14.31m7.88,6.06c-2.33-1.12-4.57-2.42-6.7-3.88h.25c1.3-.11,2.57-.5,3.7-1.14,1.78-.8,3.47-1.79,5.05-2.94,1.25.5,2.53.91,3.84,1.24,3.22.83,6.52,1.34,9.85,1.53.77.11,1.57.17,2.37.21-1.28.71-2.6,1.34-3.95,1.88-1.75.72-3.56,1.28-5.4,1.68-1.82.43-3.69.45-5.5.78-1.14.24-2.29.41-3.47.64m49.59-16.86c-3.82,8.37-10.65,14.99-19.14,18.54-8.37,3.01-17.52,3.06-25.92.15,1.72-.21,3.4-.64,5.01-1.28,3.48-1.23,6.72-3.08,9.55-5.46,2.79.06,5.57-.43,8.17-1.44,2.69-.77,5.23-1.97,7.52-3.57,8.38-5.9,13.51-17.03,15.26-33.07,3.38,8.42,3.22,17.84-.43,26.15m-3.56-17.36c-4.67,10.83-16.59,29.17-42.51,24.06-.86-.32-1.69-.68-2.51-1.09,1.03,0,2.06-.12,3.07-.34,2.18-.47,4.26-1.32,6.15-2.51,3.83-2.11,7.19-4.98,9.89-8.43.03-.05.03-.12,0-.17-.05-.05-.13-.05-.19,0-1.56,1.44-3.25,2.72-5.05,3.84-1.75,1.14-3.61,2.12-5.54,2.92-1.92.83-3.94,1.21-5.87,1.88-1.5.56-3.04.97-4.64,1.48-2.48-1.57-4.65-3.58-6.39-5.95,2.27.31,4.58.28,6.85-.09,2.88-.51,5.66-1.5,8.22-2.92,5.21-2.53,9.72-6.31,13.12-11,.04-.05.03-.13-.03-.17-.05-.04-.13-.03-.17.03-1.89,2.08-4.04,3.9-6.39,5.42-2.29,1.57-4.75,2.88-7.33,3.89-2.58.93-5.22,1.7-7.9,2.3-2.24.64-4.57,1.11-6.95,1.71-1.08-1.62-2-3.35-2.74-5.15,2.4.39,4.84.39,7.23,0,2.88-.51,5.66-1.5,8.22-2.92,5.2-2.54,9.7-6.32,13.1-11.01.04-.05.04-.13,0-.19-.05-.04-.12-.04-.17,0-1.89,2.08-4.04,3.9-6.39,5.42-2.29,1.58-4.75,2.88-7.33,3.9-2.59.92-5.23,1.68-7.9,2.29-2.28.67-4.61,1.13-7.03,1.72-.51-1.31-.94-2.65-1.28-4.02,4.27.72,8.66.08,12.55-1.82,1.34-.73,2.64-1.54,3.89-2.42,4.95-3.42,8.9-8.08,11.46-13.52.04-.06.02-.14-.03-.18s-.14-.02-.18.03c0,0,0,.01-.01.02-1.54,2.47-3.39,4.74-5.5,6.75-2.05,2.02-4.36,3.77-6.86,5.2-2.48,1.35-5.1,2.44-7.8,3.25-2.52.85-5.08,1.57-7.67,2.14-.37-1.6-.65-3.21-.86-4.84,11.17.07,21.02-7.32,24.08-18.07l21.15,16.7-2.5-5.04c-1.81-3.63-2.74-7.64-2.71-11.7.52-4.63,7.14-6.98,7.14-6.98,3.55-1.11,7.41-.49,10.43,1.68,3.31,3.57,4.64,8.54,3.57,13.29-.32,3.52-.87,7.03-1.64,10.48m-11.06-34.11c5.18,2.04,9.58,5.65,12.59,10.34-.52-.71-1.13-1.35-1.8-1.92-1.28-1.05-2.76-1.81-4.36-2.23-4.38-3-10.11-3.15-14.64-.38-4.84,4.49-5.89,11.75-2.51,17.43l-29.55-23.3c3.91-7.1,9.19-13.36,15.52-18.42l8.5,7.41c4.43,4.98,10.01,8.79,16.26,11.09m20.77-50.97c.91,1.44.8,3.3-.29,4.61-1.6,2.35-3.5,4.48-5.66,6.33-1.07,1.02-2.09,1.97-2.96,2.96-9.19,7.78-18.89,14.94-29.03,21.43l-.25.17-5.46-4.76c11.43-10.23,23.37-19.87,35.77-28.9,1.04-.59,2.01-1.14,2.88-1.6,2.19-1.18,4.07-1.28,5.01-.26m342.7-59.13c-37.32-7.81-75.34-11.74-113.46-11.74-79.76.19-158.59,17.2-231.33,49.92-1.2-2.32-2.53-4.57-3.96-6.75,149.27-64.55,318.52-64.86,468.03-.86-1.35,2.01-2.79,4.34-4.07,6.74-36.97-16.5-75.59-29-115.21-37.31m121.57,73.03c-.87-.99-1.92-1.92-2.96-2.95-2.15-1.86-4.06-3.99-5.66-6.34-1.09-1.31-1.2-3.17-.29-4.61.93-1,2.8-.91,5.01.26.86.46,1.84,1,2.88,1.6,16.47,12.23,27.88,21.68,35.77,28.9l-5.46,4.76-.26-.19c-10.14-6.49-19.84-13.65-29.03-21.43m11.86,37.09c6.25-2.31,11.83-6.12,16.26-11.09l8.49-7.41c6.34,5.06,11.61,11.32,15.53,18.42l-29.54,23.3c3.37-5.68,2.32-12.94-2.53-17.43-4.49-2.75-10.18-2.62-14.54.33-1.64.42-3.17,1.2-4.48,2.29-.67.57-1.27,1.21-1.8,1.92,3-4.69,7.4-8.31,12.59-10.34m4.48,70.02c-8.48-3.55-15.31-10.18-19.13-18.54-3.66-8.3-3.83-17.73-.45-26.15,1.76,16.05,6.89,27.18,15.26,33.07,2.29,1.58,4.83,2.79,7.51,3.57,2.61,1.01,5.4,1.5,8.2,1.44,2.83,2.38,6.06,4.23,9.55,5.46,1.61.64,3.29,1.07,5.01,1.28-8.41,2.91-17.56,2.86-25.94-.15m30.46-1.69c-1.18-.2-2.33-.37-3.47-.64-1.81-.33-3.68-.35-5.51-.78-1.84-.41-3.65-.97-5.39-1.68-1.36-.54-2.69-1.17-3.96-1.88.81-.04,1.61-.11,2.39-.21,3.32-.19,6.61-.7,9.84-1.53,1.3-.33,2.59-.74,3.84-1.24,1.58,1.15,3.27,2.13,5.05,2.94,1.13.64,2.39,1.03,3.69,1.14h.25c-2.13,1.46-4.37,2.75-6.69,3.88m7.88-6.06c-.38-.11-.75-.21-1.15-.31-1.03-.32-2.19-.26-3.34-.54-1.57-.37-3.2-.87-4.74-1.41,6.04-2.59,10.95-7.28,13.8-13.21-1.11,5.27-2.64,10.44-4.56,15.47m4.74-23.66c-2.59-.58-5.16-1.29-7.67-2.14-2.7-.82-5.32-1.91-7.8-3.25-2.49-1.43-4.79-3.18-6.84-5.19-2.11-2.01-3.95-4.28-5.49-6.75-.04-.05-.11-.08-.17-.05-.06.02-.09.09-.06.15,0,0,0,.02.01.02,2.55,5.45,6.51,10.11,11.46,13.52,1.25.88,2.55,1.68,3.89,2.42,3.89,1.9,8.27,2.54,12.53,1.82-.35,1.36-.78,2.7-1.28,4.02-2.39-.59-4.73-1.04-7.03-1.72-2.68-.61-5.32-1.37-7.9-2.29-2.58-1.02-5.04-2.33-7.33-3.9-2.36-1.52-4.51-3.35-6.39-5.42-.05-.03-.12-.03-.17,0-.05.05-.05.13,0,.19,3.41,4.68,7.91,8.45,13.12,10.99,2.56,1.42,5.33,2.41,8.21,2.92,2.4.39,4.84.39,7.23,0-.73,1.81-1.64,3.54-2.74,5.15-2.37-.59-4.69-1.04-6.95-1.71-2.68-.61-5.32-1.37-7.9-2.3-2.58-1.02-5.04-2.32-7.33-3.89-2.36-1.52-4.51-3.34-6.39-5.42-.05-.04-.12-.04-.17,0-.05.04-.05.11-.01.16,0,0,0,0,.01.01,3.4,4.69,7.91,8.47,13.12,11,2.56,1.42,5.33,2.41,8.21,2.92,2.27.37,4.58.4,6.86.09-1.75,2.36-3.91,4.38-6.39,5.95-1.59-.52-3.13-.93-4.63-1.48-1.92-.64-3.96-1.04-5.87-1.88-1.94-.8-3.79-1.78-5.55-2.92-1.8-1.12-3.48-2.4-5.04-3.84-.05-.04-.12-.04-.17,0-.04.05-.04.12,0,.17,2.7,3.45,6.06,6.31,9.9,8.42,1.89,1.19,3.97,2.04,6.15,2.51,1,.19,2.02.27,3.04.25-.82.41-1.67.77-2.53,1.09-25.91,5.12-37.83-13.22-42.5-24.06-.77-3.46-1.32-6.96-1.64-10.48-1.08-4.74.25-9.72,3.56-13.29,1.9-1.5,4.27-2.27,6.69-2.19,1.24,0,2.48.17,3.68.49.06,0,6.69,2.38,7.22,7.03.02,4.06-.91,8.06-2.71,11.7l-2.51,5.04,21.17-16.7c3.07,10.71,12.88,18.07,24.01,18.02-.19,1.63-.48,3.25-.86,4.84m1.34,20.46c1.49-3.23,2.68-6.58,3.54-10.03l.19,7.35c-1.28.91-2.53,1.8-3.73,2.69m6.74-4.78c-.17.12-.36.25-.54.37l-.24-9.03,3-1.92c.06.68.09,1.37.09,2.06,0,1.26-.12,2.51-.37,3.74-.24,1.24-.65,2.45-1.22,3.58-.21.41-.46.8-.73,1.18m8.13-5.46c-2.3,1.51-4.55,3.01-6.71,4.48.74-1.07,1.33-2.23,1.76-3.45.42-1.3.7-2.64.83-4,.09-1.09.09-2.19,0-3.28l4.52-2.86c.09.64.17,1.28.24,1.92.11,1.23.11,2.46,0,3.69-.09,1.18-.32,2.35-.68,3.48m6.71-4.34c-1.92,1.2-3.78,2.42-5.66,3.63.36-.84.65-1.7.87-2.59.43-2.27.5-4.59.21-6.89l4.67-2.95c.35,1.9.47,3.83.38,5.76-.07,1.02-.23,2.03-.47,3.02m7.47-4.69c-2.09,1.28-4.18,2.59-6.27,3.93.24-.68.44-1.37.59-2.08.44-2.36.51-4.78.21-7.16l5.38-3.4c.21,1.44.32,2.88.35,4.34.04,1.46-.04,2.93-.26,4.37m.64-.41c.4-1.27.69-2.57.89-3.89.23-1.83.27-3.68.12-5.51l5.15-3.25v1.16c-.04,1.33-.18,2.66-.41,3.98-.24,1.55-.58,3.09-1.02,4.6-1.56.95-3.15,1.92-4.74,2.91m5.62-3.45c.53-1.23.99-2.5,1.37-3.78.38-1.36.67-2.74.86-4.14.08-.81.12-1.62.11-2.43l4.2-2.64c0,.47.04.97,0,1.43,0,1.14-.07,2.29-.21,3.42-.19,1.64-.49,3.26-.9,4.85-1.77,1.06-3.59,2.17-5.46,3.29m14.55-8.68c-2.56,1.52-5.42,3.2-8.41,4.98.61-1.36,1.12-2.76,1.53-4.19.3-1.17.53-2.36.67-3.56.1-.92.13-1.84.11-2.76l6.12-3.84c.11.49.2,1,.26,1.5.15,1.06.22,2.13.21,3.2,0,1.59-.17,3.17-.51,4.72m8-4.64c-2.08,1.19-4.57,2.64-7.42,4.31.55-1.38.95-2.82,1.22-4.28.17-1.13.24-2.27.22-3.41-.04-.83-.13-1.65-.27-2.46l6.85-4.32c.09,1.72.13,3.43.05,5.15-.04,1.69-.26,3.36-.64,5.01m5.76-3.27c-.75.42-2.56,1.43-5.08,2.88.57-1.45,1-2.95,1.28-4.48.38-2.16.57-4.34.58-6.53l7.1-4.48c-1.64,6.24-3.4,11.17-3.91,12.61m-13.23-61.92c14.63,11.89,21.21,22.99,20.08,33.94-.46,4.11-1.17,8.18-2.14,12.2-.26-.03-.52.02-.74.16l-5.79,3.66c.7-1.81,1.3-3.66,1.78-5.54.8-3.09,1.25-6.26,1.32-9.45.1-3.22-.37-6.44-1.37-9.5-1.01-3.04-2.8-5.76-5.18-7.9.88,1.27,1.64,2.61,2.29,4.02.57,1.4,1.02,2.85,1.36,4.32.61,2.94.8,5.96.58,8.95-.22,3.02-.69,6.01-1.4,8.95-.67,2.75-1.5,5.46-2.51,8.1l-5.55,3.52c.76-1.8,1.41-3.66,1.92-5.55.91-3.2,1.4-6.5,1.46-9.82.06-3.35-.48-6.68-1.61-9.84-1.14-3.11-2.99-5.92-5.4-8.19,1.8,2.63,3.11,5.56,3.88,8.66.72,3.04.99,6.16.79,9.28-.2,3.13-.7,6.23-1.5,9.27-.75,2.82-1.71,5.59-2.86,8.27l-4.68,2.95c.77-1.93,1.43-3.89,1.97-5.9.89-3.21,1.43-6.52,1.6-9.85.2-3.36-.17-6.73-1.1-9.97-.93-3.22-2.73-6.13-5.19-8.4.92,1.33,1.71,2.75,2.35,4.23.57,1.47,1,2.99,1.28,4.55.54,3.11.65,6.28.32,9.43-.31,3.16-.87,6.3-1.66,9.37-.74,2.89-1.65,5.74-2.72,8.52l-3.69,2.33c.88-2.15,1.59-4.36,2.12-6.62.69-2.98,1.05-6.03,1.07-9.09,0-3.08-.46-6.14-1.39-9.08-.92-2.91-2.45-5.59-4.48-7.87,1.39,2.59,2.37,5.38,2.92,8.27.53,2.84.73,5.73.59,8.62-.32,5.8-1.49,11.53-3.47,17l-.13.37.04.13-4,2.53c.62-2.07,1.08-4.18,1.37-6.32.45-3.08.58-6.2.41-9.3-.15-3.1-.61-6.18-1.39-9.19-.76-2.99-1.83-5.88-3.2-8.65.64,3,1.28,5.96,1.61,8.95.41,2.97.62,5.96.64,8.95.03,2.99-.14,5.98-.51,8.95-.35,2.83-.91,5.64-1.69,8.38l-4,2.53c.53-1.83.93-3.7,1.2-5.59.49-3.21.63-6.46.41-9.7-.19-3.23-.77-6.43-1.73-9.53-.95-3.08-2.27-6.02-3.95-8.77,1.01,2.98,1.82,6.04,2.4,9.13.58,3.05.9,6.15.94,9.25.08,3.09-.09,6.19-.52,9.25-.37,2.63-.93,5.24-1.68,7.79l-4.05,2.56c.57-2.07.98-4.19,1.22-6.33.38-3.17.43-6.38.13-9.56-.27-3.17-.88-6.31-1.84-9.35-.94-3.02-2.21-5.92-3.79-8.66.91,2.97,1.64,6,2.21,9.05,1.13,6.01,1.41,12.15.84,18.24-.26,2.81-.74,5.59-1.45,8.31l-3.84,2.4c.5-2.36.86-4.76,1.09-7.16.3-3.4.3-6.83,0-10.23-.29-3.41-1.01-6.78-2.12-10.02-1.12-3.22-2.85-6.2-5.08-8.78.79,1.46,1.49,2.97,2.1,4.52.54,1.56,1.03,3.13,1.41,4.72.73,3.2,1.17,6.45,1.32,9.73.28,6.27-.12,12.55-1.18,18.74l-4.11,2.59c.49-2.69.89-5.58,1.16-8.63,1.24-9.68-.74-19.5-5.65-27.94-.05-.25-.09-.51-.16-.77-3.56-16.59-28.59-36.45-46.8-48.63-4.35-3.75-8.95-7.21-13.77-10.35-2.05-4.07-3.43-8.31-2.53-9.32.38-.42,1.92-.4,5.03,1.07,3.61,1.71,7.42,3.68,11.46,5.76,11.2,5.76,22.77,11.74,29.42,11.74h.84c4.21-.37,12.07-8.26,19.54-17.53,4.26-4.86,8.07-10.08,11.41-15.61,5.01,5.12,25.94,26.22,35.86,34.28M83.05,88.13C147.57,53.82,216.91,29.5,288.72,15.99,359.24,2,431.49-1.07,502.95,6.9c87.34,10.17,171.72,37.85,248.12,81.38-1.11,7.35-10.32,61.31-42.66,88.3-53.07-30.61-110.87-52.16-171.03-63.77-96.3-19.51-245.38-24.24-409.11,63.76-2.46-2.71-13.63-17.5-45.21-88.45m-12.16,100.22c10.54-8.57,33.48-31.86,36.6-35.04l1.62-.05c8.31,17.81,16.83,33.6,21.24,33.99.26,0,.56.04.86.04,10.4,0,39.34-13.35,48.17-17.54,3.08-1.46,4.63-1.5,5.03-1.07.91,1-.47,5.25-2.53,9.32-4.88,3.13-9.54,6.59-13.95,10.35-18.21,12.21-43.25,32.04-46.81,48.63l-.15.78c-4.91,8.43-6.9,18.25-5.66,27.93.27,3.07.68,5.95,1.18,8.65l-4.11-2.6c-1.06-6.19-1.46-12.47-1.19-18.74.15-3.28.6-6.53,1.34-9.73.38-1.59.87-3.16,1.41-4.72.6-1.55,1.3-3.06,2.1-4.52-2.23,2.58-3.96,5.56-5.08,8.78-1.12,3.24-1.83,6.61-2.13,10.02-.3,3.4-.3,6.83,0,10.23.22,2.41.58,4.8,1.09,7.16l-3.84-2.4c-.69-2.73-1.18-5.51-1.45-8.31-.57-6.09-.28-12.23.86-18.24.57-3.06,1.3-6.08,2.19-9.05-1.58,2.74-2.85,5.64-3.79,8.66-.94,3.04-1.56,6.18-1.84,9.35-.29,3.18-.25,6.39.13,9.56.24,2.14.65,4.26,1.22,6.33l-4.05-2.56c-.74-2.56-1.3-5.16-1.66-7.8-.42-3.07-.6-6.16-.52-9.25.04-3.11.36-6.2.94-9.25.58-3.1,1.38-6.15,2.4-9.13-1.68,2.74-3.01,5.69-3.95,8.77-.97,3.09-1.55,6.29-1.73,9.53-.35,5.15.19,10.33,1.61,15.3l-4-2.53c-.79-2.74-1.36-5.55-1.69-8.38-.37-2.97-.54-5.96-.51-8.95.02-2.99.24-5.99.64-8.95.35-2.99.98-5.95,1.61-8.95-2.73,5.57-4.29,11.64-4.59,17.83-.17,3.11-.04,6.22.41,9.3.3,2.14.75,4.25,1.36,6.32l-3.99-2.53v-.13l-.11-.34c-1.98-5.47-3.15-11.19-3.47-17-.14-2.89.06-5.78.59-8.62.55-2.89,1.53-5.68,2.92-8.27-2.02,2.28-3.55,4.96-4.48,7.87-.92,2.94-1.38,6-1.37,9.08,0,3.06.37,6.11,1.07,9.09.53,2.26,1.23,4.48,2.12,6.62l-3.69-2.33c-1.07-2.79-1.98-5.63-2.72-8.52-.8-3.08-1.35-6.21-1.66-9.37-.33-3.14-.22-6.31.31-9.43.28-1.55.71-3.07,1.28-4.55.63-1.49,1.42-2.91,2.34-4.23-2.46,2.28-4.25,5.18-5.18,8.4-.94,3.23-1.31,6.61-1.1,9.97.18,3.33.71,6.63,1.59,9.85.55,2,1.21,3.97,1.98,5.9l-4.68-2.95c-1.15-2.68-2.11-5.45-2.86-8.27-.79-3.05-1.28-6.16-1.48-9.3-.19-3.12.07-6.24.79-9.28.75-3.09,2.05-6.02,3.84-8.66-2.41,2.27-4.25,5.08-5.39,8.19-1.13,3.15-1.68,6.49-1.61,9.84.07,3.32.56,6.62,1.45,9.82.52,1.89,1.17,3.74,1.92,5.55l-5.54-3.52c-1-2.65-1.83-5.35-2.48-8.1-.72-2.94-1.19-5.93-1.4-8.95-.23-3-.03-6.01.57-8.95.34-1.48.8-2.92,1.37-4.32.64-1.39,1.4-2.73,2.27-3.99-2.38,2.15-4.16,4.87-5.18,7.9-1.01,3.06-1.47,6.28-1.37,9.5.09,3.19.53,6.36,1.34,9.45.48,1.88,1.08,3.73,1.78,5.54l-5.79-3.66c-.22-.13-.48-.19-.74-.16-.98-4.02-1.7-8.09-2.16-12.2-1.11-10.95,5.46-22.05,20.09-33.94" style="fill:#fff;"/><path id="Path_1375" d="m137.72,119.49c1.37,0,2.73.21,4.03.64,1.21.44,2.2,1.32,2.76,2.47.76,1.33.95,2.91.54,4.39-.63,1.75-1.95,3.17-3.65,3.93-.93.52-1.94.88-2.99,1.07-.9.16-1.83.14-2.72-.05-1.68-.39-3.19-1.33-4.28-2.66-.11-.13-.3-.17-.45-.09l-1,.56c-.16.08-.23.27-.16.43.46,1.28.86,2.5,1.18,3.65s.64,2.46.95,3.88c.03.14.14.25.29.27.37.05.75.08,1.13.08,1.1-.02,2.19-.17,3.25-.45,1.93-.5,3.79-1.24,5.54-2.21,1.99-1.07,3.81-2.42,5.39-4.03,1.37-1.42,2.46-3.09,3.2-4.92.67-1.75.95-3.62.82-5.49-.16-1.95-.73-3.83-1.68-5.54-.9-1.83-2.3-3.37-4.03-4.44-1.52-.87-3.19-1.45-4.92-1.71-1.72-.24-3.46-.3-5.19-.16-1.71.13-3.36.19-4.89.17-1.4,0-2.79-.22-4.12-.64-2.56-.9-3.9-3.7-3.01-6.26,0,0,0-.01,0-.02.54-1.48,1.62-2.69,3.03-3.39,2.72-1.69,6.25-1.27,8.5,1.02.12.09.28.11.41.04l.79-.43c.14-.07.21-.23.17-.38l-.7-3.37c-.19-.86-.33-1.8-.46-2.78-.01-.16-.13-.28-.29-.31-1.61-.26-3.26-.22-4.85.11-1.93.4-3.78,1.11-5.49,2.08-1.58.86-3.01,1.97-4.23,3.29-1.16,1.27-2.06,2.75-2.67,4.36-.59,1.64-.83,3.38-.7,5.12.17,1.96.75,3.85,1.72,5.56.9,1.83,2.29,3.38,4,4.48,1.49.87,3.12,1.45,4.83,1.71,1.69.25,3.41.31,5.12.17,1.69-.13,3.32-.19,4.83-.17" style="fill:#fff;"/><path id="Path_1376" d="m136.22,91.53c.45.73.81,1.51,1.07,2.33.12.42.24.86.35,1.28.04.11.12.2.22.25.11.03.22.02.32-.04.75-.47,1.59-.98,2.49-1.5s1.8-1.03,2.69-1.5l2.53-1.32c.64-.33,1.22-.64,1.71-.84.22.37.51.89.83,1.56.41.87.87,1.84,1.35,2.9l6.29,13.72c1.37,3,2.56,5.76,3.58,8.14,1.02,2.39,1.96,4.76,2.84,7.09.04.1.12.18.22.21h.12l.19-.04c.62-.39,1.26-.73,1.92-1.03l4.94-2.26c.72-.32,1.4-.59,2.03-.81.1-.03.18-.1.22-.2.04-.1.04-.21,0-.31-1.19-2.19-2.37-4.48-3.5-6.78s-2.42-5.01-3.84-8.05l-7.62-16.63c-.19-.43-.36-.82-.49-1.15-.06-.19-.13-.35-.17-.47.49-.22,1.09-.46,1.76-.74.82-.33,1.69-.68,2.62-1.03.91-.36,1.85-.7,2.8-1.02s1.82-.64,2.59-.83c.11-.02.21-.11.24-.22.04-.1.02-.22-.04-.31-.25-.37-.51-.73-.74-1.11-.24-.36-.45-.74-.64-1.13-.18-.39-.33-.79-.45-1.2-.13-.42-.25-.84-.36-1.28-.03-.1-.1-.19-.2-.24-.1-.05-.21-.05-.31,0l-3.12,1.55c-.95.49-1.92.97-2.95,1.45l-3.34,1.6c-1.22.58-2.69,1.28-4.4,2.05-1.71.77-3.2,1.45-4.43,2s-2.38,1.04-3.43,1.5-2.08.9-3.11,1.32-2.17.91-3.42,1.44c-.1.04-.18.12-.21.22-.03.11,0,.22.05.31.26.37.51.74.74,1.11" style="fill:#fff;"/><path id="Path_1377" d="m184.94,113.49c.63.26,1.3.39,1.98.38.7,0,1.39-.14,2.03-.4,1.31-.48,2.37-1.46,2.96-2.72.61-1.25.65-2.7.12-3.98-1.06-2.73-4.14-4.08-6.87-3.02-1.32.51-2.37,1.53-2.94,2.82-.58,1.28-.61,2.75-.08,4.06.47,1.31,1.49,2.36,2.79,2.86" style="fill:#fff;"/><path id="Path_1378" d="m206.97,79.45l2.38,7.87c.97,3.2,1.78,6.07,2.46,8.55s1.28,4.98,1.86,7.41c.03.1.09.19.19.24l.16.04.15-.04c.67-.29,1.36-.54,2.06-.74l5.19-1.57c.7-.22,1.42-.4,2.14-.53.11-.02.2-.08.25-.17.05-.1.05-.21,0-.31-.86-2.31-1.72-4.73-2.56-7.19-.84-2.46-1.72-5.28-2.69-8.49l-.79-2.6c4.21-1.28,8.57-2.39,12.92-3.33.1-.03.19-.09.24-.19.05-.1.05-.22,0-.32-.27-.59-.49-1.04-.64-1.36-.14-.28-.26-.57-.35-.87-.11-.36-.2-.72-.26-1.09-.06-.35-.15-.86-.22-1.55-.02-.11-.08-.2-.17-.26-.1-.05-.21-.05-.31,0-2.16.78-4.25,1.51-6.24,2.19-1.88.64-4.02,1.36-6.39,2.12-.64-2-1.19-3.98-1.77-5.95s-1.1-3.99-1.56-6.04l1.82-.49c1-.26,2.14-.54,3.42-.84s2.59-.64,3.94-.94,2.6-.64,3.74-.87c.1-.03.19-.1.24-.2.05-.1.05-.22,0-.32-.2-.4-.37-.75-.52-1.09s-.29-.78-.47-1.39c-.26-.78-.42-1.59-.49-2.4,0-.12-.07-.22-.17-.29-.1-.05-.23-.05-.33,0-.73.31-2.21.82-4.39,1.55-2.18.73-4.72,1.52-7.56,2.38-1.76.53-3.5,1.02-5.17,1.44s-3.45.9-5.21,1.39c-.09.03-.17.09-.21.17-.04.09-.04.2,0,.29.91,2.43,1.78,4.92,2.6,7.37.82,2.46,1.73,5.29,2.7,8.47" style="fill:#fff;"/><path id="Path_1379" d="m238.96,70.12l1.88,8c.77,3.24,1.4,6.16,1.92,8.68.52,2.53.98,5.08,1.39,7.51.02.11.08.2.17.25.05.04.12.05.19.05h.12c.69-.26,1.39-.47,2.1-.64l5.3-1.24c.71-.17,1.43-.31,2.16-.4.11,0,.21-.07.26-.16.05-.09.07-.19.04-.29-.73-2.38-1.43-4.85-2.09-7.35s-1.39-5.37-2.16-8.63l-.47-2.02,14.71,15.87c.09.11.24.15.37.11.86-.29,1.73-.53,2.62-.74l5.33-1.28c.84-.2,1.73-.36,2.64-.49.13-.03.24-.12.27-.25.05-.13.02-.28-.09-.37-2.91-2.74-5.83-5.51-8.78-8.31-2.79-2.67-5.5-5.42-8.06-8.19,2.36-1.18,4.32-3.04,5.62-5.33,1.21-2.42,1.48-5.2.75-7.8-.64-3.21-2.84-5.88-5.87-7.11-.62-.24-1.26-.43-1.92-.56-.73-.13-1.48-.18-2.22-.15-.96.03-1.91.13-2.86.29-1.1.17-2.39.43-3.89.78-1.98.46-3.68.91-5.01,1.34s-2.5.74-3.56.99-1.86.4-2.64.52-1.53.24-2.21.31c-.1.02-.19.07-.25.16-.06.09-.08.2-.05.31.75,2.5,1.46,5.03,2.14,7.52.68,2.49,1.39,5.4,2.14,8.63m10.43-15.48c.98-.13,1.98-.01,2.9.35.83.39,1.52,1.01,2,1.8.69,1.21,1.17,2.52,1.44,3.89.7,2.16.51,4.51-.53,6.53-1.22,1.77-3.1,2.97-5.22,3.32-.19.06-.39.1-.59.12l-.37.04c-1.19-5.06-2.34-10.23-3.42-15.39,1.26-.29,2.55-.51,3.84-.64" style="fill:#fff;"/><path id="Path_1380" d="m279.77,86.48h.11c.48-.16.98-.28,1.48-.36l2.83-.46c.45-.08.91-.11,1.36-.11.18,0,.34-.14.36-.32.24-2.05.53-4.15.87-6.24.34-2.09.73-4.14,1.16-6.2.95-.19,1.92-.37,2.86-.54s2.05-.37,3.08-.54c1.28-.2,2.56-.4,3.84-.58s2.39-.35,3.58-.51c1.03,1.81,2.03,3.66,3.01,5.51s1.98,3.79,2.94,5.65c.08.15.25.22.41.17.81-.21,1.64-.38,2.47-.52l5.08-.83c.84-.13,1.76-.24,2.7-.32.12-.01.23-.09.29-.2.07-.11.07-.26,0-.37-1.52-2.09-3.25-4.72-5.18-7.81-1.92-3.1-3.98-6.49-6.02-9.87-2.04-3.38-4.15-7.03-6.22-10.64l-5.86-10.18c-.08-.16-.27-.23-.43-.16-.38.15-.74.26-1.09.38-.34.12-.7.2-1.06.26-.35.05-.71.08-1.07.09-.36-.04-.77,0-1.18,0-.17-.02-.33.1-.36.27-.52,2.4-1.08,5-1.71,7.8-.62,2.8-1.26,5.63-1.92,8.51-.65,2.88-1.3,5.73-1.97,8.54l-1.86,7.93c-.57,2.42-1.11,4.66-1.61,6.61s-.9,3.49-1.2,4.6c-.04.12,0,.26.09.35.07.07.16.11.25.11m10.72-25.25c.47-2.21,1-4.48,1.56-6.69,1.16,1.92,2.31,3.91,3.41,5.87s2.33,4.14,3.5,6.25l-9.9,1.61c.45-2.39.94-4.76,1.43-7.03" style="fill:#fff;"/><path id="Path_1381" d="m319.9,50.01c.29,3.01.56,6.23.78,9.53.22,3.3.41,6.39.54,9.23.13,2.83.24,5.24.32,7.22.07,1.13.07,2.26,0,3.38-.01.12.03.23.11.32.07.05.16.09.25.09h.06c.89-.17,1.81-.31,2.72-.4l1.39-.13c.46-.04.93-.04,1.39,0,.11,0,.21-.05.29-.12.07-.08.11-.2.09-.31-.09-.43-.19-1.02-.31-1.76s-.24-1.68-.4-2.83-.32-2.56-.51-4.26c-.19-1.7-.4-3.72-.64-6.12l-.67-6.96c-.12-1.2-.22-2.38-.32-3.54-.08-.89-.15-1.76-.2-2.64,9.91,8.59,19.49,17.3,28.45,25.89.08.08.2.12.32.09.64-.13,1.43-.25,2.3-.35.81-.09,1.62-.13,2.43-.12h0c.1,0,.19-.05.25-.12.07-.07.11-.17.09-.26l-.7-7.22c-.27-2.88-.54-5.59-.77-8.14-.22-2.55-.43-5.17-.64-7.73-.2-2.56-.35-5.39-.52-8.31-.17-2.92-.33-6.39-.49-9.92,0-.11-.05-.21-.15-.27-.09-.07-.2-.09-.31-.05-.85.26-1.73.45-2.62.56-.89.05-1.78.04-2.67-.04-.12,0-.23.04-.31.13-.07.1-.09.22-.06.33.19.74.34,1.5.43,2.26.17,1.14.35,2.49.52,4.12l.58,5.26c.2,1.92.41,3.84.59,5.79l.99,10.15c-4.64-4.12-9.29-8.31-13.84-12.41-4.73-4.26-9.52-8.61-14.36-13.03-.09-.08-.22-.11-.35-.08-.85.26-1.72.44-2.6.56-.89.06-1.78.05-2.67-.04-.11,0-.21.03-.29.11-.07.08-.1.18-.09.29.17,1.44.4,3.11.67,4.98.27,1.87.53,4.2.79,6.94" style="fill:#fff;"/><path id="Path_1382" d="m370.23,70.62c2.13,1.81,4.61,3.16,7.28,3.98,2.67.8,5.44,1.19,8.22,1.16h1.34c4.3-.03,8.54-1.06,12.37-3.01.11-.05.18-.16.19-.29.05-.85.18-1.7.38-2.53.2-.86.45-1.72.74-2.56.05-.16-.01-.34-.16-.42l-.81-.45c-.15-.08-.33-.06-.45.06-.63.72-1.35,1.37-2.13,1.92-.82.59-1.7,1.08-2.63,1.48-.93.41-1.89.75-2.87,1-.94.25-1.9.39-2.87.42-1.72.06-3.44-.2-5.06-.75-1.71-.58-3.27-1.53-4.57-2.79-1.47-1.46-2.62-3.2-3.41-5.12-.97-2.47-1.49-5.1-1.53-7.76-.17-2.78.14-5.56.91-8.24.6-2.07,1.61-4.01,2.95-5.7,1.14-1.42,2.57-2.57,4.19-3.38,1.46-.74,3.05-1.16,4.68-1.24,1.9-.11,3.8.23,5.55.99,1.84.94,3.45,2.26,4.74,3.88.07.08.17.12.27.12h.84c.2,0,.36-.16.36-.35,0-.02,0-.04,0-.05.04-1.03.16-2.06.33-3.08.19-1.03.46-2.04.81-3.02.06-.16,0-.34-.16-.42-.84-.44-1.71-.81-2.62-1.09-1.05-.34-2.12-.62-3.2-.83-1.1-.21-2.24-.4-3.43-.52-1.12-.11-2.25-.15-3.38-.12-3.12.11-6.2.66-9.16,1.62-2.81.92-5.4,2.41-7.62,4.37-2.24,2.07-3.97,4.62-5.08,7.46-1.28,3.47-1.82,7.18-1.59,10.87.08,2.78.71,5.52,1.84,8.06,1.09,2.42,2.7,4.58,4.71,6.32" style="fill:#fff;"/><path id="Path_1383" d="m406.84,66.59c-.09,2.56-.24,5.12-.42,7.63,0,.11.04.21.12.27.07.08.17.11.27.09.64-.06,1.39-.09,2.19-.09l5.44.04c.73,0,1.47.05,2.19.13h.05c.09,0,.17-.03.24-.09.09-.08.13-.2.12-.31-.15-2.47-.25-5.05-.32-7.64s-.08-5.55-.05-8.9l.05-8.21c0-3.42.09-6.33.2-8.9.11-2.56.22-5.18.41-7.8,0-.11-.03-.21-.11-.29-.08-.07-.18-.1-.29-.09-.67.08-1.41.15-2.22.2-.81.04-1.72.06-2.69.06s-1.92-.04-2.7-.11-1.53-.15-2.22-.22c-.1-.02-.21.01-.27.09-.08.07-.12.17-.12.27.15,2.6.24,5.22.31,7.81.07,2.59.08,5.55.05,8.9l-.05,8.19c0,3.28-.08,6.28-.19,8.9" style="fill:#fff;"/><path id="Path_1384" d="m426.75,74.81c1.92.55,3.9.86,5.9.9h.86c1.97.01,3.93-.24,5.83-.77,1.9-.52,3.69-1.41,5.25-2.62,1.47-1.15,2.66-2.62,3.49-4.3.85-1.76,1.32-3.68,1.36-5.63.14-2.04-.28-4.07-1.23-5.88-.86-1.52-2.01-2.86-3.37-3.95-1.36-1.08-2.83-2.01-4.39-2.78-1.55-.75-3-1.53-4.31-2.33-1.21-.7-2.31-1.58-3.25-2.6-.83-.95-1.24-2.19-1.15-3.45.04-1.36.68-2.64,1.75-3.49,1.22-1,2.77-1.5,4.34-1.4,3.2-.07,6.02,2.08,6.81,5.18.05.14.18.24.33.25h.9c.16.01.31-.08.36-.24l1.1-3.27c.29-.86.64-1.75,1.02-2.63.05-.15,0-.31-.11-.41-1.26-1.04-2.69-1.84-4.23-2.37-1.87-.63-3.82-.97-5.79-.99-1.79-.07-3.59.17-5.3.7-1.65.5-3.19,1.31-4.52,2.4-1.34,1.11-2.43,2.49-3.2,4.06-.84,1.77-1.3,3.71-1.32,5.67-.15,2.03.26,4.06,1.19,5.87.84,1.5,1.95,2.83,3.29,3.91,1.33,1.08,2.78,2.01,4.32,2.75,1.53.75,2.96,1.52,4.26,2.3,1.18.69,2.24,1.56,3.15,2.59.82.99,1.22,2.26,1.13,3.54,0,1.53-.64,2.99-1.75,4.05-1.42,1.19-3.27,1.75-5.12,1.55-1.09,0-2.17-.17-3.19-.53-.85-.33-1.64-.81-2.31-1.43-1.27-1.18-2.1-2.76-2.34-4.48-.02-.17-.17-.31-.35-.31l-1.15-.04c-.17.01-.31.13-.36.29-.25,1.34-.53,2.6-.84,3.75-.31,1.15-.69,2.42-1.14,3.84-.05.14,0,.29.11.38,1.19.89,2.53,1.54,3.96,1.92" style="fill:#fff;"/><path id="Path_1385" d="m473.42,76.82l1.46.15c1.03.11,2.01.24,2.91.41.14.03.28-.03.36-.15,1.71-2.4,3.42-4.8,5.12-7.1,1.69-2.3,3.37-4.48,5.12-6.7,1.04,2.5,2.06,5.03,3.01,7.53,1.11,2.92,2.13,5.5,3.1,7.89.05.14.19.23.33.22.87,0,1.75.05,2.59.15l5.24.52c.84.09,1.73.22,2.63.38h.06c.19,0,.35-.15.35-.35,0-.05-.01-.11-.04-.16-.49-1.1-1.15-2.62-2-4.57-.78-1.8-1.61-3.74-2.5-5.82l-.21-.46c-.96-2.23-1.93-4.53-2.91-6.9-.95-2.28-1.81-4.4-2.6-6.39,1.22-1.4,2.44-2.88,3.69-4.37,1.35-1.64,2.7-3.25,4.02-4.81,1.32-1.55,2.56-3.01,3.75-4.36,1.2-1.35,2.12-2.4,2.88-3.2.1-.1.13-.26.06-.4-.06-.13-.19-.21-.33-.2-.57,0-1.11.04-1.61.04-.48.02-.96,0-1.44-.05-.49-.05-.97-.13-1.45-.24l-1.52-.36c-.14-.03-.29.02-.38.13-1.57,2.21-3.25,4.52-5.03,6.9-1.62,2.18-3.24,4.34-4.83,6.39-.95-2.38-1.92-4.74-2.81-7.12-1.01-2.56-1.98-5.12-2.94-7.67-.05-.14-.18-.24-.33-.24-.93,0-1.82,0-2.69-.05-.86-.05-1.76-.08-2.67-.17s-1.8-.21-2.67-.36l-2.74-.49c-.13-.02-.26.03-.35.13-.08.1-.09.24-.04.36l4.34,9.99,3.07,7.03c1,2.35,1.92,4.48,2.71,6.36-1.15,1.41-2.39,2.92-3.7,4.52s-2.71,3.29-4.04,4.9l-3.79,4.56c-1.19,1.43-2.22,2.59-3.07,3.47-.1.1-.13.26-.06.4.07.12.19.2.33.21.52-.02,1.04,0,1.56.04" style="fill:#fff;"/><path id="Path_1386" d="m507.4,80.16c.06.12.19.19.32.19.51.01,1.02.05,1.52.12l2.83.43c.45.07.9.18,1.34.33.17.05.36-.03.43-.2.86-1.86,1.78-3.77,2.76-5.66.98-1.89,1.97-3.72,3.02-5.54.97.12,1.92.24,2.88.37s2.06.29,3.1.45c1.28.2,2.56.4,3.84.64s2.38.41,3.57.64c.42,2.08.81,4.15,1.16,6.17.36,2.13.7,4.21,1.04,6.27.02.17.16.3.33.31.84.04,1.68.13,2.51.26l5.08.79c.84.13,1.75.31,2.67.53h.08c.2,0,.36-.17.36-.37,0-.03,0-.06-.01-.09-.79-2.46-1.62-5.5-2.5-9.04-.88-3.54-1.78-7.42-2.66-11.26-.88-3.84-1.8-7.9-2.66-12.06l-2.4-11.51c-.04-.16-.18-.28-.35-.27h-1.15c-.36,0-.73-.02-1.09-.08-.36-.06-.72-.14-1.07-.25-.35-.12-.7-.24-1.09-.38-.16-.07-.35,0-.43.16-1.23,2.13-2.56,4.43-4.03,6.89-1.47,2.46-2.94,4.96-4.48,7.49-1.54,2.54-3.01,5.04-4.52,7.52l-4.23,6.95c-1.28,2.13-2.49,4.07-3.58,5.79-1.09,1.71-1.92,3.04-2.56,3.99-.07.11-.07.26,0,.37m18.19-20.46c1.1-1.88,2.29-3.84,3.56-5.88.51,2.23.99,4.48,1.43,6.65.46,2.3.93,4.65,1.39,7.03l-9.91-1.53c1.18-2.16,2.37-4.26,3.54-6.27" style="fill:#fff;"/><path id="Path_1387" d="m552.76,58.03c.48,2.67.97,5.44,1.46,8.31.52,2.84.99,5.66,1.43,8.37.43,2.71.84,5.3,1.22,7.72l.95,6.18c.02.16.16.29.32.31.87.09,1.73.23,2.59.42.86.17,1.72.38,2.56.64h.11c.13,0,.26-.07.32-.19,1.81-3.04,3.88-6.33,6.12-9.81,2.24-3.48,4.57-7,6.77-10.23,2.19-3.24,4.37-6.44,6.49-9.49,2.12-3.05,3.84-5.54,5.3-7.67.07-.11.07-.26,0-.37-.07-.12-.19-.19-.32-.2-.87.01-1.74-.07-2.59-.24-.85-.19-1.68-.46-2.47-.82-.17-.06-.35,0-.45.15-2.49,4.3-5.26,8.83-8.24,13.47-2.81,4.39-5.71,8.78-8.62,13.09-.35-2.38-.71-4.79-1.1-7.25-.41-2.7-.82-5.47-1.19-8.24s-.73-5.4-1.07-8.03-.64-5.12-.81-7.44c-.01-.17-.15-.31-.32-.33-.89-.09-1.76-.21-2.64-.33s-1.73-.27-2.59-.45-1.72-.4-2.59-.64l-2.63-.69c-.12-.04-.26-.01-.35.08-.09.08-.14.21-.12.33.32,1.62.68,3.59,1.11,5.9.43,2.3.86,4.8,1.34,7.47" style="fill:#fff;"/><path id="Path_1388" d="m584.83,86.78c-.72,2.46-1.48,4.92-2.26,7.3-.05.1-.05.21,0,.31.06.08.16.14.26.16.72.1,1.44.25,2.14.43l5.26,1.36c.71.17,1.41.39,2.1.64h.12l.17-.04c.09-.05.16-.14.19-.25.46-2.42.99-4.93,1.56-7.47.57-2.54,1.28-5.47,2.12-8.65l2.08-7.94c.83-3.24,1.62-6.13,2.35-8.58.73-2.45,1.5-4.98,2.3-7.47.05-.1.05-.21,0-.31-.06-.09-.16-.15-.26-.16-.67-.09-1.4-.21-2.19-.36s-1.69-.29-2.67-.55-1.82-.51-2.56-.75-1.45-.52-2.1-.77c-.09-.04-.2-.04-.29,0-.09.05-.15.14-.17.24-.51,2.56-1.04,5.12-1.61,7.67s-1.28,5.47-2.12,8.65l-2.08,7.98c-.82,3.16-1.61,6.04-2.35,8.58" style="fill:#fff;"/><path id="Path_1389" d="m600,98.63c-.05.1-.05.21,0,.31.05.09.14.16.25.17.31.05.68.15,1.13.25s1.1.31,1.96.58l9.15,2.81c2.64.82,4.73,1.46,6.24,1.96s2.78.91,3.84,1.28h.12c.08,0,.15-.02.21-.06.09-.07.15-.17.15-.29-.01-.28,0-.56.04-.84.06-.33.2-.82.38-1.43.14-.47.3-.93.49-1.39.15-.32.32-.68.52-1.07.05-.1.05-.23,0-.33-.05-.1-.14-.17-.25-.19-2.31-.42-4.59-.91-6.8-1.46-2.09-.53-4.2-1.11-6.29-1.75.58-2.24,1.24-4.57,1.97-6.93.38-1.23.77-2.46,1.16-3.68.36-1.11.72-2.23,1.07-3.36,4.19,1.28,8.42,2.8,12.57,4.48.1.05.21.05.31,0,.09-.05.16-.14.17-.25.12-.64.2-1.14.24-1.5.04-.31.1-.62.2-.91.1-.36.23-.7.38-1.04.13-.33.37-.81.67-1.41.05-.1.05-.21,0-.31-.04-.1-.13-.17-.24-.2-2.22-.55-4.35-1.1-6.39-1.65-1.92-.52-4.1-1.14-6.47-1.82.64-2,1.23-3.98,1.85-5.93.62-1.96,1.32-3.93,2.08-5.87.42.13,1.02.35,1.78.64.99.35,2.09.75,3.32,1.22s2.5.94,3.79,1.41,2.5.94,3.59,1.36c.1.05.21.05.31,0,.1-.05.16-.15.17-.26.05-.43.12-.83.19-1.18s.19-.81.37-1.43c.23-.79.55-1.56.95-2.28.05-.1.05-.23,0-.33-.04-.1-.14-.18-.25-.2-.78-.16-2.26-.54-4.48-1.18s-4.74-1.36-7.62-2.24c-1.72-.53-3.42-1.1-5.08-1.69s-3.42-1.2-5.12-1.76c-.09-.05-.2-.05-.29,0-.09.05-.15.13-.17.22-.64,2.5-1.28,5.05-1.96,7.58-.68,2.53-1.51,5.29-2.49,8.41l-2.42,7.85c-.97,3.15-1.92,5.99-2.74,8.47-.82,2.49-1.72,4.88-2.59,7.17" style="fill:#fff;"/><path id="Path_1390" d="m631.05,100.38c-.99,2.35-2.02,4.69-3.08,7-.05.1-.05.21,0,.31.04.09.13.16.22.19.71.19,1.41.42,2.09.68l5.08,1.96c.68.26,1.35.56,2,.9.1.05.21.05.31,0,.1-.04.18-.12.21-.22.73-2.35,1.55-4.78,2.4-7.25.86-2.46,1.92-5.25,3.1-8.31l.75-1.92,3.2,21.39c.02.14.12.25.26.29.87.25,1.73.56,2.56.87l5.12,1.97c.82.32,1.64.67,2.46,1.09l.16.04c.08,0,.16-.03.22-.08.11-.09.16-.22.13-.36-.86-3.91-1.72-7.87-2.56-11.83-.81-3.84-1.5-7.62-2.05-11.32,2.61.36,5.28-.07,7.64-1.24,2.35-1.32,4.14-3.46,5.01-6.02.65-1.55.9-3.24.73-4.92-.19-1.52-.72-2.98-1.55-4.27-.38-.54-.81-1.05-1.28-1.52-.53-.52-1.12-.98-1.75-1.37-.82-.52-1.67-.98-2.56-1.37-.99-.47-2.22-.99-3.63-1.55-1.92-.73-3.54-1.28-4.89-1.72s-2.5-.81-3.5-1.19-1.76-.72-2.47-1.06-1.39-.67-2-.99c-.17-.09-.39-.03-.48.15,0,.02-.02.03-.02.05-.79,2.51-1.62,5.01-2.49,7.42s-1.92,5.29-3.1,8.31l-2.96,7.67c-1.19,3.1-2.31,5.87-3.32,8.25m20.11-24.43c1.2.46,2.38,1,3.52,1.61.88.44,1.64,1.1,2.19,1.92.48.78.71,1.7.64,2.62-.12,1.38-.45,2.74-.99,4.02-.64,2.18-2.13,4.02-4.12,5.12-2,.78-4.24.7-6.18-.21-.19-.07-.38-.15-.56-.24l-.33-.19c1.92-4.87,3.84-9.78,5.84-14.63" style="fill:#fff;"/><path id="Path_1391" d="m669.12,100.41c.07.08.16.12.26.11l.17-.04c2.51-1.41,4.67-2.62,6.44-3.63l4.55-2.58c1.24-.72,2.24-1.34,3-1.84s1.34-.91,1.76-1.22c.37-.25.71-.55.99-.89.17-.23.32-.48.45-.74.54-1.11.49-2.41-.12-3.48-.28-.47-.63-.9-1.03-1.28-.4-.37-.85-.67-1.34-.9-.72-.36-1.54-.48-2.34-.35-1.08.33-2.05.95-2.81,1.78-1.53,1.48-2.96,3.07-4.28,4.73-1.76,2.16-4.06,5.08-6.82,8.7-.11.13-.11.32,0,.45l1.13,1.17Z" style="fill:#fff;"/><path id="Path_1392" d="m685.15,106.02c.07,1.72.46,3.41,1.16,4.98.7,1.56,1.59,3.04,2.63,4.4,1.02,1.36,1.92,2.7,2.75,3.96.74,1.16,1.29,2.42,1.64,3.75.28,1.25.07,2.56-.59,3.66-.71,1.35-1.94,2.36-3.4,2.81-1.81.43-3.72.08-5.28-.95-.94-.49-1.8-1.14-2.53-1.92-.61-.67-1.09-1.46-1.41-2.31-.3-.81-.46-1.66-.46-2.53-.01-.86.12-1.71.38-2.53.05-.16-.02-.34-.17-.42l-1-.56c-.16-.08-.35-.03-.45.11-.83,1.09-1.65,2.09-2.44,2.96s-1.71,1.84-2.74,2.9c-.1.1-.13.25-.08.38.66,1.33,1.56,2.52,2.67,3.5,1.46,1.36,3.09,2.52,4.85,3.47,1.97,1.1,4.1,1.89,6.31,2.35,1.02.2,2.06.3,3.11.31.91,0,1.82-.1,2.72-.27,1.83-.37,3.56-1.14,5.06-2.26,1.55-1.18,2.83-2.69,3.75-4.41,1.05-1.75,1.59-3.76,1.56-5.81-.09-1.75-.51-3.46-1.23-5.05-.72-1.59-1.61-3.09-2.66-4.48-1.03-1.35-1.97-2.71-2.8-4.03-.76-1.17-1.33-2.44-1.72-3.78-.31-1.22-.11-2.51.53-3.59.66-1.2,1.81-2.05,3.15-2.33,1.53-.35,3.13-.1,4.48.72,2.88,1.37,4.43,4.56,3.73,7.67-.01.15.06.29.19.37l.79.43c.14.07.31.04.42-.06l2.46-2.4c.64-.64,1.32-1.28,2.09-1.92.12-.1.16-.26.11-.41-.65-1.5-1.57-2.86-2.71-4.03-1.38-1.4-2.97-2.58-4.72-3.49-1.58-.87-3.28-1.47-5.05-1.78-1.7-.29-3.43-.25-5.12.11-1.7.39-3.3,1.13-4.69,2.18-1.57,1.2-2.85,2.73-3.75,4.48-1.04,1.74-1.59,3.73-1.59,5.76" style="fill:#fff;"/><path id="Path_1393" d="m834.31,804.36l-39.26-76.05c.07-.25.11-.51.11-.77,0-.11-.03-.22-.06-.33-3.03-7.26-10.9-11.24-18.55-9.37-17.11,1.96-35.22,18.27-34.94,24.3.04,1.19.84,2.22,1.98,2.56-.44.76-.75,1.58-.93,2.44-.53,1.41-.7,2.94-.51,4.43.54,4.72,12.15,18.33,13.53,19.91-1.5,1.2-3,2.4-4.61,3.61-33.82,25.46-75.38,39.59-114.28,47.32,1.8-9.99,6.08-19.36,12.45-27.26,2.98-3.63,6.16-7.1,9.5-10.4,2.82-2.64,5.77-5.14,8.84-7.48,8.77-3.59,17.56-7.43,26.39-11.51.36-.17.61-.49.7-.87l2.49-11.51h.06c.45-.26.71-.76.64-1.28l-.25-1.92.22-1.04c.1-.39,0-.8-.27-1.1-.07-.07-.15-.13-.24-.17l-10.62-83.89c-.05-.4-.29-.74-.64-.94-.35-.19-.76-.21-1.13-.05-117.26,52.19-247.25,68.87-373.89,47.96-96.02-15.78-157.72-47.59-158.33-47.92-.38-.2-.83-.2-1.2,0-.37.2-.61.58-.64,1l-4.16,57.23-4.66,43.2c-.06.52.21,1.03.67,1.28.22.12,7.94,4.07,21.93,9.9,3.86,2.8,7.54,5.84,11.02,9.09,3.36,3.31,6.55,6.8,9.55,10.44,6.37,7.91,10.65,17.29,12.44,27.29-57.43-11.42-94.96-32.07-118.76-51.12,1.8-2.1,12.85-15.14,13.38-19.75.2-1.5.03-3.02-.51-4.43-.17-.86-.49-1.68-.93-2.44,1.14-.34,1.95-1.37,2-2.56.26-6.02-17.85-22.33-34.94-24.3-7.64-1.84-15.49,2.13-18.54,9.37-.03.11-.05.22-.05.33,0,.26.02.52.09.77L.14,804.36c-.21.41-.18.89.06,1.28,1.23,1.85,2.59,3.7,4,5.53l-3.32,6.2c-.22.4-.2.9.05,1.28,17.73,26.77,53.51,48.36,80.41,61.75,26.89,13.79,55.44,24.05,84.96,30.52,9.58,1.72,19.3,2.63,29.03,2.71,4.31.08,8.61-.21,12.87-.87.34-.07.63-.28.82-.57l51.23-80c1.72-1.88,3.02-4.1,3.84-6.52l.04-.16c.58-1.83.82-3.75.7-5.66-.56-5.1-2.64-9.91-5.99-13.8,15.55,3.78,32.36,7.32,50.31,10.31,36.88,6.14,74.2,9.22,111.58,9.23,51.85.06,103.52-6.05,153.93-18.19-2.8,3.6-4.52,7.91-4.97,12.45-.11,1.91.13,3.83.7,5.66l.05.16c.7,2.13,1.8,4.11,3.24,5.83l51.02,80.69c.18.29.48.5.82.57,4.26.66,8.58.95,12.89.87,9.74-.08,19.45-.99,29.03-2.71,29.51-6.61,58.01-17.11,84.75-31.25,24.02-12.27,55.15-31.21,74.15-54.36.99-1.19,1.96-2.39,2.87-3.61,1.11-1.48,2.18-2.96,3.2-4.48.13-.19.2-.41.21-.64-.01-.07-.03-.13-.05-.2,0-.15-.03-.3-.09-.43l-2.34-4.56c1.46-1.92,2.9-3.84,4.16-5.76.25-.38.27-.87.06-1.28m-79.3-55.63c-.95-.99-1.82-1.96-2.6-2.86.74-1,1.45-1.98,2.26-2.88,1.16-1.58,2.46-3.07,3.88-4.43,1.5-1.34,3.16-2.47,4.96-3.37,1.82-.98,3.75-1.72,5.76-2.22.06-.01.11-.07.11-.13,0-.07-.07-.13-.15-.12-4.27.33-8.38,1.81-11.88,4.27-1.89,1.14-3.49,2.7-4.69,4.55-.58.93-1.04,1.93-1.36,2.97-.83-1-1.5-1.85-1.92-2.39,5.61-9.87,16.07-15.98,27.43-16.02,5.3.05,10.53,1.17,15.39,3.28-6.48,10.35-14.29,19.81-23.23,28.14l-.24-.06c-2.53-.33-4.92-1.32-6.94-2.87.93-1.25,2-2.38,3.2-3.37,1.3-1.12,2.74-2.08,4.28-2.84.06-.03.08-.1.06-.16-.02-.06-.08-.1-.14-.08,0,0-.01,0-.02,0-3.42.93-6.54,2.75-9.03,5.28-1.16-.91-2.3-1.92-3.38-2.95.42-.82.91-1.61,1.46-2.35,1.2-1.62,2.6-3.07,4.16-4.34,1.56-1.32,3.28-2.45,5.12-3.34.05-.03.09-.09.08-.15-.02-.07-.09-.11-.16-.09-4.11,1.21-7.83,3.5-10.76,6.62-.57.64-1.13,1.24-1.65,1.92m-601.75-82.66c50,22.97,102.94,38.9,157.31,47.32,126.58,20.91,256.52,4.43,373.87-47.43l10.87,85.62c-6.86,3.84-62.16,33.52-151.99,49.18-88.1,15.35-228.34,19.92-396.48-45.29l6.41-89.4Zm-68.23,76.05c-.41.54-1.09,1.39-1.92,2.39-.31-1.05-.77-2.05-1.36-2.97-1.2-1.85-2.8-3.4-4.68-4.55-3.51-2.46-7.62-3.94-11.89-4.27-.06,0-.12.05-.13.11-.01.07.03.13.09.14,0,0,.01,0,.02,0,1.99.5,3.91,1.25,5.71,2.22,1.8.9,3.47,2.03,4.97,3.37,1.4,1.37,2.68,2.85,3.84,4.43.8.92,1.56,1.88,2.26,2.88-.77.9-1.65,1.86-2.6,2.86-.52-.67-1.09-1.28-1.65-1.92-2.93-3.13-6.65-5.41-10.76-6.62-.06,0-.13.02-.16.08-.02.07.01.14.08.16,1.84.9,3.56,2.02,5.12,3.34,1.56,1.26,2.96,2.72,4.16,4.34.55.74,1.03,1.53,1.45,2.35-1.08,1.04-2.21,2.02-3.38,2.95-2.49-2.53-5.6-4.35-9.03-5.28-.06-.02-.13,0-.16.06-.02.07.01.14.08.17,1.54.77,2.97,1.72,4.27,2.84,1.21.99,2.3,2.12,3.24,3.37-2.03,1.55-4.42,2.54-6.95,2.87l-.24.06c-8.93-8.33-16.74-17.79-23.23-28.14,15.42-7.57,34.07-2.02,42.85,12.74m122.52,165.32c-13.52,1.42-27.17.77-40.49-1.92-40.57-7-131.81-43.64-162.51-89.11l1.48-2.88c35.47,43.43,119.79,80.47,157.54,86.92,14.64,2.54,29.47,3.87,44.34,3.98h1.61l-1.97,3.02Zm2.7-5.53c-15.5.06-30.98-1.25-46.25-3.93-39.46-6.77-130.35-47.21-161.33-93.14l3.72-7.17c.36,1.15.84,2.26,1.43,3.32.97,1.59,2.14,3.05,3.48,4.35,2.48,2.77,5.51,4.99,8.9,6.53l.13-.05c.03-.05,0-.12-.05-.15,0,0,0,0,0,0-1.52-.96-2.91-2.11-4.15-3.41-1.27-1.25-2.45-2.6-3.52-4.03-1.09-1.43-1.92-3.01-2.99-4.41-.84-1.09-1.72-2.17-2.67-3.2l3.08-5.96c.12,1.52.53,3.01,1.22,4.37.91,1.59,2.09,3,3.49,4.18,1.28,1.29,2.67,2.46,4.15,3.52,1.49,1.04,3.12,1.85,4.85,2.4.08.02.15-.01.2-.08.05-.08.03-.19-.05-.25h0c-1.42-.97-2.71-2.11-3.84-3.41-1.15-1.24-2.2-2.58-3.13-3.99-.8-1.48-1.69-2.91-2.67-4.27-.55-.67-1.14-1.32-1.77-1.92-.58-.59-1.23-1.12-1.92-1.59l2.19-4.3.15.46c.37,1,1.39,1.55,2.17,2.21,1.57,1.34,3.43,2.3,5.44,2.81.06,0,.12-.01.17-.05.07-.07.07-.19,0-.26h0c-1.33-1.31-2.49-2.79-3.45-4.39-.47-.78-.64-1.75-1.35-2.33-.52-.45-1.1-.83-1.72-1.13l2.23-4.31c.05.36.13.72.25,1.07.32.94,1.24,1.44,1.98,2.03,1.44,1.3,3.21,2.16,5.12,2.49.06.01.12,0,.16-.05.07-.07.07-.19,0-.26h-.04c-1.24-1.15-2.27-2.51-3.06-4-.43-.72-.52-1.64-1.19-2.16-.63-.54-1.35-.94-2.14-1.19l1.68-3.2c.11.42.27.83.46,1.22.65.98,1.53,1.78,2.56,2.35,1.81,1.46,3.96,2.45,6.25,2.87.07,0,.13-.03.17-.08.05-.08.04-.19-.04-.25h0c-1.67-1.28-3.14-2.82-4.35-4.55-.64-.83-.93-1.92-1.76-2.56-.63-.52-1.34-.95-2.09-1.28l2.91-5.65c.1.44.23.86.4,1.28.63,1.16,1.5,2.18,2.56,2.97,1.85,1.85,4.1,3.26,6.58,4.1.07.02.14,0,.19-.05.07-.07.07-.18,0-.24,0,0,0,0,0,0h0c-1.78-1.63-3.31-3.51-4.53-5.59-.46-1.09-1.04-2.12-1.75-3.07-.63-.69-1.35-1.3-2.13-1.81l1.98-3.84c.18.73.43,1.44.74,2.12.79,1.36,1.84,2.55,3.08,3.5,2.21,2.18,4.87,3.86,7.79,4.92.07.03.16,0,.2-.06.07-.07.07-.18,0-.24,0,0,0,0,0,0h0c-2.22-1.86-4.16-4.03-5.76-6.45-.66-1.26-1.42-2.47-2.28-3.61-.77-.87-1.64-1.65-2.59-2.33l2.31-4.48c.18.82.45,1.62.81,2.38.81,1.47,1.9,2.77,3.2,3.84,1.18,1.16,2.45,2.23,3.79,3.2,1.35.94,2.83,1.69,4.39,2.23.07.03.16,0,.2-.06.07-.07.07-.18,0-.24,0,0,0,0,0,0h0c-2.4-1.96-4.48-4.29-6.15-6.9-.68-1.36-1.48-2.66-2.37-3.9-.81-.97-1.73-1.84-2.72-2.62l2.51-4.87c.27,1.02.66,2.01,1.14,2.95,1.02,1.71,2.32,3.24,3.84,4.52,2.76,2.82,6.04,5.07,9.66,6.62.07.04.16.02.21-.05.05-.08.04-.19-.04-.25h0c-1.49-1.15-2.87-2.43-4.12-3.84-1.27-1.35-2.45-2.79-3.53-4.31-.92-1.6-1.93-3.14-3.02-4.63-.92-1.11-1.93-2.16-3.01-3.12l5.88-11.4c10.26,17.93,24.31,33.4,41.18,45.33,52.68,39.72,123.87,52.21,175.1,55.63l-46.73,69.13Zm21.86-100.59c2.07,2.63,3.94,5.41,5.6,8.31,1.66,2.91,2.99,5.97,4.48,8.95.82,1.46,1.46,3.01,2.28,4.48.64,1.28,1.24,2.51,1.92,3.75-2.8-.09-5.8-.32-8.87-.64-.25-1.2-.53-2.39-.86-3.56-.53-1.62-1.09-3.25-1.71-4.85-1.38-3.14-3.06-6.13-5.01-8.95-1.86-2.83-3.92-5.52-6.18-8.04-1.51-1.63-3.13-3.16-4.84-4.57,2.69.16,5.87.49,9.59,1.02,1.26,1.31,2.46,2.68,3.58,4.11m-2.49-3.95c1.28.19,2.59.4,3.99.64,1.9,1.55,3.67,3.25,5.31,5.08,2.25,2.48,4.31,5.13,6.17,7.92,1.86,2.79,3.4,5.76,5.12,8.62.91,1.41,1.66,2.91,2.56,4.34.54.91,1.09,1.84,1.65,2.76-2.51.2-5.04.25-7.56.15-.27-1.45-.64-2.88-1.02-4.31-.53-1.62-1.09-3.25-1.72-4.84-1.36-3.14-3.04-6.14-4.99-8.95-1.88-2.86-3.97-5.58-6.25-8.13-1.06-1.13-2.16-2.22-3.29-3.25m-6.7,4.06c2.07,2.63,3.94,5.41,5.6,8.31,1.66,2.91,2.99,5.99,4.48,8.95.82,1.46,1.46,3.01,2.28,4.48.49.98.98,1.96,1.48,2.94-2.01-.21-4.04-.45-6.04-.72-.22-.99-.46-1.98-.74-2.96-.52-1.62-1.08-3.24-1.71-4.84-1.38-3.14-3.06-6.13-5.01-8.95-1.88-2.86-3.97-5.57-6.25-8.11-1.47-1.59-3.04-3.09-4.71-4.48,1.6-.08,3.53-.06,5.81.05,1.72,1.65,3.32,3.41,4.78,5.29m-6.69-.19c2.07,2.63,3.94,5.41,5.6,8.31,1.66,2.91,2.99,5.99,4.48,8.95.82,1.46,1.46,3.01,2.28,4.48.38.75.74,1.52,1.13,2.28-3.04-.41-6.02-.87-8.81-1.34-.12-1.18-.25-2.35-.45-3.52-.35-1.68-.72-3.34-1.16-4.99-1.01-3.28-2.34-6.45-3.98-9.46-1.55-3.05-3.32-5.98-5.31-8.77-.21-.31-.45-.58-.67-.87.67-.09,1.43-.17,2.26-.22,1.65,1.6,3.19,3.31,4.61,5.12m-2.43,5.47c1.34,3.08,2.3,6.28,3.49,9.4.64,1.55,1.13,3.16,1.76,4.72.37,1,.73,2.01,1.13,3-1.04-.17-2.06-.35-3.04-.53-.11-1.06-.25-2.13-.42-3.2-.35-1.66-.72-3.34-1.16-4.99-1.01-3.28-2.35-6.45-3.98-9.46-1.52-2.99-3.26-5.86-5.19-8.59.62-.23,1.27-.4,1.92-.53.27.42.57.84.83,1.28,1.77,2.85,3.32,5.82,4.66,8.9m-3.78-.32c1.34,3.07,2.3,6.28,3.49,9.4.64,1.55,1.13,3.16,1.77,4.72.31.87.64,1.76.95,2.63l-1.57-.29c-2.75-7.75-6.27-15.21-10.49-22.27l-.04-.13c-.37-.61-.34-1.39.08-1.97.31-.41.72-.74,1.18-.97,1.77,2.84,3.32,5.81,4.64,8.88m52.2,13.56c.09,1.55-.1,3.11-.54,4.6-1.92,1.28-4.16,2-6.47,2.08-.32-1.13-.64-2.23-1.06-3.33-.64-1.59-1.28-3.16-2.05-4.71-1.59-3.04-3.47-5.92-5.62-8.59-2.07-2.72-4.34-5.29-6.8-7.67-1.6-1.5-3.3-2.89-5.08-4.18,3.84.64,8.17,1.5,13.05,2.56.35.05.7-.04.98-.25.37.09.75.19,1.13.29,1.39,1.07,2.7,2.23,3.93,3.48,4.54,4.13,7.55,9.67,8.52,15.73m47.71-9.03c-57.05-8.94-112.58-25.79-164.99-50.05l.36-3.33c90.38,35.94,186.67,54.69,283.93,55.28,38.42.11,76.78-3.1,114.65-9.59,52.18-8.35,102.79-24.55,150.12-48.06l-1.23,5.66c-119.62,54.83-253,72.33-382.72,50.19m279.91,12.15c.81-1.48,1.45-3.02,2.28-4.48,1.53-2.97,2.86-6.04,4.52-8.95,1.66-2.91,3.53-5.69,5.6-8.31,1.13-1.43,2.31-2.8,3.57-4.11,3.74-.53,6.93-.84,9.59-1.02-1.7,1.41-3.31,2.93-4.81,4.55-2.28,2.55-4.37,5.26-6.25,8.11-1.95,2.82-3.62,5.82-4.99,8.95-.64,1.6-1.19,3.2-1.72,4.85-.33,1.16-.64,2.35-.86,3.56-3.07.31-6.07.53-8.87.64.68-1.24,1.28-2.5,1.92-3.75m-2.4,3.77c-2.52.1-5.04.05-7.55-.15.56-.93,1.1-1.85,1.64-2.76.91-1.43,1.66-2.92,2.56-4.34,1.75-2.86,3.27-5.83,5.12-8.62,1.86-2.79,3.92-5.43,6.17-7.92,1.64-1.83,3.42-3.52,5.31-5.08,1.4-.24,2.72-.45,3.99-.64-1.14,1.04-2.24,2.13-3.29,3.25-2.28,2.55-4.37,5.27-6.25,8.13-1.95,2.81-3.63,5.81-4.99,8.95-.64,1.59-1.19,3.2-1.72,4.84-.4,1.43-.74,2.86-1.02,4.31m11.59-3.65c.81-1.48,1.45-3.02,2.28-4.48,1.53-2.97,2.86-6.06,4.48-8.95,1.67-2.91,3.54-5.69,5.62-8.31,1.49-1.89,3.11-3.66,4.87-5.31,2.29-.13,4.2-.13,5.82-.06-1.67,1.39-3.25,2.88-4.72,4.48-2.28,2.55-4.37,5.26-6.25,8.11-1.95,2.82-3.62,5.82-4.99,8.95-.64,1.6-1.19,3.2-1.72,4.84-.27.98-.52,1.97-.74,2.96-2.01.26-4.04.51-6.04.72.51-.98,1-1.96,1.48-2.94m6.69-.19c.81-1.48,1.45-3.02,2.28-4.48,1.53-2.97,2.86-6.06,4.48-8.95,1.67-2.91,3.54-5.69,5.62-8.31,1.41-1.81,2.95-3.52,4.6-5.12.84.05,1.6.13,2.26.22l-.67.87c-1.99,2.79-3.76,5.72-5.31,8.77-1.62,3.02-2.95,6.19-3.96,9.46-.45,1.65-.83,3.32-1.18,4.99-.19,1.16-.33,2.34-.45,3.52-2.79.46-5.76.93-8.81,1.34.38-.75.75-1.52,1.13-2.28m9.59-2.19c.64-1.56,1.11-3.2,1.76-4.72,1.19-3.12,2.17-6.32,3.49-9.4,1.33-3.07,2.89-6.05,4.66-8.9.27-.43.56-.86.83-1.28.65.13,1.29.3,1.92.53-1.93,2.74-3.66,5.61-5.19,8.59-1.63,3.02-2.96,6.19-3.98,9.46-.45,1.65-.82,3.33-1.16,4.99-.17,1.06-.31,2.13-.42,3.2-.98.19-1.98.36-3.02.53.38-.99.75-2,1.11-3m3.78-.32c.64-1.56,1.11-3.2,1.76-4.72,1.19-3.12,2.17-6.33,3.49-9.4,1.33-3.07,2.88-6.04,4.64-8.88.46.23.87.56,1.19.97.4.59.43,1.35.08,1.97l-.05.15c-4.23,7.05-7.75,14.51-10.49,22.26-.52.09-1.03.2-1.57.29.33-.87.64-1.76.97-2.63m-46.41,4.05c-.45-1.49-.63-3.05-.54-4.6.99-6.09,4.03-11.66,8.61-15.8.5-.53,1.04-1.06,1.62-1.59,4.92-1.24,9.85-2.56,14.82-3.95.87-.16,1.72-.32,2.56-.45-1.78,1.27-3.47,2.66-5.06,4.16-2.46,2.38-4.74,4.95-6.81,7.67-2.15,2.68-4.03,5.56-5.62,8.59-.74,1.55-1.4,3.12-2.05,4.71-.38,1.1-.74,2.21-1.06,3.33-2.31-.07-4.55-.79-6.47-2.08m94.64,80.91c-13.33,2.69-26.98,3.34-40.5,1.92l-1.97-3h1.61c14.86-.14,29.69-1.51,44.33-4.08,37.73-6.48,122.08-43.52,157.54-86.93l1.48,2.87c-30.7,45.46-121.92,82.13-162.49,89.1m3.06-7.52c-15.27,2.67-30.75,3.99-46.25,3.93l-46.5-69.33c51.24-3.4,122.42-15.89,175.1-55.63,16.86-11.93,30.92-27.4,41.18-45.33l5.88,11.4c-1.08.97-2.08,2.01-3.01,3.12-1.09,1.49-2.1,3.04-3.02,4.63-1.07,1.52-2.25,2.96-3.53,4.31-1.25,1.41-2.63,2.69-4.12,3.84h0c-.07.05-.09.13-.06.21.04.09.15.13.24.09,3.63-1.55,6.91-3.8,9.66-6.62,1.52-1.28,2.82-2.81,3.84-4.52.49-.94.87-1.93,1.15-2.95l2.5,4.87c-1,.77-1.91,1.65-2.71,2.62-.89,1.24-1.68,2.54-2.38,3.9-1.67,2.61-3.74,4.94-6.13,6.9h0c-.06.04-.09.13-.06.2.03.09.13.15.22.12,1.56-.54,3.03-1.29,4.39-2.23,1.34-.97,2.61-2.04,3.79-3.2,1.3-1.06,2.39-2.37,3.2-3.84.35-.77.62-1.57.81-2.39l2.3,4.48c-.94.68-1.81,1.46-2.59,2.33-.86,1.14-1.61,2.34-2.26,3.61-1.59,2.42-3.53,4.59-5.76,6.45h0c-.05.05-.07.13-.05.2.03.09.13.15.22.12,2.92-1.06,5.58-2.74,7.79-4.92,1.25-.96,2.29-2.15,3.08-3.5.32-.68.57-1.39.74-2.12l2,3.84c-.78.52-1.5,1.12-2.14,1.81-.7.95-1.28,1.98-1.75,3.07-1.22,2.08-2.75,3.96-4.52,5.59h0c-.05.05-.07.12-.05.19.03.09.13.15.22.12,2.48-.84,4.73-2.24,6.58-4.1,1.06-.8,1.93-1.81,2.56-2.97.15-.42.28-.84.38-1.28l2.91,5.65c-.75.33-1.46.76-2.09,1.28-.83.64-1.13,1.71-1.76,2.56-1.21,1.73-2.67,3.26-4.35,4.55h0c-.05.04-.08.11-.06.17.01.1.1.17.2.16,2.29-.43,4.45-1.41,6.27-2.87,1.03-.57,1.9-1.38,2.56-2.35.18-.39.34-.8.46-1.22l1.66,3.2c-.79.25-1.52.65-2.14,1.19-.67.52-.75,1.44-1.18,2.16-.79,1.5-1.83,2.85-3.07,4h0s-.07.1-.06.16c0,.1.1.17.2.16,0,0,0,0,0,0,1.91-.33,3.68-1.19,5.12-2.49.74-.59,1.66-1.1,2-2.03.12-.35.2-.72.25-1.09l2.22,4.32c-.62.29-1.19.67-1.71,1.13-.72.58-.89,1.55-1.36,2.33-.96,1.6-2.12,3.07-3.45,4.39h0s-.06.11-.05.17c.02.1.11.16.21.15,2-.51,3.86-1.47,5.44-2.81.78-.64,1.8-1.2,2.17-2.21.06-.16.11-.32.16-.47l2.19,4.26c-.69.46-1.33.99-1.92,1.59-.64.6-1.23,1.24-1.77,1.92-.98,1.37-1.88,2.79-2.69,4.27-.93,1.42-1.98,2.75-3.13,3.99-1.13,1.3-2.42,2.44-3.84,3.41h0c-.06.04-.09.13-.06.2.02.09.11.15.2.14,0,0,0,0,0,0,1.73-.54,3.37-1.36,4.85-2.4,1.48-1.06,2.87-2.23,4.16-3.52,1.4-1.18,2.58-2.59,3.49-4.18.67-1.38,1.08-2.86,1.22-4.39l3.08,5.97c-.97,1.06-1.84,2.14-2.67,3.2-1.1,1.4-1.92,2.99-3,4.41-1.06,1.43-2.24,2.78-3.5,4.03-1.24,1.31-2.64,2.45-4.16,3.41l-.05.13c.03.05.09.08.15.06,3.38-1.54,6.4-3.76,8.88-6.53,1.34-1.3,2.51-2.76,3.48-4.35.59-1.06,1.07-2.18,1.44-3.33l3.7,7.19c-30.99,45.94-121.87,86.37-161.33,93.15" style="fill:#fff;"/><path id="Path_1394" d="m302.25,732.64c.12-.13.12-.33,0-.46-.84-.87-1.75-1.66-2.74-2.37-1.13-.85-2.32-1.62-3.56-2.31-1.29-.74-2.63-1.42-3.99-2.02-1.32-.6-2.68-1.11-4.07-1.52-3.85-1.14-7.85-1.73-11.87-1.75-3.8-.03-7.57.74-11.06,2.24-3.57,1.61-6.73,4.02-9.23,7.03-2.98,3.72-5.15,8.03-6.36,12.64-1.03,3.42-1.38,7.01-1.02,10.56.35,3.41,1.44,6.7,3.2,9.64,1.86,3.08,4.34,5.74,7.27,7.81,3.41,2.39,7.21,4.17,11.22,5.28,3.73,1.15,7.61,1.76,11.51,1.82,1.62,0,3.23-.14,4.83-.42.12-.02.23-.11.27-.22.41-1.03.91-2.01,1.5-2.95.64-.98,1.28-1.92,1.96-2.84.1-.14.1-.32,0-.46l-.81-.88c-.11-.12-.29-.14-.43-.06-1.07.62-2.22,1.12-3.41,1.46-1.25.38-2.54.63-3.84.75-1.31.12-2.63.14-3.94.05-1.26-.08-2.5-.29-3.72-.64-2.15-.64-4.16-1.65-5.95-3-1.87-1.42-3.4-3.24-4.48-5.33-1.21-2.41-1.93-5.03-2.1-7.72-.2-3.44.24-6.89,1.28-10.18.93-3.48,2.45-6.77,4.48-9.75,1.6-2.3,3.63-4.27,5.97-5.81,1.98-1.28,4.22-2.13,6.55-2.47,2.1-.31,4.24-.17,6.28.41,2.4.64,4.6,1.84,6.44,3.5,1.88,1.91,3.34,4.19,4.27,6.7.03.1.12.18.22.21l1.04.31c.18.05.37-.04.43-.21.48-1.25,1.03-2.47,1.66-3.65.65-1.19,1.39-2.33,2.23-3.4" style="fill:#fff;"/><path id="Path_1395" d="m355.83,737.49c-.9,0-1.86-.08-2.88-.16s-2.19-.22-3.47-.41-2.39-.41-3.42-.64-1.97-.46-2.79-.7c-.11-.02-.21,0-.31.05-.09.06-.14.16-.15.26-.31,3.34-.64,6.7-1.06,9.97s-.85,6.86-1.49,10.99c-1.4-.17-2.91-.36-4.52-.58-1.76-.24-4.02-.58-6.8-.99s-5.12-.79-6.96-1.11c-1.76-.29-3.2-.54-4.48-.78.64-4.12,1.23-7.8,1.78-10.93.57-3.24,1.24-6.54,2.01-9.81.02-.11,0-.22-.06-.31-.07-.08-.17-.13-.27-.13-.84-.04-1.8-.09-2.88-.17s-2.18-.21-3.45-.41-2.44-.41-3.43-.64-1.97-.47-2.79-.7c-.1-.03-.22-.01-.31.05-.08.06-.14.15-.15.25-.31,3.37-.64,6.75-1.06,10.05-.42,3.29-.94,7.15-1.57,11.4l-1.6,10.48c-.64,4.23-1.28,8.05-1.92,11.34-.64,3.29-1.28,6.57-1.92,9.68-.03.1,0,.21.06.29.06.08.16.13.26.13.87.04,1.82.13,2.84.27l6.94,1.06c.94.14,1.87.34,2.79.58.1.03.21.01.29-.05.09-.05.15-.15.16-.25.27-3.2.64-6.5,1.02-9.82.38-3.32.93-7.1,1.57-11.38l.64-4.07c1.82.19,3.69.4,5.55.64,2.01.25,3.99.53,5.86.81,1.87.27,3.89.64,5.84,1,1.82.36,3.65.7,5.49,1.03l-.64,4.06c-.64,4.23-1.28,8.05-1.88,11.34s-1.28,6.52-1.92,9.66c-.03.11,0,.22.06.31.06.08.16.13.26.13.95.03,1.9.12,2.84.27l6.94,1.06c.94.13,1.87.33,2.79.58h.09c.07,0,.14-.02.2-.06.09-.06.15-.16.16-.26.26-3.2.64-6.48,1.02-9.82.38-3.34.93-7.11,1.57-11.38l1.6-10.48c.64-4.23,1.28-8.05,1.92-11.34s1.28-6.61,1.97-9.9c.03-.11,0-.22-.06-.31-.06-.08-.16-.13-.26-.13" style="fill:#fff;"/><path id="Path_1396" d="m388.49,767.63c3.38-.57,6.52-2.12,9.02-4.48,2.38-2.52,3.74-5.82,3.84-9.28.2-2.15-.15-4.31-1-6.29-.81-1.79-2.01-3.37-3.52-4.63-.67-.52-1.37-.98-2.12-1.37-.85-.43-1.75-.78-2.67-1.02-1.19-.32-2.41-.56-3.63-.72-1.43-.2-3.13-.37-5.08-.49-2.66-.17-4.9-.24-6.69-.24s-3.38-.04-4.77-.12c-1.28-.09-2.46-.2-3.48-.35s-2-.31-2.84-.46c-.1-.01-.21.01-.29.08-.08.06-.13.16-.13.26,0,3.37-.08,6.77-.2,10.11s-.32,7.22-.59,11.47l-.68,10.59c-.27,4.26-.58,8.11-.9,11.46-.32,3.34-.7,6.65-1.11,9.8-.02.1.02.21.09.29.07.08.17.12.27.12.95-.06,1.89-.06,2.84,0l7.03.46c.95.06,1.89.17,2.83.35.1,0,.2-.02.29-.08.08-.07.13-.17.13-.27,0-3.2.06-6.53.17-9.86s.32-7.19.59-11.51l.19-2.83h.15l12.24,25.25c.05.14.19.22.33.2,1.16,0,2.34,0,3.52.08l7.03.46c1.14.08,2.3.2,3.47.38h.02c.12,0,.23-.06.29-.16.07-.11.07-.26,0-.37-2.64-4.63-5.24-9.2-7.71-13.6s-4.81-8.87-6.94-13.27m-3.06-4.94c-2.19,1.76-5.01,2.54-7.79,2.16-.25,0-.51-.04-.78-.08l-.57-.11c.45-6.81.98-13.71,1.57-20.5,1.7.11,3.39.32,5.06.64,1.27.21,2.47.73,3.49,1.52.91.8,1.54,1.86,1.82,3.04.41,1.76.52,3.58.33,5.38.04,2.96-1.09,5.82-3.15,7.94" style="fill:#fff;"/><path id="Path_1397" d="m422.69,762.76c.06-4.27.19-8.13.35-11.51.16-3.38.37-6.71.64-10.08.01-.2-.14-.37-.34-.38-.02,0-.04,0-.05,0-.86.09-1.8.16-2.87.22s-2.19.08-3.49.06-2.44-.08-3.48-.17-2.02-.21-2.87-.33c-.1,0-.21.02-.29.09-.08.08-.12.18-.12.29.16,3.34.26,6.74.31,10.08.04,3.34.04,7.23,0,11.51l-.17,10.6c-.08,4.31-.19,8.17-.35,11.51-.16,3.34-.37,6.62-.64,9.84,0,.11.04.21.11.29.08.07.18.11.29.09.94-.09,1.89-.12,2.84-.11l7.03.12c.95.01,1.9.08,2.84.2h.05c.09,0,.17-.03.24-.09.08-.07.12-.17.12-.27-.16-3.2-.26-6.55-.32-9.86s0-7.26.04-11.51l.15-10.58Z" style="fill:#fff;"/><path id="Path_1398" d="m436.88,769.23c1.79,1.28,3.72,2.35,5.76,3.2,2.03.84,3.94,1.75,5.66,2.66,1.58.81,3.03,1.87,4.28,3.13,1.15,1.24,1.77,2.87,1.73,4.56.08,2-.63,3.95-1.98,5.42-1.78,1.67-4.16,2.53-6.6,2.39-1.39.05-2.77-.13-4.1-.54-1.14-.36-2.2-.93-3.13-1.68-.86-.73-1.59-1.59-2.17-2.56-.56-.95-.95-2-1.17-3.08-.04-.17-.19-.29-.36-.29h0l-1.48.04c-.18,0-.33.14-.35.32-.21,1.76-.47,3.41-.81,4.9-.33,1.5-.73,3.2-1.19,5.01-.04.14.01.29.13.37,1.58,1.05,3.35,1.78,5.21,2.16,2.19.51,4.44.76,6.69.74h.95c2.9-.04,5.78-.53,8.54-1.44,2.4-.81,4.63-2.08,6.54-3.74,1.79-1.59,3.21-3.55,4.16-5.76.97-2.32,1.43-4.81,1.34-7.32.03-2.62-.66-5.19-2-7.44-1.23-1.89-2.81-3.52-4.66-4.82-1.82-1.3-3.78-2.39-5.84-3.25-2.03-.86-3.96-1.76-5.76-2.7-1.62-.82-3.1-1.88-4.4-3.15-2.43-2.61-2.3-6.69.31-9.13,1.5-1.41,3.5-2.19,5.56-2.16h.35c4.04-.18,7.7,2.38,8.91,6.24.05.14.18.23.33.22h1.16c.15-.02.28-.13.31-.28l1.18-4.3c.31-1.09.67-2.26,1.11-3.47.06-.15.01-.32-.12-.41-1.68-1.24-3.58-2.16-5.59-2.72-2.44-.68-4.98-.96-7.51-.84-2.31.05-4.59.48-6.75,1.28-2.08.76-3.99,1.92-5.62,3.41-1.65,1.52-2.96,3.38-3.84,5.45-.96,2.33-1.4,4.84-1.28,7.36-.04,2.61.63,5.18,1.96,7.43,1.17,1.87,2.69,3.49,4.48,4.78" style="fill:#fff;"/><path id="Path_1399" d="m465.23,743.96c.04.55.04,1.11,0,1.66-.04.58-.08,1.15-.13,1.72-.02.2.13.37.32.39.04,0,.08,0,.11,0,1.09-.24,2.33-.47,3.68-.73,1.35-.26,2.66-.45,3.93-.64s2.5-.35,3.63-.49c1.02-.13,1.86-.22,2.56-.27.16.78.27,1.56.35,2.35.12,1.24.24,2.62.37,4.11l1.59,19.43c.35,4.2.64,8.06.78,11.47s.27,6.7.33,9.86c0,.1.05.2.13.26.06.05.14.08.22.08h.06c.93-.18,1.88-.31,2.83-.38l7-.57c.95-.09,1.91-.12,2.86-.08.1,0,.2-.05.27-.12.07-.08.1-.19.08-.29-.46-3.2-.88-6.48-1.28-9.78-.4-3.31-.73-7.15-1.09-11.45l-1.92-23.56c-.05-.64-.09-1.15-.11-1.62v-.75c.72-.04,1.57-.09,2.56-.13,1.14-.04,2.34-.06,3.62-.09s2.51,0,3.84,0,2.49.08,3.52.15c.12,0,.23-.05.31-.13.07-.09.09-.21.06-.32-.15-.56-.29-1.11-.41-1.66-.12-.54-.21-1.09-.25-1.65-.03-.56-.03-1.12,0-1.68.04-.57.08-1.14.13-1.71.01-.11-.03-.22-.11-.29-.07-.09-.18-.13-.29-.11l-4.48.52c-1.36.17-2.78.32-4.21.46l-4.77.47c-1.73.16-3.84.35-6.25.54-2.42.2-4.52.36-6.25.47l-4.84.32c-1.46.09-2.92.17-4.35.24l-4.8.22c-.11.01-.2.07-.26.16-.06.08-.09.19-.06.29.16.57.29,1.13.41,1.68.13.54.21,1.09.25,1.65" style="fill:#fff;"/><path id="Path_1400" d="m513.05,752.67c.22,1.39.43,2.72.64,4,.2,1.28.42,2.62.64,4s.49,2.88.72,4.48c.23,1.59.56,3.45.9,5.5.46,3.25,1.63,6.36,3.43,9.11,1.57,2.3,3.67,4.19,6.13,5.5,2.53,1.31,5.31,2.08,8.15,2.24.82.06,1.64.09,2.49.09,2.33-.02,4.66-.24,6.96-.64,6.36-.63,12.19-3.81,16.17-8.82,3.49-6.23,4.41-13.57,2.56-20.46-.57-3.33-1.06-6.53-1.5-9.5s-.81-5.82-1.11-8.27c-.31-2.46-.59-4.71-.82-6.62s-.37-3.4-.45-4.57c-.02-.11-.08-.21-.17-.26-.08-.06-.19-.08-.29-.05-.64.22-1.28.42-1.86.59-.62.19-1.24.33-1.88.43-.6.1-1.21.17-1.82.2l-2.12.08c-.1,0-.19.05-.25.13-.07.09-.09.2-.06.31.78,3.45,1.55,6.98,2.23,10.48.68,3.5,1.35,7.03,1.92,10.54.57,3.5,1.09,7.07,1.44,10.38.38,3.03.34,6.09-.12,9.11-.35,2.43-1.33,4.72-2.84,6.66-1.71,1.91-4.07,3.12-6.63,3.4-2.19.4-4.42.52-6.64.36-1.9-.19-3.68-.96-5.12-2.22-1.78-1.67-3.15-3.73-4-6.02-1.36-3.57-2.33-7.28-2.88-11.06-.74-4.43-1.45-8.83-2.05-13.05-.59-4.21-1.1-8.95-1.44-14.01,0-.11-.06-.21-.15-.26-.09-.06-.2-.08-.31-.06-1,.27-2.02.54-3.1.81s-2.1.47-3.1.64-2.09.32-3.16.41-2.14.2-3.2.26c-.11,0-.2.06-.26.15-.07.09-.1.2-.08.31.35,1.28.74,3.2,1.2,5.71.53,2.67,1.11,6.06,1.8,10.05" style="fill:#fff;"/><path id="Path_1401" d="m571.46,749.02c1.63,1.49,3.53,2.66,5.6,3.43,2.06.77,4.21,1.3,6.39,1.59,2.18.29,4.26.64,6.16,1.09,1.74.37,3.42,1.02,4.96,1.92,1.42.89,2.45,2.3,2.87,3.93.6,1.91.42,3.98-.51,5.76-1.28,2.08-3.36,3.54-5.76,4.04-1.33.41-2.71.6-4.1.56-1.2-.05-2.37-.32-3.47-.81-1.02-.48-1.96-1.13-2.76-1.92-.8-.78-1.47-1.68-1.98-2.67-.07-.15-.25-.23-.41-.19l-1.41.42c-.17.06-.28.22-.26.4.26,1.75.42,3.41.52,4.94.1,1.53.13,3.27.15,5.15,0,.15.1.28.24.32,1.58.54,3.24.79,4.9.73h.68c2.56-.1,5.1-.53,7.56-1.28,2.79-.8,5.45-2.02,7.87-3.63,2.11-1.41,3.92-3.22,5.33-5.33,1.33-2,2.19-4.27,2.51-6.65.32-2.49.1-5.02-.64-7.42-.65-2.53-1.99-4.84-3.88-6.65-1.67-1.5-3.61-2.67-5.71-3.45-2.1-.77-4.28-1.31-6.5-1.6-2.18-.29-4.28-.64-6.24-1.1-1.77-.37-3.48-1-5.06-1.88-1.44-.84-2.47-2.22-2.87-3.84-.52-1.72-.25-3.57.73-5.08,1.08-1.76,2.8-3.02,4.8-3.53,3.93-1.42,8.32.07,10.58,3.59.09.12.24.17.38.13l1.16-.31c.15-.05.25-.19.25-.35v-4.44c0-1.18.05-2.39.16-3.65.01-.16-.08-.3-.22-.36-1.95-.76-4.03-1.15-6.12-1.16-2.53,0-5.05.39-7.47,1.15-2.21.65-4.3,1.66-6.17,3-1.8,1.28-3.34,2.9-4.53,4.76-1.18,1.9-1.95,4.03-2.24,6.25-.32,2.5-.09,5.04.67,7.44.65,2.53,1.98,4.83,3.84,6.66" style="fill:#fff;"/><path id="Path_1402" d="m76.87,791.12c-.77-.56-1.41-1.09-2.05-1.6-.08-.07-.19-.09-.29-.06-.1.01-.19.08-.24.17-1.5,2.72-3.02,5.38-4.53,7.92-1.51,2.54-3.28,5.46-5.44,8.84l-5.12,8.1c-2.08,3.25-3.98,6.18-5.69,8.68-1.71,2.5-3.43,4.97-5.12,7.3-.06.08-.09.19-.06.29.03.1.1.19.2.24.33.16.73.37,1.19.64.46.26,1.14.67,2.02,1.24l9.44,5.97c2.74,1.75,4.88,3.11,6.39,4.12,1.52,1.02,2.81,1.85,3.9,2.59.06.04.14.06.21.06h.12c.11-.04.19-.13.22-.24.08-.33.2-.64.36-.94.26-.52.54-1.01.86-1.5.3-.49.63-.96.98-1.41.26-.33.57-.68.93-1.06.08-.09.11-.21.09-.32-.03-.11-.1-.2-.2-.25-2.44-1.16-4.87-2.42-7.21-3.73-2.21-1.24-4.41-2.56-6.58-3.93.9-1.5,1.97-3.25,3.2-5.24,1.31-2.13,2.68-4.32,4.11-6.55l5.12-8.09c2.16-3.4,4-6.24,5.67-8.7,1.67-2.46,3.42-4.96,5.24-7.47.07-.08.09-.19.06-.29-.03-.1-.1-.19-.2-.24-.72-.35-1.5-.74-2.31-1.18s-1.72-.97-2.71-1.6-1.85-1.21-2.6-1.77" style="fill:#fff;"/><path id="Path_1403" d="m93.35,856.98c2.24,1.78,4.69,3.28,7.28,4.48,3.4,1.73,7.13,2.68,10.94,2.79,1.91,0,3.82-.31,5.62-.95,5.8-2.81,10.27-7.77,12.48-13.83,1.28-2.71,2.56-5.34,3.84-7.81,1.28-2.62,2.43-4.81,3.43-6.71,1.06-2.02,2-3.8,2.81-5.33.83-1.52,1.51-2.75,2.02-3.62.05-.1.05-.21,0-.31-.03-.1-.12-.18-.22-.21l-1.69-.53c-.55-.18-1.08-.39-1.6-.64-.5-.23-.98-.5-1.44-.79-.53-.32-1.06-.64-1.61-1.03-.09-.06-.2-.07-.31-.04-.11.03-.19.11-.22.21-1.16,2.88-2.42,5.88-3.74,8.95-1.32,3.07-2.67,5.99-4,8.82-1.39,2.94-2.83,5.76-4.3,8.42-1.27,2.4-2.87,4.61-4.74,6.58-1.52,1.61-3.43,2.8-5.54,3.45-2.25.53-4.61.21-6.64-.9-1.84-.83-3.56-1.91-5.12-3.2-1.31-1.11-2.23-2.61-2.64-4.27-.46-2.15-.41-4.38.15-6.5.84-3.35,2.04-6.6,3.59-9.69,1.75-3.69,3.49-7.31,5.22-10.74s3.84-7.23,6.17-11.12c.05-.1.05-.21,0-.31-.03-.11-.11-.19-.21-.22-.89-.31-1.78-.64-2.71-1s-1.8-.73-2.63-1.13-1.69-.83-2.56-1.32-1.69-.97-2.5-1.44c-.09-.05-.19-.06-.29-.04-.1.04-.18.11-.22.21-.42,1.13-1.11,2.75-2.05,4.85-.93,2.1-2.24,4.93-3.88,8.37-.54,1.15-1.07,2.25-1.59,3.29-.53,1.06-1.07,2.16-1.6,3.31s-1.14,2.38-1.8,3.72-1.37,2.84-2.18,4.55c-1.34,2.65-2.08,5.56-2.16,8.52-.02,2.52.57,5.02,1.71,7.27,1.2,2.28,2.87,4.28,4.89,5.88" style="fill:#fff;"/><path id="Path_1404" d="m148.26,839.87c.58,2.81,1.18,5.74,1.81,8.77.59,2.95,1.13,5.59,1.59,7.96-1.66,1.34-3.45,2.78-5.33,4.3-1.87,1.52-3.89,3.12-5.79,4.63l-5.44,4.31c-1.65,1.32-3.12,2.4-4.32,3.2-.12.09-.18.24-.15.38.03.14.15.24.29.26.6.1,1.19.24,1.77.42l1.64.52c1.18.37,2.24.77,3.2,1.16.13.05.27.03.37-.06,2.44-2.28,4.99-4.6,7.58-6.87,2.44-2.17,4.98-4.35,7.53-6.49.64,3.2,1.18,6.33,1.66,9.41.57,3.58,1.11,6.78,1.65,9.77.03.13.13.24.26.27,1,.22,1.98.49,2.94.78l5.84,1.85c.95.31,1.92.64,2.92,1.07h.15c.08,0,.16-.03.22-.08.1-.09.15-.23.12-.36-.31-1.37-.7-3.27-1.19-5.68s-1.02-5.04-1.59-7.83-1.11-5.51-1.69-8.58c-.53-2.84-1.02-5.49-1.44-7.93,1.56-1.19,3.29-2.56,5.28-4.14s3.84-3.07,5.76-4.53c1.92-1.46,3.66-2.83,5.3-4.09s3.04-2.26,4.09-2.97c.12-.09.17-.24.15-.38-.03-.14-.15-.24-.29-.26-.64-.11-1.28-.22-1.85-.33-.55-.1-1.1-.24-1.64-.41-.55-.18-1.08-.39-1.6-.64-.52-.24-1.07-.5-1.66-.79-.13-.06-.29-.03-.4.06-2.4,2.21-4.88,4.48-7.39,6.66-2.4,2.14-4.8,4.21-7.12,6.22-.51-2.86-1-5.76-1.53-8.95-.49-2.96-.98-6.07-1.5-9.48-.02-.15-.13-.27-.27-.31-1.06-.22-2.08-.46-3.06-.7s-1.97-.52-3-.83-2.05-.68-2.97-1.06-1.97-.78-3.01-1.2c-.12-.06-.26-.04-.36.05-.1.08-.15.22-.12.35l1.13,5.47c.43,2.1.91,4.43,1.44,6.98" style="fill:#fff;"/><path id="Path_1405" d="m701.19,849.99l-10-24.94c-.03-.09-.11-.17-.2-.2-.09-.05-.2-.05-.29,0-.86.45-1.77.81-2.7,1.09-.97.25-1.95.4-2.95.45-.17.01-.31.14-.33.31-.95,6.12-2.02,12.39-3.2,18.64-1.14,6.06-2.37,11.94-3.62,17.48-1.75-1.92-3.56-3.94-5.46-6.07-2.02-2.26-4.12-4.66-6.23-7.1-2.1-2.44-4.2-4.85-6.31-7.3-2.1-2.44-4.07-4.8-6.09-7.25-.1-.13-.27-.17-.42-.11-.47.24-.93.43-1.35.64-.4.17-.8.31-1.22.42-.45.13-.91.22-1.37.27-.43.04-.93.09-1.44.13-.1.01-.19.07-.25.15-.06.07-.09.17-.08.26,1.2,8.11,2.29,16.3,3.25,24.3.97,8,1.78,16.13,2.46,24.3,0,.12.07.22.17.27l.17.04h.16c.48-.22.98-.41,1.5-.56l3.2-.86c.53-.13,1.06-.23,1.6-.29.1-.01.2-.07.26-.15.05-.08.06-.19.03-.28l-3.06-15.53c-.95-4.84-1.77-9.86-2.43-14.93,3.74,4.23,7.47,8.5,11.09,12.71,3.81,4.43,7.63,8.84,11.46,13.24.11.12.28.15.42.08.21-.11.41-.19.58-.26l.64-.2c.21-.05.42-.09.64-.13s.42-.05.64-.06c.16,0,.3-.13.33-.29,1.04-5.99,2.12-11.89,3.2-17.58,1.03-5.54,2.08-11.17,3.15-16.87,1.88,4.89,3.75,9.82,5.63,14.79,2.01,5.31,3.77,10.31,5.24,14.84.04.09.1.16.19.21.09.03.19.03.27,0,.91-.33,1.84-.64,2.81-.9l5.51-1.51c.94-.25,1.86-.45,2.76-.64.11-.01.21-.08.25-.19.05-.1.05-.22,0-.32-1.02-2.13-2.3-5.03-3.79-8.58-1.49-3.56-3.11-7.46-4.76-11.59" style="fill:#fff;"/><path id="Path_1406" d="m744.58,854.18c-.27-.51-.51-1.03-.73-1.56-.31-.74-.51-1.24-.64-1.61s-.24-.86-.35-1.36c-.03-.11-.11-.2-.21-.25-.1-.05-.22-.05-.32,0-2.35,1.34-4.77,2.62-7.16,3.78-2.39,1.16-4.67,2.18-7,3.2-1.19-2.5-2.35-5.12-3.47-7.72-.58-1.39-1.15-2.76-1.72-4.16-.52-1.28-1.03-2.56-1.57-3.84,4.73-1.98,9.65-3.84,14.63-5.47.1-.03.18-.11.21-.21.05-.1.05-.21,0-.31-.37-.64-.67-1.16-.9-1.51-.21-.31-.38-.64-.52-.98-.18-.39-.33-.8-.45-1.22-.12-.43-.26-1.02-.43-1.78-.03-.1-.1-.19-.2-.24-.1-.05-.21-.05-.31,0-2.42,1.18-4.77,2.29-6.98,3.32-2.21,1.03-4.55,2.09-7.21,3.25-.95-2.26-1.92-4.52-2.8-6.75s-1.78-4.55-2.56-6.86c.49-.2,1.19-.46,2.12-.81,1.14-.43,2.43-.9,3.88-1.41s2.92-1.02,4.48-1.57c1.55-.56,2.95-1.03,4.23-1.46.1-.04.19-.12.22-.22.04-.11.03-.23-.04-.32-.29-.43-.53-.83-.73-1.19-.27-.51-.52-1.03-.74-1.56-.39-.88-.68-1.8-.86-2.75-.02-.12-.09-.21-.2-.26-.1-.05-.23-.05-.33,0-.81.45-2.46,1.23-4.9,2.34-2.56,1.15-5.4,2.39-8.49,3.69-1.92.82-3.9,1.59-5.82,2.3-1.92.72-3.91,1.46-5.87,2.23-.09.04-.17.12-.21.21-.03.09-.03.19,0,.27,1.35,2.72,2.67,5.5,3.93,8.24,1.25,2.74,2.7,6.03,4.16,9.52l3.72,8.83c1.52,3.61,2.84,6.85,3.9,9.59,1.06,2.74,2.1,5.59,3.07,8.37.04.09.12.17.21.21h.12c.07,0,.13-.01.19-.05.32-.17.72-.38,1.2-.64s1.2-.56,2.17-.97,2.28-.95,3.88-1.62l6.39-2.71c2.99-1.24,5.34-2.23,7.03-2.92,1.69-.69,3.16-1.28,4.35-1.72.11-.05.19-.14.22-.25.02-.11,0-.23-.08-.32-.22-.25-.41-.53-.57-.83" style="fill:#fff;"/><path id="Path_1407" d="m781.43,824.72c-3.41-2.74-6.93-5.6-10.44-8.54-3.68-3.06-7.36-6.18-10.97-9.29l-10.38-8.95c-.13-.11-.33-.11-.46,0-.37.31-.72.59-1.04.84-.34.27-.7.5-1.09.7-.37.21-.76.39-1.16.53-.41.15-.83.27-1.28.42-.17.05-.28.21-.25.38.38,2.91.77,6.02,1.15,9.24.35,2.8.68,5.64,1,8.51l.19,1.6c.4,3.42.78,6.81,1.15,10.18l1.02,9.43c.33,3.04.58,5.63.78,7.92.22,2.42.37,4.21.46,5.53,0,.13.09.24.21.29l.15.04c.08,0,.15-.03.21-.08.48-.35.98-.68,1.5-.97l2.94-1.61c.47-.25.96-.46,1.46-.64.17-.06.27-.23.24-.41-.52-2.29-1.02-4.71-1.46-7.22-.45-2.51-.81-4.87-1.11-7.31.98-.58,1.96-1.15,2.95-1.72s2.13-1.2,3.2-1.78c1.32-.72,2.64-1.43,3.98-2.13,1.34-.7,2.53-1.32,3.78-1.96,1.92,1.62,3.73,3.29,5.49,4.92s3.65,3.41,5.42,5.08c.13.11.32.11.45,0,.79-.54,1.65-1.06,2.53-1.53l5.26-2.88c.88-.47,1.84-.95,2.86-1.39.11-.05.19-.16.2-.29.02-.13-.04-.26-.15-.33-2.5-1.73-5.44-3.95-8.74-6.61m-27.71,5.34c-.43-2.86-.83-5.68-1.18-8.4s-.64-5.4-.88-8.11c2.05,1.69,4.11,3.45,6.15,5.24,2.03,1.78,4.19,3.68,6.34,5.58l-10.43,5.7Z" style="fill:#fff;"/><path id="Path_1408" d="m523.62,479.36c-.17.29-.45.49-.78.57-23.05,5.66-46.51,9.45-70.17,11.33v198.12l-33.69,14.64-33.39-13.05v-198.78c-29.72-1.25-59.25-5.36-88.18-12.27-.42-.11-.75-.44-.87-.86l-14.5-49.48c-.11-.35-.05-.72.15-1.03l6.93-10.81h-93.16c8.63,253.03,223.04,299.37,223.04,299.37,219.06-76.51,223.62-270.65,223.1-298.63l-81.73-.16-36.73,61.03Zm-70.95,221.13l-33.66,14.62-33.43-13.06v-8.36l33.44,13.06,33.64-14.66v8.4Z" style="fill:#fff;"/><path id="Path_1409" d="m382.53,272.4c1.02,2.1,1.97,4.18,2.88,6.25v1.64c0,.24-.07.47-.2.67l-48.95,76.9h48.73s.27-37.73.45-79.05c19.8,44.27,19.5,94.93-.83,138.96h-86.5l-6.82,10.72c30.69,8.68,62.37,13.39,94.27,14v-16.72l67.08-5.6v18.64c30.41-3.95,60.37-10.82,89.47-20.51l-65.28-.15,20.69-1.73c.51-.05.95-.4,1.1-.89,5.94-19.03,9.31-38.77,10.02-58.69l133.29.58v-184.62s-90.34.27-189.7.45l-.72,77.49c-21.57,6.31-43.67,10.63-66.03,12.9.15-43.95.13-87.33-.52-90.29-98.13.11-186.66-.41-189.05-.56v185.07h131.68l54.93-85.47Zm143.24-66.57l20.09,6.27,13.39-16.24,9.77,18.64,20.96-2.01-6.27,20.08,16.24,13.39-18.64,9.78,2.02,20.96-20.09-6.28-13.39,16.25-9.78-18.64-20.96,2.01,6.28-20.09-16.25-13.39,18.64-9.77-2.01-20.96Zm-59.53,42.97c11.94,11.29,21.37,24.96,27.68,40.12,10.87,24.86,20.07,66.7,2.59,125.06l-111.88,9.35c24.8-49.56,23.94-108.09-2.3-156.9,28.55-2.58,56.69-8.5,83.86-17.62" style="fill:#fff;"/></g></g></g></g></svg>