<?xml version="1.0" encoding="UTF-8"?><svg id="Layer_2" xmlns="http://www.w3.org/2000/svg" xmlns:xlink="http://www.w3.org/1999/xlink" viewBox="0 0 834.45 913.62"><defs><clipPath id="clippath"><rect width="834.45" height="913.62" style="fill:none;"/></clipPath></defs><g id="Layer_1-2"><g id="Group_771"><g style="clip-path:url(#clippath);"><g id="Group_770"><path id="Path_1338" d="m55.45,251.58l.16.42.4.22c.46.25,45.82,25.7,67.86,42.88.6.46,1.19.86,1.78,1.3.25.22.52.42.79.61l.37.24,2.21,1.43,1.06.69-.03-.04c6.69,4.14,14.37,6.37,22.23,6.45,4.84-.02,9.64-.85,14.21-2.45,6.64-2.25,15.92-9.44,20.62-19.89,4.18-9.29,4.1-19.35-.22-29.91.7-2.75,3.05-16.34-15.68-24.89-12.8-5.84-15.53-10.24-16.12-11.7,4.15-2.75,24.23-16.16,28.82-21.4.79-.9,1.76-1.81,2.8-2.79,2.3-2,4.34-4.29,6.05-6.82,1.73-2.72,1.73-5.8.01-7.67-.7-.75-1.64-1.25-2.66-1.41l.6-2.7c.15-.2.29-.36.45-.56,1.09-1.7,1.42-3.78.93-5.74l.09-.41-.24-.38c-.25-1.18-.6-2.35-1.03-3.48,136.77-60.62,259.21-55.11,341.48-37.91,39.3,8.21,77.6,20.62,114.26,37.01-.58,1.42-1.05,2.88-1.39,4.38l-.24.38.09.41c-.48,1.96-.15,4.03.94,5.74l.45.56.6,2.7c-1.02.16-1.95.66-2.66,1.41-1.72,1.86-1.72,4.95.01,7.67,1.71,2.53,3.75,4.83,6.05,6.83,1.03.96,2.01,1.88,2.8,2.78,4.57,5.23,24.63,18.63,28.8,21.39-.6,1.52-3.38,5.91-16.1,11.71-18.73,8.55-16.39,22.14-15.69,24.89-4.32,10.55-4.39,20.62-.21,29.91,4.71,10.46,13.99,17.65,20.62,19.89,4.56,1.6,9.36,2.42,14.2,2.45,7.86-.08,15.55-2.31,22.23-6.45v.03s1.04-.67,1.04-.67l2.21-1.43.37-.24c.27-.18.52-.38.77-.6.61-.44,1.2-.85,1.8-1.31,22.05-17.17,67.41-42.62,67.86-42.88l.41-.22.16-.42c3.45-9.39,5.85-19.14,7.15-29.06,1.22-11.84-5.66-23.68-20.99-36.14-10.15-8.24-32.03-30.39-36.09-34.53,2-3.04,3.71-6.25,5.11-9.61l.03-.12c3.12-6.44,5.84-13.07,8.14-19.84,3.87-11.23,6.73-22.79,8.54-34.53.07-.51-.18-1-.62-1.26C676.19,42.56,591.2,14.64,503.24,4.39c-71.71-7.99-144.22-4.92-214.99,9.12-123.72,24.05-206.62,72.51-207.44,73-.55.33-.77,1.01-.52,1.6,4.81,10.81,9.15,20.33,13.07,28.74,3.78,9.25,9.08,21.88,14.61,33.92l-1.57.05-.36.36c-.25.26-25.59,26.15-36.75,35.2-15.35,12.47-22.22,24.3-21.01,36.14,1.3,9.92,3.7,19.67,7.17,29.06m2.19-1.32c-.53-1.44-2.27-6.37-3.91-12.61l7.09,4.48c0,2.19.19,4.37.57,6.53.3,1.53.73,3.03,1.31,4.48-2.52-1.45-4.31-2.46-5.06-2.88m5.74,3.27c-.39-1.64-.61-3.32-.66-5.01-.07-1.72-.03-3.44.07-5.16l6.83,4.32c-.15.81-.23,1.63-.26,2.46-.02,1.14.06,2.28.22,3.41.26,1.47.66,2.9,1.22,4.29-2.84-1.67-5.35-3.12-7.42-4.31m8,4.64c-.33-1.55-.49-3.13-.49-4.72-.02-1.06.05-2.12.21-3.17.06-.5.15-1,.26-1.49l6.1,3.86c-.01.92.03,1.84.12,2.76.14,1.2.37,2.39.67,3.56.41,1.43.93,2.83,1.53,4.19-3-1.78-5.83-3.46-8.41-4.98m9.09,5.39c-.42-1.59-.72-3.21-.9-4.85-.13-1.14-.21-2.28-.22-3.42,0-.46.01-.95.04-1.43l4.19,2.64c0,.82.04,1.63.12,2.43.18,1.4.47,2.78.86,4.14.38,1.28.84,2.55,1.36,3.78-1.85-1.12-3.69-2.23-5.44-3.3m6.33,3.83c-.43-1.51-.77-3.05-1.02-4.6-.23-1.31-.37-2.64-.41-3.98-.01-.38,0-.78.01-1.16l5.14,3.25c-.29,3.17.05,6.36,1,9.4-1.59-.99-3.17-1.96-4.73-2.91m5.41,3.32c-.22-1.45-.31-2.91-.28-4.38.03-1.45.15-2.9.36-4.34l5.38,3.41c-.3,2.38-.23,4.79.21,7.15.15.7.35,1.4.6,2.08-2.09-1.32-4.19-2.64-6.27-3.93m7.48,4.7c-.25-.99-.41-2.01-.48-3.03-.1-1.93.03-3.87.37-5.77l4.68,2.95c-.29,2.29-.22,4.62.21,6.89.22.89.5,1.75.86,2.59-1.86-1.22-3.76-2.43-5.64-3.63m6.72,4.34c-.37-1.13-.6-2.29-.69-3.48-.11-1.23-.1-2.46.03-3.69.05-.63.13-1.28.24-1.93l4.52,2.85c-.08,1.09-.08,2.19.01,3.28.14,1.36.43,2.7.85,4.01.43,1.22,1.02,2.38,1.76,3.45-2.18-1.48-4.43-2.99-6.72-4.49m8.66,5.83c-.16-.12-.36-.25-.54-.37-.26-.38-.5-.77-.71-1.18-.57-1.13-.98-2.34-1.22-3.58-.25-1.23-.37-2.49-.37-3.74,0-.69.03-1.38.09-2.06l2.99,1.9-.24,9.03Zm2.47,1.73l.2-7.35c.86,3.45,2.04,6.81,3.54,10.03-1.2-.87-2.46-1.77-3.74-2.68m9.82,5.9c-1.93-5.04-3.46-10.22-4.57-15.49,2.85,5.94,7.76,10.64,13.81,13.23-1.59.54-3.17,1.04-4.75,1.41-1.15.28-2.31.22-3.36.54-.38.09-.77.2-1.14.3m7.88,6.05c-2.33-1.12-4.57-2.41-6.7-3.87h.25c1.3-.09,2.56-.48,3.7-1.12,1.78-.8,3.47-1.79,5.05-2.94,1.24.5,2.51.91,3.81,1.24,3.23.83,6.52,1.34,9.85,1.53.77.11,1.57.16,2.37.21-1.28.71-2.6,1.33-3.96,1.88-1.75.71-3.56,1.28-5.41,1.68-1.82.44-3.69.45-5.5.78-1.14.24-2.29.41-3.46.61m49.59-16.86c-4.69,10.43-14.02,16.8-19.14,18.55-8.37,3.01-17.52,3.06-25.92.15,1.72-.21,3.4-.65,5.01-1.3,3.48-1.23,6.72-3.08,9.55-5.46,2.79.06,5.57-.43,8.17-1.44,2.69-.77,5.23-1.97,7.52-3.57,8.38-5.9,13.51-17.03,15.26-33.07,3.37,8.42,3.22,17.84-.44,26.15m-3.55-17.36c-4.67,10.83-16.59,29.17-42.51,24.06-.85-.32-1.69-.68-2.51-1.08,1.02.02,2.04-.06,3.04-.25,2.18-.47,4.26-1.32,6.15-2.51,3.83-2.11,7.2-4.97,9.89-8.42.03-.05.02-.12-.01-.16-.06-.04-.13-.04-.18.01-1.55,1.44-3.24,2.73-5.04,3.84-1.75,1.14-3.61,2.12-5.54,2.92-1.92.83-3.94,1.22-5.87,1.88-1.49.56-3.04.96-4.64,1.48-2.48-1.57-4.65-3.58-6.39-5.95,2.28.31,4.58.28,6.85-.1,2.88-.51,5.66-1.5,8.22-2.92,5.21-2.53,9.71-6.31,13.11-11,.03-.06.01-.14-.05-.17-.05-.03-.11-.02-.15.02-1.9,2.07-4.05,3.9-6.41,5.42-2.29,1.57-4.75,2.87-7.34,3.89-2.59.93-5.23,1.7-7.91,2.3-2.25.66-4.57,1.11-6.95,1.71-1.08-1.62-2-3.35-2.74-5.16,2.4.38,4.84.37,7.23-.03,2.88-.51,5.66-1.5,8.22-2.92,5.21-2.53,9.71-6.3,13.11-10.98.03-.06.02-.13-.03-.18-.05-.03-.12-.02-.16.03-1.89,2.08-4.05,3.9-6.41,5.42-2.29,1.57-4.75,2.88-7.34,3.9-2.59.92-5.23,1.68-7.91,2.29-2.27.67-4.62,1.12-7.01,1.72-.51-1.31-.93-2.65-1.27-4.02,4.27.72,8.66.08,12.54-1.82,1.34-.73,2.64-1.54,3.89-2.42,4.95-3.42,8.9-8.08,11.46-13.52.03-.06,0-.14-.06-.17-.06-.03-.13,0-.16.05-1.54,2.48-3.39,4.75-5.5,6.76-2.04,2.02-4.33,3.76-6.82,5.19-2.48,1.34-5.1,2.43-7.8,3.25-2.52.85-5.08,1.57-7.68,2.14-.37-1.6-.66-3.21-.86-4.84,16.82.13,22.67-13.75,24.09-18.07l21.15,16.7-2.5-5.04c-.04-.07-3.3-6.65-2.71-11.7.52-4.63,7.14-6.98,7.14-6.98,3.55-1.11,7.41-.49,10.43,1.68,2.97,2.5,4.16,6.97,3.57,13.29-.32,3.53-.87,7.03-1.64,10.48m-11.09-34.12c6.81,3.11,10.55,6.83,12.58,10.34-.52-.71-1.13-1.35-1.8-1.92-1.28-1.05-2.76-1.81-4.36-2.23-3.16-1.72-9.65-4.35-14.65-.38-5.88,4.67-5.08,13.62-2.51,17.42l-29.55-23.32c.87-2.26,4.06-7.67,15.52-18.41l8.5,7.4c1.9,2.64,6.28,6.53,16.26,11.09m20.77-50.97c.92,1.44.8,3.3-.29,4.62-1.6,2.35-3.5,4.48-5.66,6.33-1.07,1.02-2.09,1.97-2.97,2.97-4.8,5.47-28.79,21.27-29.02,21.43l-.26.18-5.46-4.76c11.43-10.23,23.37-19.87,35.77-28.9,1.04-.6,2.01-1.14,2.88-1.6,2.19-1.18,4.07-1.27,5.01-.26m342.7-59.14c-37.31-7.81-75.34-11.74-113.46-11.74-67.7,0-146.82,12.44-231.33,49.92-1.2-2.32-2.52-4.58-3.96-6.76,140.93-59.75,267.02-54.16,351.9-36.99,39.84,8.06,78.75,20.16,116.12,36.13-1.35,2.01-2.79,4.34-4.07,6.74-36.97-16.49-75.59-29-115.21-37.3m121.58,73.04c-.87-.99-1.89-1.94-2.97-2.95-2.15-1.86-4.05-3.99-5.66-6.35-1.09-1.31-1.21-3.18-.29-4.62.93-1,2.8-.91,5.01.26.86.46,1.84,1,2.88,1.6,16.47,12.23,27.88,21.68,35.77,28.9l-5.46,4.76-.26-.18c-.24-.16-24.24-15.95-29.02-21.43m11.86,37.07c9.98-4.56,14.35-8.46,16.26-11.09l8.49-7.4c11.46,10.75,14.66,16.16,15.53,18.41l-29.54,23.31c2.56-3.81,3.36-12.76-2.52-17.42-4.95-3.93-11.34-1.39-14.54.33-1.63.43-3.15,1.21-4.45,2.29-.67.57-1.27,1.21-1.8,1.92,2.01-3.5,5.77-7.23,12.58-10.34m4.48,70.02c-5.11-1.74-14.45-8.12-19.13-18.55-3.67-8.3-3.83-17.73-.45-26.15,1.76,16.05,6.89,27.18,15.26,33.07,2.3,1.58,4.83,2.79,7.51,3.57,2.61,1.01,5.4,1.5,8.2,1.44,2.83,2.38,6.06,4.23,9.55,5.46,1.61.65,3.29,1.09,5.01,1.3-8.41,2.91-17.56,2.86-25.94-.15m30.46-1.69c-1.18-.2-2.33-.37-3.46-.61-1.81-.33-3.67-.34-5.51-.78-1.84-.4-3.65-.97-5.39-1.68-1.36-.54-2.68-1.17-3.96-1.88.81-.04,1.61-.11,2.39-.21,3.32-.19,6.61-.7,9.84-1.53,1.29-.33,2.57-.75,3.81-1.24,1.58,1.15,3.27,2.13,5.05,2.94,1.13.64,2.39,1.03,3.69,1.14h.25c-2.13,1.44-4.37,2.74-6.69,3.86m7.88-6.05c-.38-.11-.75-.21-1.15-.3-1.03-.32-2.19-.26-3.34-.54-1.57-.37-3.17-.87-4.75-1.41,6.05-2.59,10.95-7.28,13.8-13.21-1.11,5.27-2.64,10.44-4.56,15.47m4.75-23.68c-2.59-.58-5.15-1.29-7.67-2.14-2.7-.82-5.32-1.91-7.8-3.25-2.49-1.43-4.79-3.18-6.83-5.19-2.11-2.01-3.95-4.29-5.49-6.76-.04-.05-.1-.07-.16-.05-.06.03-.08.1-.06.16,0,0,0,0,0,0,2.55,5.44,6.51,10.11,11.46,13.52,1.25.88,2.55,1.68,3.89,2.42,3.88,1.9,8.27,2.54,12.53,1.82-.34,1.36-.76,2.7-1.26,4.02-2.39-.6-4.73-1.04-7.02-1.72-2.68-.61-5.32-1.37-7.91-2.29-2.58-1.02-5.05-2.33-7.34-3.9-2.36-1.52-4.51-3.34-6.4-5.42-.05-.04-.11-.05-.16-.03-.05.05-.07.13-.03.18,3.4,4.68,7.91,8.45,13.11,10.98,2.55,1.42,5.33,2.41,8.21,2.92,2.39.4,4.84.41,7.23.03-.73,1.81-1.64,3.54-2.74,5.16-2.37-.6-4.69-1.04-6.95-1.71-2.68-.6-5.32-1.37-7.91-2.3-2.59-1.01-5.06-2.31-7.35-3.87-2.36-1.52-4.51-3.34-6.4-5.42-.04-.04-.11-.05-.16-.03-.05.03-.07.11-.03.16,0,0,0,0,0,0,3.4,4.69,7.9,8.47,13.11,11,2.55,1.42,5.33,2.41,8.21,2.92,2.27.37,4.58.41,6.86.09-1.75,2.36-3.92,4.38-6.4,5.95-1.59-.52-3.13-.93-4.63-1.48-1.93-.66-3.96-1.04-5.87-1.88-1.94-.8-3.79-1.78-5.55-2.92-1.8-1.12-3.48-2.41-5.04-3.85-.05-.04-.11-.05-.16-.01-.05.04-.06.11-.03.16,2.7,3.45,6.06,6.31,9.89,8.42,1.89,1.19,3.97,2.04,6.15,2.51,1,.19,2.02.27,3.04.25-.82.41-1.67.78-2.53,1.1-25.91,5.11-37.83-13.22-42.5-24.06-.77-3.46-1.32-6.96-1.64-10.48-.61-6.32.6-10.79,3.56-13.29,1.9-1.5,4.27-2.27,6.69-2.19,1.24,0,2.48.17,3.67.49.07.03,6.69,2.38,7.22,7.01.57,5.05-2.68,11.63-2.71,11.7l-2.51,5.04,21.16-16.7c1.4,4.32,7.26,18.2,24.08,18.07-.19,1.63-.48,3.24-.86,4.84m1.34,20.46c1.49-3.23,2.68-6.58,3.54-10.03l.18,7.35c-1.28.91-2.52,1.8-3.73,2.68m6.74-4.78c-.16.12-.36.25-.54.37l-.24-9.03,3-1.9c.07.69.09,1.38.09,2.06,0,1.26-.12,2.51-.37,3.74-.24,1.24-.65,2.45-1.22,3.58-.21.41-.46.8-.73,1.18m8.13-5.46c-2.3,1.51-4.55,3.01-6.72,4.49.74-1.07,1.33-2.23,1.76-3.45.42-1.3.7-2.64.83-4.01.1-1.09.11-2.19.03-3.28l4.52-2.85c.09.65.16,1.3.24,1.93.12,1.23.13,2.46.03,3.69-.09,1.18-.32,2.35-.69,3.48m6.71-4.34c-1.9,1.2-3.78,2.42-5.66,3.63.36-.84.66-1.7.87-2.59.43-2.27.5-4.59.21-6.89l4.67-2.95c.35,1.9.48,3.84.38,5.77-.07,1.02-.23,2.03-.48,3.03m7.47-4.69c-2.09,1.3-4.18,2.6-6.27,3.93.24-.68.44-1.37.6-2.08.44-2.36.51-4.78.21-7.17l5.38-3.4c.21,1.44.32,2.88.34,4.34.04,1.46-.04,2.93-.26,4.38m.66-.41c.39-1.27.69-2.57.89-3.89.23-1.83.27-3.68.12-5.51l5.16-3.25c0,.38.03.78.01,1.16-.04,1.33-.18,2.66-.41,3.98-.24,1.55-.58,3.09-1.02,4.6-1.56.95-3.15,1.92-4.75,2.91m5.62-3.45c.53-1.23.99-2.5,1.38-3.78.38-1.36.67-2.74.86-4.14.08-.81.12-1.62.11-2.43l4.2-2.64c.03.48.04.96.03,1.43,0,1.14-.07,2.29-.21,3.42-.19,1.64-.49,3.26-.9,4.85-1.77,1.06-3.6,2.17-5.46,3.3m14.56-8.69c-2.58,1.52-5.42,3.2-8.41,4.98.61-1.36,1.12-2.76,1.53-4.19.3-1.17.53-2.36.67-3.56.1-.92.13-1.84.11-2.76l6.12-3.86c.11.49.2,1,.26,1.49.15,1.05.22,2.11.21,3.17,0,1.59-.17,3.17-.49,4.72m8-4.64c-2.08,1.19-4.57,2.64-7.42,4.31.55-1.39.95-2.82,1.22-4.29.17-1.13.24-2.27.22-3.41-.04-.82-.13-1.65-.28-2.46l6.85-4.32c.09,1.72.13,3.44.05,5.16-.04,1.69-.26,3.37-.65,5.01m5.74-3.27c-.75.42-2.55,1.43-5.08,2.88.58-1.45,1.02-2.95,1.31-4.48.38-2.16.57-4.34.58-6.53l7.09-4.48c-1.64,6.24-3.4,11.17-3.91,12.61m-13.22-61.94c14.63,11.9,21.2,22.99,20.08,33.93-.46,4.11-1.17,8.18-2.14,12.2-.26-.03-.52.03-.74.16l-5.79,3.66c.7-1.81,1.3-3.66,1.78-5.54.8-3.09,1.25-6.26,1.32-9.45.1-3.22-.37-6.44-1.38-9.51-1.01-3.04-2.8-5.77-5.18-7.91.88,1.27,1.64,2.62,2.29,4.02.57,1.4,1.02,2.85,1.36,4.32.61,2.95.81,5.97.58,8.98-.22,3.02-.69,6.01-1.4,8.95-.67,2.75-1.5,5.46-2.51,8.1l-5.55,3.52c.77-1.8,1.41-3.66,1.93-5.55.91-3.2,1.4-6.5,1.47-9.82.06-3.35-.48-6.68-1.61-9.84-1.14-3.11-2.99-5.91-5.41-8.18,1.8,2.63,3.11,5.57,3.87,8.66.72,3.04.99,6.16.79,9.28-.2,3.13-.7,6.23-1.49,9.27-.75,2.82-1.7,5.59-2.85,8.28l-4.68,2.95c.77-1.93,1.43-3.89,1.97-5.9.89-3.21,1.43-6.52,1.6-9.85.2-3.36-.17-6.73-1.1-9.97-.93-3.22-2.73-6.12-5.19-8.39.92,1.33,1.71,2.74,2.35,4.23.57,1.47,1.01,2.99,1.3,4.55.54,3.11.65,6.28.32,9.42-.31,3.16-.87,6.3-1.67,9.37-.74,2.89-1.65,5.74-2.72,8.53l-3.69,2.33c.88-2.15,1.59-4.36,2.12-6.62.69-2.98,1.05-6.03,1.07-9.09,0-3.08-.46-6.14-1.39-9.08-.93-2.91-2.46-5.59-4.49-7.87,1.39,2.59,2.37,5.38,2.92,8.28.53,2.84.73,5.73.6,8.62-.32,5.81-1.48,11.53-3.46,17l-.13.37.04.13-4.01,2.52c.62-2.07,1.08-4.18,1.38-6.32.45-3.08.58-6.2.41-9.31-.15-3.1-.61-6.18-1.39-9.19-.77-2.99-1.84-5.88-3.21-8.65.63,3,1.27,5.96,1.61,8.95.41,2.97.62,5.96.63,8.95.03,2.98-.13,5.96-.49,8.92-.34,2.83-.91,5.64-1.69,8.38l-4.01,2.52c.53-1.83.93-3.7,1.2-5.59.49-3.21.63-6.46.41-9.7-.19-3.24-.77-6.44-1.73-9.53-.95-3.08-2.28-6.02-3.96-8.76,1.01,2.98,1.82,6.04,2.41,9.13.58,3.05.9,6.15.94,9.25.08,3.09-.09,6.19-.52,9.25-.37,2.63-.93,5.23-1.68,7.79l-4.05,2.56c.58-2.07.98-4.19,1.22-6.33.38-3.17.43-6.38.13-9.56-.27-3.17-.88-6.31-1.84-9.35-.94-3.02-2.21-5.92-3.79-8.66.91,2.97,1.64,6,2.21,9.06,1.13,6.01,1.41,12.15.85,18.24-.26,2.8-.75,5.57-1.45,8.29l-3.81,2.41c.5-2.37.86-4.76,1.08-7.17.3-3.4.3-6.81,0-10.2-.29-3.41-1-6.78-2.12-10.02-1.12-3.22-2.85-6.2-5.08-8.78.79,1.46,1.49,2.97,2.1,4.52.54,1.56,1.03,3.13,1.41,4.72.73,3.2,1.17,6.45,1.32,9.73.28,6.27-.12,12.56-1.18,18.75l-4.11,2.59c.49-2.68.89-5.58,1.16-8.63,1.49-16.44-4.6-26.37-5.64-27.95-.05-.25-.09-.49-.16-.77-3.56-16.59-28.59-36.42-46.8-48.63-4.41-3.76-9.07-7.22-13.95-10.35-2.05-4.07-3.44-8.31-2.52-9.32.38-.42,1.93-.4,5.02,1.07,3.61,1.71,7.42,3.67,11.46,5.77,11.2,5.77,22.76,11.74,29.39,11.74.29,0,.58-.01.85-.03,4.22-.37,12.07-8.26,19.54-17.53,4.26-4.86,8.07-10.08,11.41-15.61,5.01,5.09,25.94,26.22,35.86,34.28M83.06,88.13c9.62-5.47,89.57-49.57,205.67-72.14C359.24,1.99,431.49-1.08,502.94,6.89c87.34,10.17,171.74,37.85,248.14,81.38-1.11,7.35-10.33,61.31-42.66,88.31-7.79-4.84-72.61-43.83-171.03-63.77-96.32-19.5-245.39-24.23-409.13,63.77-2.46-2.71-13.63-17.5-45.21-88.45m-12.17,100.21c10.54-8.57,33.48-31.86,36.61-35.04l1.63-.05c8.29,17.81,16.82,33.6,21.24,33.99.26.03.56.04.86.04,10.4,0,39.34-13.36,48.17-17.54,3.08-1.47,4.63-1.49,5.02-1.07.91,1-.48,5.25-2.52,9.32-4.88,3.13-9.54,6.58-13.95,10.35-18.2,12.21-43.25,32.04-46.81,48.63l-.15.78c-1.06,1.57-7.14,11.5-5.66,27.93.28,3.07.69,5.95,1.18,8.65l-4.11-2.6c-1.06-6.19-1.46-12.47-1.19-18.75.15-3.28.6-6.53,1.34-9.73.38-1.59.87-3.16,1.41-4.72.6-1.55,1.3-3.06,2.1-4.52-2.23,2.58-3.96,5.56-5.08,8.78-1.12,3.24-1.83,6.61-2.13,10.02-.29,3.4-.29,6.81.01,10.2.22,2.41.58,4.8,1.08,7.17l-3.82-2.4c-.69-2.72-1.18-5.49-1.45-8.29-.57-6.09-.28-12.23.86-18.24.57-3.06,1.3-6.08,2.19-9.06-1.58,2.74-2.85,5.64-3.79,8.66-.94,3.04-1.56,6.17-1.84,9.35-.29,3.18-.25,6.39.13,9.56.24,2.14.65,4.26,1.22,6.33l-4.05-2.55c-.74-2.56-1.3-5.16-1.67-7.8-.42-3.07-.6-6.16-.52-9.25.04-3.11.36-6.2.94-9.25.58-3.1,1.39-6.15,2.41-9.13-1.69,2.74-3.02,5.69-3.96,8.76-.97,3.09-1.55,6.3-1.73,9.53-.35,5.15.19,10.33,1.61,15.3l-4.01-2.52c-.79-2.74-1.35-5.55-1.69-8.38-.36-2.96-.53-5.94-.49-8.92.02-2.99.22-5.98.62-8.95.34-2.99.98-5.95,1.61-8.95-2.73,5.56-4.3,11.62-4.6,17.81-.17,3.11-.04,6.23.41,9.31.3,2.14.75,4.25,1.36,6.32l-3.99-2.52.03-.13-.12-.37c-1.98-5.47-3.15-11.19-3.46-17-.14-2.89.06-5.78.6-8.62.55-2.89,1.53-5.68,2.92-8.28-2.04,2.28-3.57,4.96-4.51,7.87-.92,2.94-1.38,6-1.38,9.08.01,3.06.37,6.11,1.07,9.09.53,2.26,1.23,4.48,2.11,6.63l-3.69-2.33c-1.07-2.79-1.98-5.63-2.72-8.53-.8-3.08-1.35-6.21-1.67-9.37-.33-3.14-.23-6.31.3-9.42.29-1.55.73-3.08,1.31-4.55.63-1.49,1.42-2.9,2.34-4.23-2.46,2.27-4.25,5.18-5.18,8.39-.94,3.23-1.31,6.61-1.1,9.97.18,3.33.71,6.63,1.59,9.85.55,2,1.21,3.97,1.98,5.9l-4.68-2.95c-1.15-2.69-2.11-5.45-2.85-8.28-.79-3.03-1.29-6.14-1.49-9.27-.19-3.12.07-6.24.79-9.28.76-3.09,2.07-6.03,3.86-8.66-2.41,2.27-4.25,5.07-5.39,8.18-1.13,3.15-1.68,6.49-1.61,9.84.07,3.32.56,6.62,1.45,9.82.53,1.89,1.17,3.74,1.93,5.55l-5.54-3.52c-1.01-2.65-1.85-5.35-2.51-8.1-.72-2.94-1.19-5.93-1.4-8.95-.23-3-.04-6.02.57-8.98.34-1.48.8-2.92,1.38-4.32.64-1.4,1.4-2.75,2.27-4.02-2.38,2.15-4.16,4.87-5.18,7.91-1.01,3.06-1.47,6.28-1.38,9.51.09,3.19.53,6.36,1.34,9.45.48,1.88,1.08,3.73,1.78,5.54l-5.78-3.67c-.22-.13-.48-.19-.74-.16-.98-4.02-1.7-8.09-2.16-12.2-1.11-10.95,5.46-22.05,20.09-33.93" style="fill:#115481;"/><path id="Path_1339" d="m137.72,119.49c1.37,0,2.73.22,4.03.65,1.21.44,2.2,1.32,2.76,2.47.76,1.33.96,2.91.54,4.39-.63,1.75-1.94,3.17-3.65,3.93-.93.52-1.94.88-2.99,1.07-.9.16-1.83.14-2.72-.05-1.68-.39-3.19-1.32-4.29-2.66-.11-.13-.3-.17-.45-.09l-1,.56c-.16.08-.23.27-.16.44.46,1.27.86,2.5,1.18,3.65.32,1.15.62,2.46.95,3.87.03.14.15.25.29.28.37.05.75.08,1.12.08,1.1-.02,2.19-.17,3.25-.45,1.93-.5,3.79-1.24,5.54-2.21,1.99-1.07,3.82-2.43,5.41-4.04,1.37-1.42,2.46-3.08,3.19-4.91.67-1.75.96-3.62.82-5.49-.15-1.95-.73-3.84-1.68-5.54-.9-1.83-2.3-3.37-4.03-4.44-1.52-.87-3.19-1.45-4.92-1.71-1.72-.25-3.46-.3-5.19-.16-1.71.13-3.36.18-4.89.16-1.4,0-2.79-.2-4.12-.61-2.56-.9-3.91-3.7-3.01-6.26,0,0,0-.01,0-.02.53-1.48,1.62-2.7,3.03-3.4,2.72-1.69,6.25-1.27,8.5,1.02.12.09.28.11.41.04l.79-.44c.13-.08.2-.23.16-.38l-.7-3.37c-.18-.86-.33-1.8-.46-2.78-.01-.16-.13-.28-.29-.3-1.61-.26-3.25-.22-4.85.11-1.93.4-3.78,1.1-5.49,2.08-1.58.86-3.01,1.97-4.23,3.3-1.16,1.27-2.06,2.75-2.67,4.36-.59,1.64-.83,3.39-.7,5.13.17,1.96.75,3.86,1.73,5.57.91,1.82,2.29,3.36,4.01,4.45,1.48.87,3.12,1.46,4.83,1.72,1.7.25,3.42.3,5.13.16,1.69-.13,3.32-.18,4.83-.16" style="fill:#115481;"/><path id="Path_1340" d="m136.21,91.54c.46.73.82,1.51,1.07,2.33.12.42.24.86.34,1.28.04.11.12.2.22.25.11.03.22.02.32-.04.75-.48,1.59-.98,2.49-1.49s1.8-1.03,2.68-1.49,1.73-.91,2.52-1.32c.65-.33,1.22-.62,1.71-.85.22.37.49.89.83,1.56.41.87.87,1.84,1.35,2.9l6.29,13.72c1.38,3,2.58,5.75,3.58,8.14s1.96,4.76,2.84,7.09c.04.1.12.18.22.21h.12s.18-.03.18-.03c.62-.39,1.27-.73,1.94-1.03l4.95-2.26c.71-.32,1.4-.6,2.03-.81.1-.03.18-.1.22-.2.04-.1.03-.21-.01-.3-1.19-2.19-2.37-4.48-3.5-6.78-1.14-2.3-2.42-5.01-3.82-8.05l-7.61-16.64c-.18-.44-.36-.82-.49-1.15-.07-.18-.13-.34-.16-.48.49-.22,1.08-.46,1.76-.74.82-.33,1.69-.67,2.62-1.03.91-.36,1.85-.7,2.8-1.02s1.82-.61,2.59-.83c.11-.03.21-.11.24-.22.04-.11.03-.22-.04-.32-.25-.37-.49-.73-.74-1.11-.23-.36-.43-.74-.61-1.12-.18-.39-.33-.79-.45-1.2-.13-.42-.25-.85-.36-1.28-.03-.1-.1-.19-.2-.24-.1-.04-.21-.04-.3.01-1.12.56-2.16,1.07-3.12,1.55s-1.93.96-2.95,1.45-2.13,1.02-3.34,1.6c-1.22.58-2.68,1.26-4.4,2.05-1.72.79-3.2,1.45-4.43,2s-2.38,1.04-3.44,1.49-2.08.9-3.11,1.32-2.17.91-3.42,1.44c-.1.04-.18.12-.21.22-.02.1,0,.21.05.3.26.37.49.74.74,1.11" style="fill:#115481;"/><path id="Path_1341" d="m184.94,113.51c.63.26,1.3.39,1.98.38.7,0,1.39-.14,2.03-.4,1.31-.48,2.38-1.46,2.97-2.72.61-1.25.65-2.7.12-3.98-1.06-2.73-4.14-4.08-6.87-3.02-1.32.51-2.37,1.53-2.94,2.82-.59,1.28-.62,2.75-.08,4.06.47,1.31,1.49,2.35,2.79,2.85" style="fill:#115481;"/><path id="Path_1342" d="m206.98,79.45l2.38,7.87c.96,3.19,1.78,6.07,2.46,8.55s1.3,4.98,1.86,7.4c.03.1.09.19.18.24l.16.04.15-.04c.67-.29,1.36-.54,2.06-.74l5.19-1.57c.7-.22,1.42-.4,2.14-.53.1-.01.2-.07.25-.16.05-.09.06-.21.01-.3-.86-2.31-1.72-4.73-2.55-7.19-.81-2.42-1.72-5.28-2.68-8.49l-.79-2.6c4.22-1.27,8.57-2.39,12.92-3.33.1-.03.19-.09.24-.18.05-.1.05-.21.01-.32-.28-.6-.49-1.04-.65-1.36-.14-.28-.26-.57-.34-.87-.11-.35-.2-.72-.26-1.08-.07-.34-.15-.86-.22-1.55-.02-.11-.08-.2-.16-.26-.09-.05-.2-.06-.3-.03-2.16.78-4.24,1.51-6.24,2.19-1.88.65-4.02,1.36-6.39,2.12-.61-2-1.19-3.98-1.77-5.95-.58-1.97-1.1-3.99-1.56-6.04.42-.12,1.03-.28,1.82-.49,1-.26,2.14-.54,3.42-.85s2.59-.61,3.94-.94c1.35-.33,2.6-.62,3.74-.87.1-.03.19-.1.24-.2.05-.1.05-.22,0-.32-.2-.4-.37-.75-.52-1.08s-.29-.78-.48-1.39c-.26-.78-.43-1.59-.49-2.41,0-.12-.07-.22-.16-.29-.1-.06-.22-.07-.33-.03-.73.3-2.21.82-4.39,1.55s-4.74,1.51-7.58,2.37c-1.76.53-3.5,1.02-5.17,1.44-1.71.44-3.45.9-5.21,1.39-.09.02-.17.08-.21.16-.05.09-.06.19-.03.29.91,2.43,1.78,4.92,2.6,7.38.83,2.43,1.73,5.29,2.7,8.47" style="fill:#115481;"/><path id="Path_1343" d="m238.95,70.12l1.88,8c.77,3.24,1.4,6.16,1.92,8.69.52,2.55.98,5.08,1.39,7.51.01.1.07.2.16.25.05.04.12.06.18.05l.12-.03c.69-.24,1.39-.45,2.1-.61l5.3-1.24c.71-.17,1.43-.31,2.16-.4.11,0,.21-.07.26-.16.05-.09.07-.19.04-.29-.73-2.38-1.43-4.85-2.09-7.35-.67-2.47-1.39-5.37-2.16-8.63l-.48-2.02,14.7,15.86c.09.1.24.15.37.11.86-.29,1.73-.53,2.62-.74l5.33-1.26c.85-.2,1.73-.36,2.64-.49.13-.03.24-.12.28-.25.05-.13.01-.28-.09-.37-2.91-2.74-5.83-5.51-8.78-8.33-2.79-2.67-5.5-5.42-8.06-8.18,2.36-1.19,4.31-3.04,5.61-5.34,1.21-2.42,1.48-5.2.75-7.8-.35-1.64-1.09-3.17-2.16-4.46-1.02-1.14-2.28-2.05-3.69-2.64-.61-.24-1.24-.43-1.89-.56-.73-.13-1.48-.18-2.22-.15-.96.03-1.91.13-2.85.29-1.1.16-2.39.44-3.89.78-1.98.46-3.67.91-5.01,1.34-1.31.41-2.5.74-3.56.99-.98.22-1.86.4-2.64.52s-1.53.24-2.21.3c-.1.02-.19.08-.25.16-.06.09-.08.2-.05.3.75,2.5,1.47,5.02,2.14,7.52.68,2.5,1.39,5.41,2.14,8.63m10.43-15.48c.98-.13,1.97-.01,2.9.34.83.39,1.52,1.01,2,1.8.69,1.21,1.18,2.52,1.44,3.89.7,2.16.51,4.51-.53,6.53-1.22,1.77-3.1,2.97-5.22,3.32-.2.05-.39.09-.6.12l-.37.04c-1.19-5.06-2.34-10.22-3.42-15.39,1.25-.3,2.53-.51,3.81-.65" style="fill:#115481;"/><path id="Path_1344" d="m279.78,86.47h.11c.48-.17.98-.29,1.48-.37l2.83-.46c.45-.08.91-.11,1.36-.11.18,0,.34-.14.36-.32.24-2.05.53-4.15.87-6.24.33-2.05.73-4.14,1.16-6.2.95-.18,1.9-.37,2.85-.54,1.02-.18,2.05-.37,3.08-.54,1.27-.2,2.54-.4,3.82-.58,1.19-.16,2.39-.34,3.58-.49,1.03,1.81,2.04,3.66,3.01,5.51,1,1.92,1.98,3.8,2.94,5.64.08.14.25.21.41.16.81-.21,1.64-.38,2.47-.52l5.07-.83c.85-.13,1.76-.24,2.7-.32.12-.01.23-.09.29-.2.06-.12.05-.26-.03-.37-1.53-2.08-3.25-4.72-5.18-7.81-1.96-3.16-3.98-6.49-6.01-9.87-2.06-3.46-4.15-7.05-6.21-10.64l-5.86-10.18c-.08-.16-.27-.23-.44-.16-.38.15-.74.26-1.08.38-.34.12-.7.21-1.06.26-.35.06-.71.09-1.07.09-.36-.04-.77-.01-1.18-.03-.17-.02-.33.11-.36.28-.52,2.41-1.08,5-1.71,7.8-.62,2.79-1.26,5.63-1.92,8.51-.65,2.88-1.3,5.73-1.97,8.54l-1.86,7.93c-.57,2.42-1.11,4.65-1.61,6.61s-.9,3.49-1.2,4.6c-.04.12,0,.26.09.34.07.07.16.1.25.11m10.72-25.25c.48-2.21,1-4.45,1.56-6.69,1.16,1.94,2.31,3.91,3.41,5.87,1.15,2.05,2.33,4.14,3.5,6.25l-9.89,1.61c.45-2.39.94-4.76,1.43-7.05" style="fill:#115481;"/><path id="Path_1345" d="m319.9,50.02c.29,3.01.56,6.23.78,9.53.22,3.28.41,6.37.54,9.23.13,2.83.24,5.23.32,7.22.08,1.13.08,2.26.03,3.38-.01.12.03.23.11.32.07.06.16.09.25.09h.07c.89-.16,1.81-.3,2.72-.4l1.39-.13c.46-.04.93-.05,1.39-.01.11,0,.21-.05.29-.12.07-.08.11-.19.09-.3-.09-.44-.18-1.02-.3-1.76-.12-.74-.24-1.68-.4-2.83s-.32-2.58-.49-4.26-.4-3.72-.63-6.12l-.67-6.97c-.12-1.2-.22-2.38-.32-3.54-.08-.89-.15-1.76-.2-2.64,9.91,8.59,19.49,17.3,28.45,25.89.08.09.2.12.32.09.65-.13,1.43-.25,2.3-.34.81-.09,1.62-.13,2.43-.12h0c.1,0,.19-.04.25-.12.07-.07.11-.17.09-.26l-.7-7.24c-.28-2.88-.54-5.59-.77-8.14s-.44-5.17-.61-7.73c-.16-2.6-.34-5.39-.52-8.34-.16-3.04-.33-6.39-.49-9.93,0-.11-.05-.21-.15-.28-.08-.07-.2-.09-.3-.05-.85.26-1.73.45-2.62.56-.89.05-1.78.03-2.66-.05-.12,0-.23.04-.3.13-.07.1-.09.22-.07.33.19.75.34,1.5.44,2.27.16,1.14.34,2.49.52,4.12l.58,5.26c.2,1.89.41,3.82.6,5.79l.99,10.15c-4.64-4.12-9.29-8.3-13.84-12.41-4.73-4.27-9.51-8.61-14.36-13.03-.09-.08-.22-.12-.34-.08-.85.26-1.72.44-2.6.56-.89.06-1.78.04-2.67-.04-.11-.01-.21.03-.29.11-.07.08-.1.18-.09.29.16,1.44.4,3.11.67,4.98.25,1.86.53,4.2.79,6.94" style="fill:#115481;"/><path id="Path_1346" d="m370.23,70.62c2.13,1.81,4.61,3.17,7.28,3.98,2.67.8,5.44,1.19,8.23,1.15.45,0,.89-.01,1.34-.03,4.3-.02,8.53-1.03,12.37-2.97.11-.05.18-.17.18-.29.05-.85.18-1.7.38-2.52.2-.87.45-1.72.74-2.57.05-.16-.02-.34-.16-.42l-.81-.45c-.15-.09-.33-.06-.45.07-.63.72-1.35,1.36-2.13,1.9-.82.59-1.71,1.08-2.64,1.48-.93.41-1.89.75-2.87,1-.94.25-1.9.39-2.87.42-1.72.06-3.44-.2-5.06-.75-1.71-.58-3.26-1.54-4.55-2.79-1.47-1.46-2.63-3.21-3.41-5.13-.97-2.47-1.49-5.1-1.53-7.76-.17-2.78.14-5.56.91-8.24.61-2.07,1.61-4.01,2.95-5.7,1.14-1.42,2.57-2.57,4.19-3.38,1.46-.74,3.05-1.16,4.68-1.24,1.9-.11,3.8.23,5.55.99,1.83.94,3.45,2.26,4.74,3.88.07.08.17.12.28.12l.85-.03c.19,0,.33-.16.34-.34.04-1.03.15-2.06.33-3.08.19-1.03.46-2.04.81-3.03.06-.16-.01-.34-.16-.42-.83-.44-1.7-.8-2.6-1.08-1.04-.34-2.1-.62-3.17-.83-1.1-.21-2.25-.4-3.44-.52-1.12-.11-2.25-.15-3.38-.12-3.11.11-6.2.66-9.16,1.63-2.81.92-5.4,2.41-7.61,4.38-2.24,2.07-3.97,4.62-5.08,7.46-1.28,3.47-1.82,7.17-1.59,10.87.08,2.78.71,5.51,1.84,8.05,1.09,2.42,2.7,4.58,4.71,6.32" style="fill:#115481;"/><path id="Path_1347" d="m406.84,66.57c-.09,2.55-.24,5.11-.42,7.63,0,.11.04.21.12.28.07.08.17.12.28.09.66-.07,1.39-.09,2.19-.09l5.44.04c.73,0,1.47.04,2.19.13h.05c.09,0,.17-.03.24-.09.08-.07.12-.17.12-.28-.15-2.47-.25-5.05-.32-7.64-.05-2.56-.08-5.55-.05-8.9l.06-8.21c.03-3.42.09-6.33.2-8.9.11-2.56.22-5.18.41-7.8,0-.11-.03-.22-.11-.29-.08-.07-.18-.1-.29-.09-.67.08-1.41.15-2.22.2-.81.04-1.72.07-2.68.07-.99-.01-1.9-.04-2.7-.11s-1.53-.15-2.22-.22c-.1-.03-.21,0-.28.09-.08.07-.12.17-.12.28.15,2.6.24,5.22.3,7.81.07,2.56.08,5.55.05,8.9l-.05,8.21c-.02,3.28-.08,6.29-.18,8.9" style="fill:#115481;"/><path id="Path_1348" d="m426.75,74.81c1.92.55,3.9.86,5.9.9.29,0,.57.01.86.01,1.97.01,3.93-.24,5.83-.77,1.9-.52,3.69-1.41,5.25-2.62,1.47-1.15,2.66-2.62,3.49-4.3.85-1.76,1.32-3.68,1.36-5.63.14-2.04-.28-4.07-1.23-5.88-.86-1.52-2.01-2.86-3.37-3.96-1.36-1.08-2.83-2.01-4.39-2.78-1.55-.75-3-1.53-4.31-2.33-1.21-.7-2.3-1.58-3.25-2.6-.83-.95-1.25-2.19-1.15-3.45.04-1.36.68-2.64,1.74-3.49,1.22-1,2.77-1.5,4.34-1.4,3.2-.07,6.02,2.08,6.81,5.18.05.14.18.24.33.25l.9.03c.16.01.31-.09.36-.24l1.1-3.27c.29-.86.63-1.74,1.02-2.64.05-.15.01-.31-.11-.41-1.25-1.04-2.69-1.84-4.23-2.37-1.87-.63-3.82-.96-5.79-.99-1.79-.07-3.59.16-5.3.7-1.65.5-3.18,1.32-4.51,2.42-1.35,1.11-2.44,2.49-3.21,4.06-.84,1.77-1.29,3.71-1.32,5.67-.15,2.03.26,4.06,1.19,5.87.84,1.5,1.96,2.83,3.3,3.91,1.33,1.08,2.78,2.01,4.32,2.75,1.53.75,2.97,1.52,4.26,2.3,1.18.69,2.24,1.56,3.15,2.59.82.99,1.22,2.26,1.12,3.54,0,1.53-.64,2.99-1.74,4.05-1.43,1.2-3.29,1.75-5.14,1.55-1.07-.02-2.12-.22-3.12-.6-.85-.33-1.64-.81-2.31-1.43-1.27-1.17-2.1-2.74-2.34-4.45-.02-.17-.17-.3-.34-.3l-1.15-.04c-.17.02-.31.13-.36.29-.25,1.34-.53,2.6-.85,3.75-.3,1.12-.69,2.42-1.14,3.81-.05.14,0,.29.11.38,1.19.88,2.53,1.53,3.96,1.92" style="fill:#115481;"/><path id="Path_1349" d="m473.41,76.83l1.47.15c1.03.11,2.01.24,2.91.41.14.03.28-.03.36-.15,1.71-2.41,3.42-4.8,5.13-7.09,1.65-2.21,3.37-4.45,5.14-6.7,1.04,2.5,2.06,5.02,3.01,7.53,1.11,2.92,2.13,5.5,3.09,7.89.05.14.18.22.33.22.87.01,1.74.05,2.59.15l5.23.52c.85.09,1.73.22,2.64.38h.07c.19.01.35-.14.35-.33,0-.05-.01-.1-.03-.15-.49-1.1-1.15-2.62-2-4.57-.78-1.81-1.62-3.75-2.5-5.84l-.21-.46c-.97-2.23-1.93-4.53-2.91-6.9-.95-2.27-1.81-4.4-2.6-6.37,1.22-1.4,2.45-2.88,3.69-4.38,1.35-1.64,2.7-3.25,4.02-4.81,1.32-1.56,2.58-3.01,3.76-4.36,1.14-1.32,2.12-2.41,2.88-3.21.1-.1.13-.26.07-.4-.06-.13-.19-.21-.33-.2-.57.01-1.11.04-1.61.04-.48.02-.96,0-1.44-.05-.49-.05-.97-.13-1.45-.24-.46-.11-.98-.22-1.52-.36-.14-.03-.29.02-.38.13-1.57,2.21-3.25,4.52-5.02,6.9-1.63,2.18-3.24,4.34-4.83,6.39-.95-2.38-1.89-4.75-2.82-7.13-1-2.56-1.98-5.13-2.94-7.69-.05-.14-.18-.24-.33-.24-.93-.01-1.82-.03-2.68-.05s-1.76-.08-2.67-.16-1.8-.21-2.67-.36-1.78-.32-2.74-.49c-.13-.02-.26.03-.34.13-.08.1-.09.24-.04.36l4.33,10c.99,2.27,2.01,4.62,3.07,7.05,1,2.35,1.92,4.47,2.71,6.36-1.15,1.41-2.39,2.92-3.7,4.52-1.36,1.67-2.71,3.3-4.03,4.9l-3.79,4.56c-1.19,1.43-2.22,2.59-3.07,3.46-.1.1-.13.26-.07.4.07.12.19.2.33.21.52-.02,1.04,0,1.56.04" style="fill:#115481;"/><path id="Path_1350" d="m507.4,80.17c.06.12.19.19.32.18.51.01,1.02.05,1.52.12l2.83.44c.45.07.9.18,1.34.33.17.05.36-.03.44-.2.86-1.86,1.78-3.77,2.76-5.66.95-1.86,1.97-3.72,3.03-5.54.96.12,1.92.24,2.88.37,1.03.15,2.06.29,3.09.45,1.27.2,2.54.4,3.81.62,1.19.2,2.38.41,3.57.63.42,2.08.81,4.15,1.16,6.17.36,2.13.7,4.22,1.04,6.27.02.17.16.29.33.3.84.04,1.68.13,2.51.26l5.08.79c.85.13,1.74.3,2.67.53h.08c.2.01.36-.15.36-.35,0-.03,0-.07-.01-.1-.79-2.46-1.63-5.5-2.5-9.04-.9-3.63-1.78-7.42-2.66-11.26-.89-3.87-1.77-7.92-2.64-12.04l-2.39-11.49c-.03-.16-.18-.28-.34-.28h-.03c-.4.01-.78.03-1.15.03-.36,0-.72-.02-1.08-.08-.36-.06-.72-.14-1.07-.25-.34-.12-.7-.24-1.08-.38-.17-.07-.36,0-.44.16-1.23,2.12-2.56,4.43-4.03,6.88-1.47,2.45-2.94,4.96-4.45,7.5-1.52,2.54-3.01,5.04-4.52,7.52l-4.23,6.95c-1.28,2.13-2.49,4.07-3.58,5.79-1.07,1.71-1.93,3.04-2.56,3.99-.07.11-.08.25-.03.37m18.23-20.52c1.1-1.88,2.29-3.86,3.56-5.88.49,2.23.99,4.47,1.43,6.65.46,2.3.93,4.64,1.39,7.03l-9.91-1.53c1.18-2.16,2.37-4.26,3.54-6.27" style="fill:#115481;"/><path id="Path_1351" d="m552.76,58.05c.48,2.67.97,5.44,1.47,8.3.52,2.84.99,5.66,1.43,8.37s.85,5.3,1.22,7.72l.95,6.19c.03.16.16.28.32.3.87.09,1.74.24,2.59.42.86.17,1.7.39,2.54.65l.11.03c.13,0,.25-.07.32-.18,1.81-3.04,3.87-6.33,6.12-9.81,2.3-3.54,4.57-6.99,6.76-10.22,2.19-3.23,4.38-6.43,6.49-9.49,2.06-2.99,3.83-5.54,5.3-7.65.08-.11.09-.25.03-.37-.07-.11-.18-.19-.32-.2-.87.01-1.74-.07-2.59-.24-.85-.19-1.68-.47-2.47-.82-.17-.06-.35,0-.45.15-2.47,4.29-5.25,8.83-8.22,13.47-2.82,4.39-5.71,8.78-8.62,13.09-.34-2.38-.71-4.79-1.1-7.24-.41-2.7-.82-5.47-1.19-8.24-.38-2.74-.73-5.41-1.07-8.02-.33-2.59-.61-5.09-.81-7.44-.02-.17-.15-.31-.32-.33-.89-.09-1.76-.21-2.64-.33-.86-.12-1.73-.28-2.59-.45s-1.72-.4-2.59-.63-1.74-.49-2.64-.77c-.12-.04-.25-.01-.34.08-.09.08-.14.21-.12.33.32,1.63.69,3.6,1.11,5.9.42,2.3.86,4.8,1.34,7.47" style="fill:#115481;"/><path id="Path_1352" d="m584.83,86.78c-.71,2.46-1.48,4.92-2.26,7.3-.04.1-.03.21.03.3.06.09.16.15.26.16.72.1,1.44.25,2.14.44l5.26,1.36c.71.18,1.41.4,2.1.66l.12.03.16-.04c.09-.06.16-.15.18-.25.46-2.42.99-4.93,1.56-7.47.58-2.56,1.3-5.47,2.12-8.65l2.09-7.95c.83-3.24,1.63-6.13,2.35-8.58.71-2.47,1.49-4.98,2.3-7.47.04-.1.03-.21-.03-.3-.06-.09-.16-.15-.26-.16-.67-.09-1.4-.21-2.19-.36s-1.68-.34-2.64-.6-1.82-.49-2.58-.75-1.45-.52-2.1-.77c-.1-.04-.2-.03-.29.03-.09.05-.16.14-.18.24-.49,2.55-1.04,5.13-1.61,7.65-.58,2.58-1.3,5.47-2.12,8.65l-2.06,7.95c-.82,3.16-1.61,6.04-2.35,8.58" style="fill:#115481;"/><path id="Path_1353" d="m600,98.64c-.04.1-.03.21.03.3.05.09.15.15.25.16.3.05.69.15,1.12.25s1.1.3,1.96.58l9.15,2.81c2.64.82,4.73,1.47,6.24,1.96s2.78.91,3.81,1.27h.12c.08.02.15,0,.21-.05.09-.07.15-.18.15-.29,0-.28.02-.57.08-.85.07-.33.2-.82.38-1.43.14-.47.31-.93.49-1.39.15-.32.32-.69.52-1.07.05-.1.05-.23,0-.33-.05-.1-.14-.17-.25-.18-2.31-.42-4.59-.91-6.79-1.47-2.09-.53-4.2-1.11-6.29-1.74.58-2.25,1.24-4.57,1.97-6.93.38-1.23.77-2.46,1.16-3.67.36-1.11.71-2.23,1.07-3.36,4.19,1.31,8.42,2.8,12.57,4.45.1.04.21.03.3-.03.09-.05.15-.15.16-.25.12-.65.2-1.14.24-1.49.04-.31.1-.61.2-.91.1-.36.23-.71.38-1.04.13-.33.37-.81.67-1.41.05-.09.06-.21.01-.3-.05-.1-.13-.17-.24-.2-2.22-.56-4.36-1.1-6.41-1.65-1.93-.52-4.1-1.14-6.46-1.82.61-2,1.23-3.98,1.85-5.94.62-1.96,1.32-3.93,2.08-5.87.42.13,1.02.34,1.78.61.99.34,2.09.75,3.32,1.22s2.5.94,3.79,1.41c1.29.48,2.5.94,3.6,1.36.1.04.21.03.3-.03.1-.05.16-.15.16-.26.05-.44.12-.83.18-1.18s.18-.81.37-1.43c.23-.79.55-1.56.95-2.27.06-.1.06-.22.01-.33-.04-.1-.14-.18-.25-.2-.78-.16-2.26-.54-4.51-1.18-2.19-.61-4.75-1.36-7.61-2.25-1.72-.53-3.42-1.1-5.08-1.69-1.71-.61-3.42-1.2-5.09-1.76-.1-.04-.2-.03-.29.03-.09.05-.15.13-.16.22-.61,2.5-1.27,5.05-1.96,7.57-.69,2.52-1.53,5.38-2.51,8.53l-2.42,7.85c-.96,3.15-1.89,5.99-2.74,8.47-.85,2.46-1.72,4.88-2.59,7.18" style="fill:#115481;"/><path id="Path_1354" d="m631.06,100.38c-.99,2.35-2.02,4.69-3.08,6.99-.05.09-.05.21,0,.3.04.09.13.16.22.18.71.19,1.41.42,2.09.69l5.08,1.96c.68.26,1.35.56,2,.9.09.05.21.06.3.01.1-.04.18-.12.21-.22.73-2.35,1.55-4.78,2.41-7.24.86-2.46,1.9-5.25,3.09-8.34l.75-1.94,3.19,21.39c.02.14.13.26.26.29.87.25,1.73.56,2.58.87l5.09,1.97c.82.32,1.64.67,2.46,1.08l.16.04c.08,0,.16-.03.22-.08.11-.09.16-.22.13-.36-.86-3.91-1.72-7.87-2.55-11.83-.81-3.82-1.49-7.61-2.05-11.32,2.61.36,5.28-.07,7.64-1.24,2.35-1.32,4.14-3.46,5.01-6.01.65-1.55.9-3.24.73-4.92-.19-1.52-.72-2.98-1.55-4.27-.38-.54-.8-1.05-1.26-1.52-.53-.52-1.12-.98-1.74-1.38-.81-.52-1.66-.98-2.54-1.38-.99-.48-2.22-.99-3.63-1.55-1.9-.73-3.54-1.31-4.89-1.72-1.32-.41-2.5-.81-3.5-1.19-.93-.36-1.76-.71-2.47-1.06s-1.39-.67-2-.99c-.18-.09-.39-.02-.48.16,0,.01-.01.03-.02.04-.79,2.51-1.63,5.01-2.49,7.42-.86,2.47-1.9,5.29-3.09,8.34l-2.97,7.67c-1.19,3.09-2.31,5.87-3.32,8.25m20.1-24.43c1.2.46,2.38,1,3.52,1.61.88.44,1.64,1.1,2.19,1.92.48.78.7,1.7.63,2.62-.11,1.38-.45,2.74-.99,4.02-.65,2.18-2.13,4.01-4.12,5.1-2,.78-4.24.7-6.19-.21-.19-.07-.38-.15-.56-.24l-.33-.18c1.89-4.86,3.85-9.78,5.84-14.63" style="fill:#115481;"/><path id="Path_1355" d="m669.11,100.41c.07.07.16.11.26.11l.16-.04c2.51-1.41,4.67-2.62,6.43-3.63,1.76-1.01,3.3-1.88,4.54-2.59,1.24-.71,2.25-1.34,3-1.84s1.34-.91,1.76-1.22c.37-.25.7-.54.99-.89.18-.24.33-.49.47-.75.54-1.11.5-2.41-.12-3.48-.28-.48-.63-.92-1.03-1.3-.4-.37-.85-.67-1.34-.9-.72-.36-1.54-.48-2.34-.34-1.08.33-2.06.95-2.82,1.78-1.53,1.49-2.96,3.07-4.29,4.73-1.76,2.16-4.06,5.08-6.82,8.7-.1.14-.09.33.03.45l1.12,1.19Z" style="fill:#115481;"/><path id="Path_1356" d="m685.14,106.02c.07,1.72.46,3.41,1.16,4.98.71,1.56,1.59,3.04,2.64,4.4,1.02,1.36,1.94,2.7,2.75,3.96.74,1.16,1.29,2.43,1.64,3.75.28,1.25.07,2.56-.6,3.66-.72,1.35-1.94,2.36-3.4,2.81-1.81.43-3.73.08-5.28-.95-.94-.5-1.8-1.15-2.52-1.93-.61-.67-1.09-1.46-1.41-2.31-.3-.81-.46-1.66-.46-2.52-.01-.86.12-1.71.38-2.52.06-.16-.01-.34-.16-.42l-1-.56c-.16-.08-.35-.04-.45.11-.83,1.08-1.65,2.09-2.45,2.97s-1.71,1.84-2.74,2.9c-.1.1-.13.25-.08.38.66,1.33,1.56,2.52,2.67,3.5,1.46,1.36,3.09,2.52,4.85,3.46,1.97,1.1,4.1,1.89,6.31,2.35,1.02.2,2.06.3,3.11.3.93,0,1.85-.09,2.76-.26,1.83-.37,3.56-1.14,5.06-2.26,1.55-1.19,2.83-2.69,3.76-4.41,1.05-1.75,1.59-3.76,1.56-5.8-.09-1.75-.51-3.46-1.23-5.05-.72-1.58-1.61-3.07-2.66-4.45-1.03-1.35-1.97-2.71-2.8-4.03-.75-1.17-1.33-2.44-1.72-3.78-.31-1.22-.12-2.51.53-3.6.66-1.2,1.8-2.05,3.13-2.33,1.53-.36,3.15-.1,4.5.71,2.89,1.37,4.44,4.57,3.73,7.69-.01.15.06.29.18.37l.79.44c.14.07.31.04.42-.07l2.46-2.41c.62-.61,1.32-1.26,2.09-1.89.12-.1.16-.26.11-.41-.65-1.5-1.57-2.86-2.71-4.03-1.38-1.4-2.97-2.58-4.72-3.49-1.57-.87-3.28-1.47-5.05-1.78-1.7-.29-3.43-.25-5.11.11-1.7.39-3.3,1.13-4.69,2.18-1.56,1.19-2.85,2.71-3.76,4.45-1.04,1.74-1.59,3.74-1.59,5.77" style="fill:#115481;"/><path id="Path_1357" d="m834.32,804.36l-39.26-76.05c.07-.25.1-.51.11-.77,0-.11-.03-.22-.07-.33-.03-.11-3.63-11.09-18.55-9.37-17.1,1.96-35.21,18.27-34.94,24.28.04,1.19.84,2.21,1.98,2.55-.44.76-.75,1.59-.93,2.45-.52,1.41-.69,2.93-.49,4.43.54,4.72,12.16,18.33,13.52,19.91-1.49,1.2-3,2.41-4.62,3.61-33.81,25.46-75.38,39.59-114.28,47.31,1.8-9.98,6.09-19.36,12.45-27.26,2.99-3.63,6.16-7.1,9.51-10.4,2.82-2.64,5.77-5.14,8.84-7.48,8.76-3.6,17.56-7.43,26.39-11.51.35-.17.61-.49.7-.87l2.49-11.49.07-.03c.44-.26.68-.75.62-1.26l-.25-1.93.22-1.04c.09-.39-.01-.8-.28-1.1-.07-.07-.15-.12-.24-.16l-10.62-83.9c-.05-.39-.29-.74-.63-.94-.34-.19-.76-.21-1.12-.05-117.26,52.19-247.25,68.86-373.88,47.95-96.03-15.78-157.72-47.59-158.33-47.92-.38-.2-.83-.19-1.2.03-.37.2-.61.58-.63,1l-4.16,57.22-4.65,43.21c-.05.52.21,1.02.67,1.26.22.12,7.95,4.07,21.93,9.89,3.86,2.8,7.54,5.85,11.02,9.11,3.36,3.31,6.55,6.8,9.55,10.44,6.37,7.9,10.65,17.28,12.44,27.27-57.43-11.42-94.96-32.07-118.76-51.12,1.8-2.1,12.85-15.14,13.38-19.75.2-1.49.03-3.02-.49-4.43-.17-.86-.49-1.69-.93-2.45,1.14-.34,1.94-1.36,2-2.55.26-6.01-17.85-22.33-34.94-24.28-14.95-1.69-18.52,9.27-18.56,9.37-.03.11-.05.22-.05.33,0,.26.02.52.09.77L.15,804.36c-.21.41-.19.9.07,1.28,1.23,1.85,2.59,3.7,4.01,5.53l-3.32,6.2c-.22.4-.2.9.05,1.28,17.73,26.77,53.51,48.36,80.41,61.75,33.76,16.82,67.01,27.44,84.96,30.52,9.58,1.72,19.29,2.63,29.02,2.71,4.31.08,8.62-.21,12.88-.87.34-.07.64-.27.82-.57l51.2-80c1.71-1.89,3-4.11,3.81-6.52l.04-.16c.58-1.83.82-3.74.7-5.66-.56-5.1-2.64-9.91-5.99-13.8,15.55,3.78,32.36,7.32,50.31,10.31,36.88,6.14,74.2,9.23,111.59,9.23,51.85.05,103.52-6.06,153.93-18.2-2.8,3.6-4.52,7.92-4.97,12.45-.11,1.91.13,3.83.7,5.66l.05.16c.7,2.13,1.8,4.11,3.24,5.83l51.03,80.69c.19.29.48.5.82.57,4.26.66,8.58.95,12.89.87,9.73-.08,19.44-.99,29.02-2.71,17.65-3.03,50.71-13.87,84.75-31.25,24.02-12.27,55.15-31.21,74.15-54.38.99-1.19,1.96-2.39,2.87-3.61,1.11-1.48,2.18-2.97,3.17-4.47.13-.19.2-.41.21-.63-.01-.07-.03-.13-.05-.2,0-.15-.03-.3-.09-.44l-2.34-4.56c1.47-1.9,2.9-3.81,4.16-5.74.25-.38.28-.87.07-1.28m-79.29-55.63c-.95-.99-1.82-1.96-2.6-2.85.74-1,1.45-1.98,2.26-2.88,1.16-1.58,2.46-3.06,3.87-4.43,1.5-1.34,3.16-2.47,4.96-3.37,1.81-.97,3.73-1.72,5.72-2.22.06-.02.1-.07.11-.13-.01-.07-.07-.12-.15-.12-4.27.33-8.38,1.81-11.88,4.27-1.89,1.14-3.49,2.7-4.69,4.55-.58.92-1.04,1.92-1.36,2.97-.83-1-1.49-1.85-1.92-2.39,8.28-12.72,18.77-16.02,27.43-16.02,5.3.05,10.53,1.16,15.39,3.28-1.82,3.21-8.14,13.22-23.23,28.14l-.24-.07c-2.53-.33-4.92-1.32-6.94-2.87.94-1.25,2.02-2.38,3.23-3.37,1.3-1.12,2.74-2.08,4.29-2.84.06-.03.08-.1.07-.16-.01-.06-.07-.1-.13-.09-.01,0-.02,0-.03.01-3.42.93-6.54,2.75-9.03,5.28-1.16-.91-2.3-1.92-3.38-2.95.42-.82.91-1.61,1.47-2.35,1.2-1.62,2.6-3.07,4.16-4.34,1.56-1.32,3.29-2.45,5.13-3.34.05-.03.09-.08.08-.15-.02-.07-.09-.11-.16-.09-4.11,1.21-7.83,3.5-10.76,6.62-.57.61-1.12,1.24-1.65,1.92m-601.77-82.66c10.59,5.21,69.75,32.89,157.28,47.3,126.58,20.91,256.52,4.43,373.87-47.43l10.84,85.62c-6.86,3.82-62.16,33.52-151.98,49.18-88.09,15.35-228.34,19.92-396.5-45.29l6.49-89.38Zm-68.13,76.05c-.41.54-1.08,1.39-1.92,2.39-.32-1.05-.77-2.05-1.36-2.97-1.2-1.85-2.8-3.4-4.68-4.55-3.51-2.46-7.62-3.94-11.9-4.27-.06,0-.12.05-.13.11-.01.07.03.13.1.14,0,0,0,0,0,0,1.99.5,3.91,1.25,5.71,2.22,1.8.9,3.47,2.03,4.97,3.37,1.41,1.37,2.7,2.85,3.86,4.43.8.92,1.56,1.88,2.26,2.88-.77.9-1.65,1.86-2.6,2.85-.52-.67-1.08-1.31-1.65-1.92-2.93-3.13-6.65-5.41-10.76-6.62-.07,0-.13.02-.16.08-.02.07.01.14.08.16,0,0,0,0,0,0,1.85.9,3.57,2.02,5.14,3.34,1.56,1.26,2.96,2.72,4.16,4.34.55.74,1.04,1.53,1.45,2.35-1.08,1.04-2.21,2.02-3.38,2.95-2.49-2.53-5.6-4.35-9.03-5.28-.06-.02-.13,0-.16.07-.02.07.01.14.08.16,1.54.77,2.97,1.72,4.27,2.84,1.21.99,2.3,2.12,3.24,3.37-2.03,1.55-4.42,2.54-6.95,2.87l-.24.07c-15.08-14.92-21.4-24.93-23.23-28.14,5.38-2.38,27.77-10.39,42.82,12.74m122.49,165.33c-2.78.42-16.8,2.14-40.49-1.93-40.57-6.97-131.81-43.64-162.51-89.1l1.48-2.88c35.46,43.43,119.79,80.47,157.54,86.94,14.65,2.54,29.47,3.87,44.34,3.98.65,0,1.16-.01,1.61-.01l-1.97,3Zm2.7-5.53c-15.5.06-30.98-1.25-46.25-3.93-39.46-6.76-130.34-47.21-161.33-93.14l3.72-7.18c.36,1.15.84,2.26,1.43,3.32.97,1.59,2.14,3.05,3.48,4.35,2.48,2.77,5.51,4.99,8.9,6.53l.13-.05c.02-.05,0-.12-.05-.15-1.52-.96-2.91-2.11-4.15-3.41-1.27-1.25-2.45-2.6-3.52-4.03-1.08-1.43-1.89-3.01-2.99-4.41-.85-1.08-1.72-2.17-2.67-3.23l3.08-5.96c.12,1.52.53,3.01,1.22,4.38.9,1.59,2.09,3,3.49,4.18,1.28,1.28,2.67,2.46,4.15,3.52,1.49,1.04,3.12,1.85,4.85,2.41.08.02.15-.01.2-.08.05-.08.03-.19-.05-.25h-.01c-1.41-.98-2.7-2.13-3.82-3.42-1.15-1.24-2.2-2.58-3.13-3.99-.8-1.48-1.69-2.9-2.67-4.27-.55-.67-1.14-1.3-1.77-1.9-.58-.59-1.23-1.12-1.92-1.59l2.19-4.24.15.46c.37,1,1.39,1.55,2.17,2.21,1.57,1.34,3.43,2.3,5.43,2.81.06,0,.12-.01.16-.05.07-.08.06-.19-.01-.26h-.01c-1.33-1.33-2.49-2.8-3.45-4.4-.48-.78-.65-1.74-1.35-2.33-.52-.45-1.1-.83-1.72-1.12l2.24-4.31c.05.36.13.72.25,1.07.32.94,1.24,1.44,1.98,2.03,1.43,1.29,3.21,2.16,5.11,2.49.06.01.12,0,.16-.05.06-.08.06-.19-.01-.26l-.04-.03c-1.24-1.15-2.27-2.51-3.05-4.01-.44-.71-.52-1.64-1.19-2.16-.63-.54-1.36-.94-2.14-1.19l1.68-3.23c.11.42.27.83.46,1.22.65.98,1.53,1.78,2.55,2.35,1.82,1.46,3.96,2.44,6.25,2.87.06,0,.12-.03.16-.08.05-.08.04-.19-.04-.25h-.03c-1.67-1.3-3.14-2.83-4.35-4.56-.62-.83-.93-1.9-1.76-2.54-.63-.53-1.33-.97-2.09-1.3l2.91-5.64c.1.43.23.85.4,1.26.63,1.16,1.5,2.17,2.55,2.97,1.85,1.85,4.1,3.26,6.58,4.1.07.02.14,0,.18-.05.07-.06.07-.17,0-.23,0,0-.01-.01-.02-.02h-.01c-1.78-1.64-3.31-3.53-4.54-5.61-.46-1.09-1.04-2.12-1.74-3.07-.63-.69-1.35-1.3-2.13-1.81l1.98-3.86c.18.73.42,1.44.74,2.12.79,1.35,1.84,2.54,3.08,3.5,2.21,2.18,4.87,3.86,7.79,4.92.07.03.16,0,.2-.07.06-.07.05-.18-.02-.24,0,0,0,0,0,0h-.01c-2.23-1.87-4.17-4.04-5.77-6.46-.65-1.26-1.42-2.47-2.27-3.61-.77-.87-1.63-1.65-2.58-2.33l2.31-4.45c.18.82.45,1.62.81,2.38.81,1.46,1.9,2.75,3.19,3.81,1.18,1.16,2.45,2.22,3.79,3.19,1.35.94,2.83,1.7,4.39,2.23.07.03.16,0,.2-.07.06-.07.05-.18-.02-.24,0,0,0,0,0,0h-.01c-2.4-1.97-4.48-4.3-6.15-6.91-.68-1.36-1.48-2.66-2.37-3.9-.81-.97-1.72-1.85-2.72-2.62l2.51-4.86c.27,1.02.65,2.01,1.14,2.95,1.02,1.71,2.31,3.24,3.83,4.52,2.76,2.82,6.04,5.07,9.66,6.62.07.04.16.02.21-.05.05-.08.04-.19-.04-.25h-.01c-1.49-1.16-2.87-2.45-4.12-3.86-1.27-1.35-2.45-2.79-3.53-4.31-.92-1.6-1.94-3.14-3.03-4.63-.93-1.11-1.93-2.16-3.01-3.12l5.88-11.4c3.34,6.46,14.65,25.32,41.18,45.33,52.68,39.72,123.87,52.22,175.1,55.61l-46.51,69.37Zm21.87-100.56c2.07,2.63,3.95,5.42,5.61,8.33,1.67,2.91,2.99,5.97,4.51,8.95.82,1.47,1.47,3.01,2.27,4.49.62,1.26,1.24,2.51,1.93,3.75-2.8-.09-5.8-.32-8.87-.62-.25-1.2-.53-2.39-.86-3.56-.53-1.63-1.08-3.25-1.71-4.85-1.38-3.14-3.06-6.14-5.01-8.96-1.88-2.86-3.97-5.57-6.25-8.12-1.5-1.62-3.11-3.14-4.81-4.55,2.68.16,5.87.49,9.61,1.02,1.26,1.31,2.46,2.68,3.58,4.11m-2.49-3.96c1.27.18,2.59.4,3.99.63,1.9,1.55,3.67,3.25,5.31,5.08,2.25,2.48,4.32,5.13,6.17,7.92,1.86,2.79,3.4,5.77,5.13,8.62.91,1.41,1.67,2.91,2.58,4.34.54.91,1.08,1.84,1.65,2.76-2.52.2-5.04.25-7.56.15-.28-1.45-.62-2.88-1.02-4.31-.53-1.63-1.08-3.25-1.72-4.84-1.36-3.15-3.04-6.15-5-8.96-1.88-2.86-3.97-5.58-6.25-8.13-1.06-1.12-2.16-2.22-3.3-3.25m-6.7,4.06c2.07,2.64,3.94,5.42,5.61,8.33,1.67,2.91,2.99,5.99,4.51,8.96.82,1.47,1.47,3.01,2.27,4.49.49.98.98,1.96,1.48,2.94-2.01-.21-4.03-.45-6.04-.71-.22-.99-.46-1.98-.74-2.97-.52-1.63-1.08-3.24-1.71-4.84-1.38-3.14-3.06-6.14-5.01-8.96-1.88-2.86-3.97-5.57-6.25-8.12-1.47-1.59-3.04-3.08-4.71-4.47,1.6-.08,3.53-.07,5.8.05,1.72,1.65,3.32,3.41,4.78,5.29m-6.69-.18c2.07,2.64,3.94,5.42,5.61,8.33,1.67,2.91,2.99,5.99,4.51,8.96.82,1.47,1.47,3.01,2.27,4.49.38.75.74,1.52,1.12,2.27-3.04-.41-6.01-.87-8.8-1.34-.12-1.18-.25-2.35-.45-3.52-.34-1.68-.71-3.34-1.16-5-1.01-3.28-2.34-6.45-3.98-9.47-1.55-3.05-3.32-5.98-5.31-8.76-.21-.3-.45-.58-.67-.87.67-.09,1.43-.16,2.26-.22,1.66,1.6,3.2,3.3,4.62,5.11m-2.43,5.47c1.34,3.08,2.3,6.28,3.49,9.4.65,1.55,1.12,3.16,1.76,4.72.37,1,.73,2.01,1.12,3-1.04-.16-2.06-.34-3.04-.53-.11-1.06-.25-2.13-.42-3.19-.34-1.67-.71-3.34-1.16-5-1.01-3.28-2.35-6.45-3.98-9.47-1.52-2.98-3.26-5.86-5.19-8.59.63-.23,1.28-.4,1.94-.53.28.42.57.85.83,1.28,1.77,2.85,3.32,5.82,4.65,8.9m-3.78-.32c1.34,3.07,2.3,6.28,3.49,9.4.65,1.55,1.12,3.16,1.77,4.72.3.87.62,1.76.95,2.64-.53-.09-1.06-.2-1.57-.29-2.75-7.75-6.27-15.22-10.5-22.27l-.04-.13c-.36-.61-.33-1.39.08-1.97.31-.41.72-.74,1.18-.96,1.77,2.84,3.32,5.81,4.64,8.88m52.2,13.56c.09,1.55-.1,3.11-.54,4.6-1.92,1.28-4.16,2-6.46,2.08-.32-1.12-.66-2.23-1.06-3.33-.63-1.59-1.31-3.16-2.05-4.71-1.59-3.04-3.47-5.92-5.62-8.59-2.07-2.72-4.34-5.29-6.79-7.67-1.6-1.5-3.3-2.9-5.08-4.18,3.86.66,8.17,1.49,13.05,2.55.35.06.7-.03.98-.25.37.09.75.18,1.12.29,1.39,1.06,2.7,2.23,3.93,3.48.08.08,8.05,7.24,8.53,15.73m47.71-9.03c-94.04-15.64-157.36-46.25-164.97-50.05l.36-3.33c108.28,42.08,205.06,55.28,283.91,55.28,38.38.07,76.7-3.18,114.52-9.69,83.08-14.49,136.77-40.97,150.12-48.06l-1.23,5.66c-149.68,69.2-290.72,65.5-382.71,50.19m279.91,12.16c.81-1.48,1.45-3.03,2.27-4.49,1.53-2.97,2.85-6.04,4.52-8.95,1.66-2.91,3.53-5.7,5.61-8.33,1.12-1.43,2.31-2.8,3.57-4.11,3.74-.53,6.93-.85,9.61-1.02-1.7,1.41-3.31,2.93-4.81,4.55-2.28,2.55-4.37,5.26-6.25,8.12-1.95,2.82-3.62,5.82-5,8.96-.63,1.6-1.19,3.23-1.72,4.85-.33,1.16-.61,2.35-.86,3.56-3.07.3-6.07.53-8.87.62.69-1.24,1.31-2.5,1.93-3.75m-2.41,3.77c-2.52.1-5.04.05-7.55-.15.56-.93,1.1-1.85,1.64-2.76.91-1.43,1.67-2.92,2.58-4.34,1.74-2.85,3.27-5.83,5.13-8.62,1.86-2.79,3.93-5.43,6.17-7.92,1.64-1.82,3.42-3.52,5.32-5.08,1.4-.24,2.72-.45,3.99-.63-1.14,1.04-2.24,2.13-3.3,3.25-2.28,2.55-4.37,5.27-6.25,8.13-1.95,2.82-3.63,5.82-5,8.96-.63,1.59-1.19,3.21-1.72,4.84-.4,1.43-.74,2.85-1.02,4.31m11.59-3.65c.81-1.48,1.45-3.03,2.27-4.49,1.53-2.97,2.85-6.05,4.51-8.96,1.66-2.91,3.54-5.7,5.62-8.33,1.46-1.88,3.05-3.64,4.77-5.28,2.29-.13,4.2-.13,5.82-.07-1.67,1.38-3.25,2.87-4.72,4.47-2.28,2.55-4.37,5.26-6.25,8.12-1.95,2.82-3.62,5.82-5,8.96-.63,1.6-1.19,3.21-1.72,4.84-.28.98-.52,1.97-.74,2.97-2.01.26-4.03.49-6.04.71.49-.98,1-1.96,1.48-2.94m6.69-.18c.81-1.48,1.45-3.03,2.27-4.49,1.53-2.97,2.85-6.05,4.51-8.96,1.66-2.91,3.54-5.7,5.62-8.33,1.41-1.81,2.95-3.52,4.6-5.11.85.05,1.6.13,2.26.22l-.67.87c-1.98,2.79-3.76,5.72-5.31,8.76-1.62,3.02-2.95,6.19-3.96,9.47-.45,1.65-.83,3.32-1.18,5-.18,1.16-.33,2.34-.45,3.52-2.79.46-5.76.93-8.8,1.34.38-.75.75-1.52,1.12-2.27m9.56-2.19c.63-1.56,1.11-3.17,1.76-4.72,1.19-3.12,2.17-6.32,3.49-9.4,1.33-3.08,2.89-6.05,4.65-8.9.28-.44.56-.86.83-1.28.66.13,1.31.3,1.94.53-1.93,2.74-3.67,5.61-5.19,8.59-1.63,3.02-2.96,6.19-3.98,9.47-.45,1.65-.82,3.33-1.16,5-.16,1.06-.3,2.13-.42,3.19-.98.18-1.98.36-3.03.53.38-.99.75-2,1.11-3m3.78-.32c.63-1.56,1.11-3.17,1.76-4.72,1.19-3.12,2.17-6.33,3.49-9.4,1.32-3.07,2.88-6.04,4.64-8.88.46.23.87.56,1.19.96.41.59.44,1.35.08,1.97l-.05.15c-4.23,7.05-7.75,14.51-10.5,22.26-.52.09-1.03.2-1.57.29.33-.87.65-1.76.96-2.64m-46.41,4.05c-.45-1.49-.63-3.05-.54-4.6.49-8.49,8.45-15.65,8.61-15.8.5-.53,1.04-1.06,1.63-1.59,4.92-1.24,9.86-2.56,14.82-3.96.87-.16,1.72-.32,2.55-.45-1.78,1.27-3.47,2.66-5.06,4.16-2.46,2.38-4.74,4.94-6.81,7.67-2.14,2.68-4.03,5.55-5.62,8.59-.74,1.55-1.4,3.12-2.05,4.71-.38,1.1-.74,2.21-1.06,3.33-2.31-.07-4.55-.79-6.46-2.08m94.64,80.92c-23.7,4.07-37.73,2.35-40.5,1.93l-1.97-3c.45,0,.96.01,1.61.01,14.86-.11,29.69-1.44,44.34-3.98,37.74-6.48,122.08-43.52,157.54-86.93l1.48,2.87c-30.69,45.46-121.92,82.12-162.49,89.1m3.05-7.52c-15.27,2.67-30.75,3.99-46.25,3.93l-46.5-69.36c51.24-3.4,122.42-15.89,175.1-55.61,26.53-20.01,37.83-38.86,41.18-45.33l5.9,11.4c-1.08.97-2.09,2.01-3.01,3.12-1.09,1.49-2.1,3.03-3.03,4.63-1.07,1.52-2.25,2.96-3.53,4.31-1.25,1.41-2.63,2.7-4.12,3.85h-.01c-.07.06-.09.15-.07.22.04.09.15.13.24.09,0,0,0,0,0,0,3.63-1.55,6.91-3.8,9.66-6.62,1.52-1.28,2.82-2.81,3.83-4.52.49-.94.87-1.93,1.15-2.95l2.5,4.86c-1,.77-1.91,1.65-2.71,2.62-.89,1.24-1.69,2.54-2.38,3.9-1.67,2.61-3.74,4.94-6.13,6.9h-.01c-.06.06-.09.14-.07.21.03.09.13.14.22.12,1.56-.54,3.04-1.29,4.39-2.23,1.34-.96,2.61-2.03,3.79-3.19,1.3-1.05,2.38-2.35,3.2-3.81.35-.77.62-1.57.81-2.39l2.29,4.46c-.94.68-1.81,1.46-2.59,2.33-.85,1.14-1.61,2.34-2.26,3.61-1.6,2.42-3.54,4.59-5.77,6.45h-.03c-.05.06-.08.14-.05.21.03.09.13.15.22.12,2.92-1.06,5.57-2.74,7.79-4.92,1.25-.95,2.29-2.14,3.08-3.5.32-.68.57-1.39.74-2.12l2,3.86c-.78.52-1.5,1.13-2.14,1.81-.7.95-1.28,1.98-1.74,3.07-1.22,2.08-2.75,3.96-4.52,5.59h-.03c-.05.06-.07.13-.05.2.03.09.13.14.22.12,2.48-.84,4.73-2.24,6.58-4.1,1.06-.79,1.93-1.81,2.56-2.97.15-.41.28-.83.38-1.26l2.91,5.64c-.75.33-1.46.77-2.09,1.3-.83.63-1.12,1.71-1.76,2.54-1.21,1.73-2.67,3.26-4.35,4.55h-.03c-.05.05-.08.11-.07.18.01.1.1.17.2.16,2.29-.43,4.44-1.41,6.27-2.87,1.02-.57,1.9-1.38,2.55-2.35.18-.39.34-.8.46-1.22l1.67,3.23c-.79.25-1.52.65-2.14,1.19-.67.52-.75,1.44-1.18,2.16-.79,1.5-1.83,2.85-3.07,4.01l-.03.03s-.07.1-.07.16c0,.1.09.17.19.17,0,0,0,0,0,0,1.91-.33,3.68-1.19,5.11-2.49.74-.6,1.67-1.1,2-2.03.12-.35.2-.71.25-1.08l2.22,4.32c-.62.29-1.19.67-1.71,1.12-.71.58-.89,1.55-1.36,2.33-.96,1.6-2.12,3.08-3.45,4.39h-.01c-.04.06-.06.12-.05.18.02.1.11.16.21.15,2-.51,3.86-1.47,5.43-2.81.78-.66,1.8-1.2,2.17-2.21.07-.16.11-.32.16-.48l2.19,4.26c-.69.46-1.33.99-1.92,1.59-.63.59-1.23,1.23-1.77,1.9-.98,1.37-1.88,2.79-2.68,4.27-.93,1.42-1.98,2.75-3.13,3.99-1.12,1.3-2.41,2.44-3.82,3.41h-.01c-.07.06-.09.14-.07.21.01.09.1.15.19.14,0,0,.02,0,.02,0,1.73-.55,3.37-1.36,4.85-2.41,1.48-1.05,2.88-2.23,4.16-3.52,1.4-1.18,2.58-2.59,3.49-4.18.67-1.38,1.08-2.86,1.22-4.39l3.08,5.97c-.96,1.06-1.84,2.14-2.67,3.23-1.1,1.4-1.92,2.99-3,4.41-1.06,1.43-2.23,2.78-3.5,4.03-1.24,1.31-2.64,2.45-4.16,3.41l-.05.13c.03.05.09.08.15.07,3.38-1.54,6.4-3.76,8.88-6.53,1.34-1.3,2.51-2.76,3.48-4.35.59-1.06,1.07-2.18,1.44-3.33l3.7,7.19c-30.99,45.94-121.87,86.37-161.33,93.14" style="fill:#115481;"/><path id="Path_1358" d="m302.25,732.64c.11-.14.1-.34-.03-.46-.84-.87-1.75-1.66-2.74-2.37-1.13-.85-2.32-1.62-3.56-2.31-1.3-.74-2.63-1.42-3.99-2.02-1.32-.6-2.68-1.11-4.07-1.52-3.86-1.14-7.85-1.73-11.87-1.74-3.8-.03-7.57.74-11.06,2.25-3.57,1.61-6.73,4.01-9.24,7.03-2.98,3.72-5.15,8.03-6.36,12.64-1.03,3.42-1.37,7-1.02,10.55.34,3.4,1.43,6.69,3.17,9.64,1.86,3.08,4.34,5.74,7.27,7.81,3.41,2.39,7.21,4.17,11.23,5.27,3.73,1.15,7.6,1.76,11.5,1.82,1.62,0,3.23-.14,4.83-.42.12-.02.23-.11.28-.22.41-1.03.91-2.01,1.49-2.95.61-.98,1.27-1.93,1.96-2.84.1-.14.1-.33-.01-.46l-.81-.89c-.11-.12-.29-.15-.44-.07-1.07.63-2.22,1.12-3.41,1.47-1.25.38-2.54.63-3.84.76-1.31.12-2.63.14-3.94.05-1.26-.08-2.5-.3-3.72-.65-2.15-.64-4.16-1.65-5.95-3-1.87-1.42-3.4-3.24-4.48-5.33-1.21-2.41-1.92-5.03-2.1-7.72-.19-3.44.25-6.89,1.3-10.18.93-3.48,2.45-6.77,4.48-9.74,1.6-2.3,3.63-4.27,5.97-5.8,1.98-1.28,4.22-2.13,6.56-2.47,2.1-.31,4.24-.17,6.28.41,2.39.64,4.6,1.84,6.43,3.5,1.88,1.91,3.33,4.19,4.27,6.7.04.1.12.18.22.21l1.04.3c.18.06.37-.04.44-.21.48-1.25,1.03-2.47,1.67-3.65.65-1.19,1.4-2.33,2.23-3.4" style="fill:#115481;"/><path id="Path_1359" d="m355.83,737.5c-.9-.03-1.86-.08-2.88-.16s-2.19-.22-3.46-.41c-1.24-.2-2.39-.41-3.42-.65s-1.97-.46-2.79-.7c-.1-.02-.21,0-.3.05-.09.06-.14.16-.15.26-.3,3.34-.66,6.7-1.06,9.97-.37,3.17-.89,6.86-1.51,10.97-1.4-.16-2.91-.36-4.52-.58-1.76-.24-4.02-.58-6.79-.99s-5.09-.79-6.97-1.11c-1.76-.29-3.23-.54-4.45-.78.63-4.12,1.23-7.8,1.78-10.93.57-3.24,1.24-6.54,2.01-9.81.02-.11,0-.22-.07-.3-.07-.08-.17-.13-.28-.13-.85-.04-1.8-.09-2.88-.16-1.02-.08-2.18-.21-3.45-.41s-2.45-.41-3.44-.63c-1.06-.25-1.97-.48-2.79-.7-.1-.03-.22,0-.3.05-.08.06-.14.15-.15.25-.3,3.37-.66,6.76-1.06,10.05-.4,3.32-.94,7.15-1.57,11.4l-1.6,10.48c-.65,4.23-1.28,8.05-1.89,11.34-.61,3.29-1.27,6.57-1.94,9.68-.03.1,0,.21.07.29.06.08.16.13.26.13.87.04,1.82.13,2.84.28l6.94,1.06c.94.14,1.87.34,2.79.58.1.03.21,0,.29-.05.09-.05.15-.15.16-.25.28-3.2.62-6.5,1.02-9.82.4-3.27.93-7.09,1.57-11.38l.62-4.07c1.82.18,3.69.4,5.55.63,2.01.25,3.99.53,5.86.81,1.93.3,3.89.63,5.84,1,1.82.36,3.65.7,5.49,1.03l-.62,4.06c-.63,4.23-1.27,8.05-1.88,11.34-.61,3.27-1.26,6.52-1.94,9.66-.02.11,0,.22.07.3.06.08.16.13.26.13.95.03,1.9.13,2.84.28l6.94,1.06c.94.13,1.87.33,2.79.58h.09c.07.01.14-.01.2-.05.09-.06.15-.16.16-.26.26-3.17.62-6.48,1.02-9.82.4-3.28.93-7.11,1.57-11.38l1.6-10.48c.65-4.23,1.28-8.05,1.89-11.34.61-3.29,1.27-6.61,1.97-9.89.02-.11,0-.22-.07-.3-.06-.08-.16-.13-.26-.13" style="fill:#115481;"/><path id="Path_1360" d="m388.49,767.63c3.38-.57,6.52-2.13,9.02-4.49,2.37-2.52,3.73-5.82,3.82-9.28.2-2.15-.15-4.31-1-6.29-.81-1.78-2.01-3.36-3.51-4.62-.67-.52-1.37-.98-2.12-1.38-.85-.43-1.75-.78-2.67-1.02-1.19-.31-2.4-.55-3.63-.71-1.43-.2-3.13-.37-5.08-.49-2.66-.16-4.9-.24-6.69-.24s-3.38-.04-4.77-.12c-1.28-.09-2.46-.2-3.48-.34s-2-.3-2.84-.46c-.1-.01-.21.01-.29.08-.08.06-.13.16-.13.26-.01,3.37-.08,6.76-.2,10.11-.12,3.35-.32,7.22-.6,11.47l-.69,10.59c-.28,4.26-.58,8.12-.9,11.46-.32,3.34-.7,6.65-1.11,9.8-.02.11.02.21.09.29.07.08.17.12.28.12.95-.05,1.9-.04,2.84.03l6.99.47c.95.06,1.89.17,2.83.34.1,0,.21-.02.29-.08.08-.07.13-.17.13-.28,0-3.21.07-6.53.16-9.86.1-3.33.32-7.19.6-11.49l.18-2.83h.15l12.24,25.25c.04.14.19.22.33.2,1.16-.03,2.34.01,3.52.08l7.05.46c1.14.08,2.3.2,3.46.38h.05c.12,0,.23-.06.29-.16.08-.11.09-.25.02-.37-2.64-4.63-5.23-9.2-7.71-13.6-2.47-4.4-4.81-8.87-6.94-13.27m-3.05-4.95c-2.19,1.76-5,2.53-7.79,2.16-.25-.01-.49-.04-.78-.08l-.57-.11c.45-6.81.98-13.71,1.57-20.5,1.7.11,3.39.33,5.06.65,1.27.21,2.47.73,3.49,1.52.91.8,1.54,1.86,1.82,3.04.4,1.76.52,3.58.33,5.38.04,2.96-1.09,5.81-3.15,7.94" style="fill:#115481;"/><path id="Path_1361" d="m422.69,762.76c.07-4.27.18-8.13.34-11.49.16-3.33.37-6.72.63-10.09.01-.1-.03-.21-.11-.28-.07-.08-.18-.12-.29-.11-.86.09-1.8.16-2.87.22-1.02.07-2.19.08-3.49.07-1.27-.03-2.45-.08-3.48-.16-1.08-.11-2.02-.21-2.87-.33-.11-.01-.21.02-.29.09-.08.08-.12.18-.12.29.16,3.34.26,6.74.3,10.09.05,3.37.04,7.23-.03,11.5l-.16,10.6c-.08,4.31-.18,8.17-.34,11.5s-.37,6.62-.63,9.84c0,.11.04.21.11.29.08.07.18.11.29.09.94-.08,1.89-.12,2.84-.11l7.02.12c.95.01,1.9.08,2.84.2h.05c.09,0,.17-.03.24-.09.08-.07.12-.17.12-.28-.16-3.23-.26-6.56-.32-9.86-.04-3.38-.03-7.26.04-11.5l.16-10.61Z" style="fill:#115481;"/><path id="Path_1362" d="m436.87,769.24c1.8,1.29,3.73,2.36,5.77,3.21,2.04.85,3.94,1.74,5.66,2.66,1.58.81,3.03,1.87,4.29,3.13,1.15,1.24,1.77,2.87,1.73,4.56.09,2-.63,3.95-1.98,5.42-1.78,1.67-4.16,2.53-6.6,2.39-1.39.05-2.77-.13-4.1-.54-1.14-.36-2.2-.93-3.13-1.68-.86-.73-1.59-1.59-2.17-2.55-.57-.96-.98-2-1.2-3.09-.04-.17-.18-.29-.36-.29h-.01l-1.49.03c-.18,0-.32.14-.34.32-.21,1.76-.48,3.41-.81,4.9s-.73,3.2-1.19,5.01c-.04.14.01.29.13.37,1.58,1.05,3.35,1.78,5.21,2.16,2.19.51,4.44.76,6.69.74.32,0,.63-.01.95-.01,2.9-.04,5.78-.53,8.54-1.44,2.4-.81,4.63-2.08,6.54-3.74,1.8-1.59,3.22-3.57,4.16-5.77.97-2.32,1.43-4.81,1.34-7.32.03-2.62-.66-5.19-2-7.44-1.22-1.88-2.79-3.52-4.63-4.81-1.82-1.3-3.78-2.38-5.85-3.23-2.04-.86-3.96-1.76-5.74-2.7-1.62-.82-3.1-1.88-4.4-3.15-2.44-2.59-2.33-6.67.26-9.12,1.5-1.41,3.5-2.19,5.57-2.16h.34c4.04-.18,7.7,2.38,8.91,6.24.05.14.18.23.33.22h.01l1.16-.03c.16,0,.3-.1.34-.25l1.18-4.3c.3-1.08.67-2.26,1.11-3.46.07-.15.02-.32-.12-.41-1.68-1.24-3.58-2.16-5.59-2.72-2.44-.68-4.98-.96-7.51-.85-2.31.05-4.59.47-6.76,1.27-2.08.76-3.98,1.92-5.62,3.41-1.64,1.52-2.94,3.38-3.81,5.44-.97,2.33-1.41,4.84-1.3,7.36-.04,2.61.63,5.18,1.96,7.43,1.18,1.87,2.7,3.49,4.49,4.78" style="fill:#115481;"/><path id="Path_1363" d="m465.23,743.96c.05.55.06,1.11.03,1.67-.04.58-.08,1.15-.13,1.72-.02.2.12.37.32.39.04,0,.08,0,.12,0,1.08-.24,2.33-.48,3.67-.73s2.66-.45,3.93-.63c1.3-.16,2.5-.34,3.63-.49,1.02-.13,1.86-.22,2.55-.28.16.78.27,1.56.34,2.35.12,1.24.24,2.62.37,4.11l1.59,19.43c.34,4.2.61,8.06.78,11.47.16,3.38.28,6.7.33,9.86,0,.1.05.2.13.26.06.05.14.08.22.08h.07c.93-.18,1.88-.31,2.83-.38l6.99-.57c.95-.09,1.9-.12,2.85-.08.1,0,.2-.05.28-.12.07-.08.1-.19.08-.29-.46-3.19-.89-6.48-1.27-9.78-.38-3.3-.73-7.15-1.08-11.45l-1.9-23.55c-.05-.62-.09-1.15-.11-1.63,0-.29,0-.54.01-.75.71-.04,1.57-.09,2.56-.13,1.14-.04,2.34-.07,3.63-.09,1.22-.03,2.51-.03,3.86-.01,1.31.03,2.49.08,3.52.15.12,0,.23-.05.3-.13.07-.09.09-.21.07-.32-.15-.56-.29-1.11-.41-1.67-.12-.54-.21-1.09-.25-1.65-.04-.56-.05-1.12-.03-1.68.04-.57.08-1.14.13-1.71.02-.11-.02-.22-.11-.29-.07-.09-.18-.13-.29-.11l-4.45.52c-1.36.16-2.78.32-4.22.46l-4.77.48c-1.73.16-3.82.34-6.25.54s-4.52.36-6.25.48l-4.84.32c-1.47.09-2.92.16-4.35.24s-3.03.15-4.8.22c-.11.01-.21.07-.26.16-.07.08-.09.19-.07.29.16.57.29,1.12.41,1.68.13.54.21,1.09.25,1.65" style="fill:#115481;"/><path id="Path_1364" d="m513.05,752.67c.22,1.39.44,2.72.62,4.01.21,1.28.42,2.62.65,4.01.22,1.39.49,2.88.71,4.51.25,1.61.56,3.45.9,5.5.46,3.25,1.63,6.36,3.44,9.11,1.57,2.3,3.67,4.19,6.13,5.5,2.53,1.31,5.31,2.08,8.15,2.25.82.07,1.64.09,2.49.09,2.33-.01,4.66-.22,6.97-.61,7.51-1.27,12.94-4.24,16.16-8.82,3.22-4.57,4.12-11.46,2.59-20.44-.57-3.33-1.06-6.53-1.49-9.51-.44-3.04-.81-5.82-1.11-8.28-.33-2.5-.6-4.71-.82-6.62-.2-1.85-.37-3.4-.45-4.57-.01-.11-.07-.2-.16-.26-.08-.06-.19-.08-.29-.05-.65.22-1.28.42-1.86.6-.62.19-1.24.33-1.88.44-.6.1-1.21.17-1.82.2l-2.12.08c-.1,0-.19.05-.25.13-.07.09-.09.2-.07.3.78,3.45,1.55,6.98,2.23,10.48.7,3.48,1.35,7.02,1.94,10.54.61,3.58,1.08,7.07,1.44,10.38.35,2.99.3,6.01-.16,8.99-.36,2.43-1.33,4.72-2.84,6.66-1.71,1.91-4.07,3.12-6.62,3.4-2.19.4-4.42.52-6.64.36-1.9-.18-3.7-.96-5.14-2.22-1.78-1.67-3.15-3.73-4.01-6.01-1.36-3.57-2.33-7.28-2.88-11.06-.74-4.43-1.45-8.83-2.05-13.05-.61-4.26-1.1-8.96-1.44-14.02,0-.11-.05-.21-.15-.26-.09-.06-.2-.08-.3-.07-1,.28-2.02.54-3.09.81-1.04.25-2.1.48-3.09.65-1.04.16-2.09.32-3.16.41s-2.14.2-3.17.26c-.11,0-.2.06-.26.15-.07.08-.1.2-.08.3.34,1.27.74,3.19,1.2,5.71.53,2.67,1.11,6.05,1.8,10.05" style="fill:#115481;"/><path id="Path_1365" d="m571.46,749.03c1.63,1.49,3.53,2.66,5.61,3.44,2.07.77,4.21,1.3,6.4,1.59,2.18.29,4.26.66,6.16,1.08,1.74.37,3.42,1.02,4.96,1.92,1.42.89,2.45,2.3,2.87,3.93.61,1.91.43,3.99-.49,5.77-1.28,2.08-3.35,3.53-5.74,4.03-1.33.41-2.71.6-4.1.56-1.2-.05-2.37-.32-3.46-.81-1.02-.47-1.95-1.11-2.76-1.89-.8-.78-1.47-1.68-1.98-2.67-.07-.15-.25-.23-.41-.18l-1.41.42c-.17.06-.28.22-.26.4.26,1.74.42,3.41.52,4.95.09,1.54.13,3.27.15,5.16,0,.15.1.27.24.32,1.58.54,3.24.78,4.9.73h.69c2.57-.11,5.11-.55,7.56-1.31,2.79-.8,5.45-2.02,7.87-3.63,2.11-1.41,3.92-3.22,5.33-5.33,1.33-2,2.19-4.27,2.51-6.65.32-2.49.11-5.02-.63-7.42-.65-2.53-1.99-4.84-3.87-6.65-1.67-1.51-3.61-2.69-5.72-3.47-2.1-.77-4.28-1.31-6.5-1.6-2.18-.29-4.29-.66-6.24-1.1-1.77-.36-3.48-1-5.07-1.88-1.43-.83-2.46-2.21-2.87-3.81-.51-1.72-.25-3.57.73-5.08,1.08-1.76,2.8-3.02,4.8-3.53,3.93-1.41,8.32.08,10.58,3.6.09.12.24.17.38.13l1.12-.33c.15-.05.25-.19.25-.34l.03-4.44c0-1.18.05-2.39.16-3.65.01-.15-.08-.3-.22-.36-1.95-.76-4.03-1.15-6.12-1.16-2.53,0-5.05.39-7.47,1.15-2.21.65-4.3,1.66-6.17,3-1.8,1.28-3.34,2.9-4.54,4.76-1.18,1.9-1.95,4.03-2.25,6.25-.32,2.5-.09,5.04.67,7.44.65,2.53,1.97,4.83,3.82,6.66" style="fill:#115481;"/><path id="Path_1366" d="m76.87,791.13c-.75-.56-1.44-1.1-2.06-1.6-.08-.07-.19-.09-.29-.07-.1.01-.19.07-.24.16-1.49,2.72-3.03,5.38-4.54,7.92-1.51,2.56-3.28,5.46-5.43,8.84l-5.13,8.1c-2.07,3.26-3.98,6.2-5.69,8.69-1.7,2.53-3.43,4.97-5.11,7.3-.07.08-.09.19-.07.29.03.1.1.19.2.24.33.16.73.37,1.19.63.46.26,1.14.67,2.02,1.24l9.44,5.97c2.74,1.74,4.88,3.11,6.43,4.12,1.51.98,2.82,1.85,3.9,2.59.06.04.14.06.21.07l.12-.03c.11-.04.19-.13.22-.24.08-.33.2-.64.36-.94.26-.51.54-1.01.86-1.49.3-.49.63-.96.98-1.41.26-.33.57-.69.93-1.06.08-.09.11-.2.1-.32-.03-.11-.1-.2-.2-.25-2.45-1.16-4.86-2.42-7.2-3.73-2.21-1.24-4.41-2.56-6.58-3.93.9-1.51,1.97-3.25,3.2-5.23,1.31-2.12,2.68-4.3,4.11-6.56l5.14-8.09c2.16-3.4,4.01-6.24,5.67-8.7,1.67-2.46,3.42-4.96,5.23-7.47.07-.08.09-.19.07-.29-.03-.11-.1-.19-.2-.24-.71-.34-1.49-.74-2.31-1.18s-1.72-.96-2.71-1.6-1.85-1.22-2.6-1.77" style="fill:#115481;"/><path id="Path_1367" d="m93.34,856.99c2.24,1.78,4.69,3.29,7.28,4.49,3.4,1.72,7.14,2.67,10.95,2.78,1.91.01,3.81-.31,5.62-.95,4.77-1.73,8.96-6.39,12.48-13.83,1.27-2.71,2.55-5.34,3.81-7.81,1.31-2.62,2.43-4.81,3.44-6.72,1.06-2.02,2-3.8,2.82-5.33.83-1.52,1.51-2.75,2.02-3.63.05-.09.06-.2.03-.3-.04-.1-.12-.18-.22-.21-.6-.18-1.15-.36-1.69-.53-1.07-.36-2.09-.84-3.04-1.44-.53-.32-1.06-.66-1.61-1.03-.09-.06-.2-.07-.3-.04-.11.03-.19.11-.22.21-1.16,2.88-2.42,5.88-3.74,8.92-1.32,3.04-2.67,5.99-4,8.83-1.39,2.94-2.83,5.77-4.3,8.42-1.27,2.4-2.87,4.62-4.75,6.58-1.52,1.61-3.43,2.8-5.54,3.45-2.25.53-4.61.21-6.64-.9-1.83-.83-3.55-1.89-5.1-3.17-1.31-1.11-2.23-2.6-2.64-4.27-.46-2.15-.41-4.38.15-6.5.83-3.35,2.03-6.59,3.57-9.68,1.74-3.69,3.49-7.31,5.22-10.73,1.74-3.5,3.83-7.23,6.17-11.12.05-.09.06-.2.03-.3-.03-.11-.11-.19-.21-.22-.89-.3-1.78-.65-2.71-1s-1.8-.73-2.64-1.12-1.69-.83-2.55-1.32-1.69-.96-2.5-1.44c-.09-.05-.19-.07-.29-.04-.1.04-.18.11-.22.21-.42,1.12-1.11,2.75-2.05,4.85-.94,2.1-2.25,4.92-3.87,8.36-.54,1.15-1.07,2.25-1.59,3.3-.53,1.06-1.07,2.16-1.6,3.3s-1.14,2.38-1.8,3.72c-.66,1.34-1.38,2.84-2.18,4.55-1.34,2.65-2.08,5.56-2.16,8.53-.02,2.53.57,5.02,1.71,7.27,1.2,2.28,2.87,4.28,4.89,5.88" style="fill:#115481;"/><path id="Path_1368" d="m148.26,839.87c.58,2.82,1.19,5.74,1.81,8.76.6,2.95,1.12,5.59,1.59,7.96-1.67,1.34-3.45,2.78-5.33,4.3-1.96,1.57-3.89,3.12-5.79,4.63l-5.43,4.31c-1.65,1.32-3.12,2.41-4.32,3.23-.12.09-.18.24-.15.38.03.14.15.25.29.26.6.1,1.19.24,1.77.42l1.64.52c1.18.37,2.25.77,3.23,1.16.13.05.27.03.37-.07,2.45-2.27,5-4.6,7.57-6.87,2.45-2.17,4.98-4.35,7.53-6.49.62,3.17,1.18,6.33,1.67,9.41.57,3.58,1.11,6.78,1.65,9.77.03.14.13.24.26.28,1,.22,1.98.49,2.94.78l5.84,1.85c.95.3,1.93.66,2.92,1.07l.15.03c.08,0,.16-.03.22-.08.1-.09.15-.22.12-.36-.3-1.38-.7-3.27-1.19-5.68s-1.02-5.04-1.59-7.83c-.56-2.7-1.11-5.51-1.69-8.58-.53-2.84-1.02-5.49-1.44-7.93,1.56-1.19,3.3-2.55,5.28-4.14,1.94-1.56,3.87-3.07,5.77-4.53,1.9-1.46,3.67-2.82,5.3-4.08,1.71-1.28,3.04-2.26,4.08-2.97.12-.09.17-.24.15-.38-.03-.14-.15-.24-.29-.26-.66-.11-1.27-.22-1.85-.33-.55-.1-1.1-.24-1.64-.41-.54-.17-1.08-.37-1.6-.61-.52-.24-1.07-.5-1.67-.79-.13-.06-.29-.03-.4.07-2.41,2.21-4.88,4.45-7.39,6.66-2.41,2.14-4.8,4.22-7.13,6.21-.49-2.85-1-5.77-1.53-8.92-.49-2.97-.98-6.07-1.49-9.48-.03-.15-.13-.26-.28-.3-1.06-.22-2.08-.46-3.05-.7-.95-.22-1.97-.52-3-.83s-2.05-.69-2.97-1.06c-.96-.37-1.97-.78-3.01-1.2-.12-.05-.26-.03-.36.05-.1.08-.15.22-.12.34l1.12,5.47c.44,2.1.92,4.43,1.44,6.98" style="fill:#115481;"/><path id="Path_1369" d="m701.2,849.99l-9.99-24.92c-.03-.09-.11-.16-.2-.2-.09-.04-.2-.04-.29.01-.86.45-1.77.81-2.7,1.08-.97.25-1.95.4-2.95.45-.17.01-.3.14-.33.3-.95,6.12-2.02,12.39-3.21,18.63-1.14,6.05-2.37,11.94-3.63,17.48-1.74-1.92-3.56-3.94-5.46-6.07-2.02-2.26-4.12-4.65-6.23-7.09-2.1-2.42-4.2-4.85-6.31-7.3-2.02-2.37-4.07-4.8-6.1-7.24-.1-.13-.28-.17-.42-.11-.48.24-.93.44-1.35.63-.4.17-.8.31-1.22.42-.45.13-.91.22-1.38.28-.44.04-.93.09-1.44.13-.1.01-.19.07-.25.15-.06.07-.09.17-.08.26,1.2,8.12,2.29,16.3,3.25,24.3.96,7.96,1.78,16.13,2.46,24.3,0,.11.07.22.16.28l.16.04.16-.03c.48-.22.98-.41,1.49-.56l3.17-.86c.53-.14,1.06-.23,1.6-.29.1-.01.2-.06.26-.15.06-.08.08-.18.05-.28l-3.04-15.54c-.95-4.84-1.77-9.86-2.43-14.92,3.74,4.23,7.47,8.5,11.09,12.7,3.81,4.43,7.63,8.84,11.46,13.25.11.12.28.15.42.08.21-.11.41-.18.58-.26l.61-.2c.21-.05.42-.09.61-.13.21-.03.42-.05.65-.07.16,0,.3-.13.33-.29,1.04-5.99,2.12-11.9,3.17-17.58,1.03-5.53,2.08-11.15,3.15-16.87,1.88,4.89,3.75,9.82,5.63,14.79,2.01,5.31,3.77,10.31,5.23,14.84.04.09.1.16.18.21.09.03.19.03.28,0,.91-.33,1.84-.63,2.82-.9l5.53-1.5c.94-.25,1.86-.45,2.76-.61.11-.01.21-.08.25-.18.06-.1.06-.22.01-.32-1.02-2.13-2.3-5.02-3.79-8.58-1.49-3.55-3.11-7.46-4.76-11.59" style="fill:#115481;"/><path id="Path_1370" d="m744.58,854.18c-.27-.51-.51-1.03-.73-1.56-.3-.74-.49-1.24-.61-1.61-.12-.41-.24-.86-.34-1.36-.03-.11-.11-.2-.21-.25-.1-.04-.22-.03-.32.03-2.35,1.34-4.77,2.62-7.17,3.78-2.33,1.12-4.67,2.18-6.99,3.17-1.19-2.5-2.35-5.09-3.46-7.72-.58-1.39-1.15-2.76-1.72-4.16-.52-1.28-1.03-2.56-1.57-3.85,4.73-1.98,9.65-3.82,14.63-5.47.1-.03.18-.11.21-.21.04-.1.03-.21-.03-.3-.37-.66-.67-1.16-.9-1.51-.21-.31-.38-.63-.52-.98-.18-.39-.33-.8-.45-1.22-.12-.41-.26-1-.44-1.78-.03-.1-.1-.19-.2-.24-.09-.05-.21-.05-.3,0-2.42,1.18-4.77,2.29-6.98,3.32-2.13.99-4.55,2.09-7.2,3.25-.95-2.26-1.89-4.52-2.8-6.76s-1.78-4.55-2.58-6.86c.49-.2,1.19-.46,2.12-.81,1.14-.44,2.43-.9,3.87-1.41,1.44-.52,2.92-1.02,4.45-1.57s2.95-1.03,4.23-1.47c.1-.04.19-.12.22-.22.04-.11.03-.22-.04-.32-.29-.44-.53-.83-.73-1.19-.27-.51-.52-1.03-.74-1.56-.39-.88-.68-1.8-.86-2.75-.02-.12-.09-.22-.2-.26-.1-.05-.23-.05-.33,0-.81.45-2.46,1.23-4.9,2.34-2.55,1.15-5.41,2.39-8.49,3.69-1.94.82-3.9,1.59-5.82,2.3-1.94.71-3.91,1.47-5.87,2.23-.09.04-.17.12-.21.21-.03.09-.02.19.01.28,1.35,2.72,2.67,5.5,3.93,8.24,1.3,2.83,2.7,6.03,4.16,9.52l3.72,8.83c1.52,3.61,2.84,6.85,3.9,9.62s2.1,5.59,3.07,8.37c.04.09.12.17.21.21l.12.03c.07,0,.13-.02.18-.05.32-.16.71-.38,1.2-.61s1.2-.56,2.17-.96,2.27-.95,3.87-1.63l6.42-2.71c2.99-1.24,5.34-2.23,7.06-2.92s3.16-1.27,4.35-1.72c.11-.05.19-.14.22-.25.02-.11,0-.23-.08-.32-.22-.25-.41-.53-.57-.83" style="fill:#115481;"/><path id="Path_1371" d="m781.42,824.72c-3.41-2.74-6.93-5.61-10.44-8.54-3.67-3.05-7.36-6.19-10.97-9.29l-10.38-8.94c-.13-.11-.33-.11-.46,0-.37.3-.71.6-1.04.85-.34.27-.7.5-1.08.7-.37.21-.76.39-1.16.53-.41.15-.83.28-1.28.42-.17.05-.28.21-.25.38.38,2.91.77,6.01,1.15,9.23.34,2.8.68,5.64,1,8.51l.18,1.6c.4,3.42.78,6.81,1.15,10.18l1.02,9.42c.33,3.04.58,5.63.78,7.92.22,2.42.37,4.22.46,5.53,0,.13.09.24.21.29l.15.04c.08,0,.15-.03.21-.08.48-.35.98-.68,1.49-.96l2.94-1.61c.47-.25.96-.46,1.47-.65.17-.06.27-.23.24-.41-.52-2.29-1.02-4.71-1.47-7.22-.42-2.42-.81-4.86-1.11-7.31.98-.58,1.96-1.15,2.95-1.72,1.06-.61,2.13-1.2,3.19-1.78,1.32-.71,2.64-1.43,3.98-2.13,1.26-.66,2.52-1.32,3.78-1.96,1.89,1.63,3.73,3.3,5.49,4.92,1.85,1.72,3.65,3.41,5.42,5.08.12.12.31.13.45.03.79-.54,1.65-1.06,2.52-1.53l5.26-2.88c.89-.48,1.84-.95,2.85-1.39.18-.09.25-.31.16-.49-.03-.05-.06-.09-.11-.13-2.5-1.73-5.43-3.96-8.74-6.61m-27.7,5.34c-.44-2.85-.83-5.68-1.18-8.39-.33-2.68-.63-5.41-.89-8.12,2.05,1.69,4.11,3.45,6.15,5.23,2.08,1.81,4.19,3.67,6.35,5.58l-10.43,5.7Z" style="fill:#115481;"/><path id="Path_1372" d="m523.62,479.36c-.17.29-.45.49-.78.57-23.05,5.66-46.51,9.45-70.17,11.33v198.11l-33.7,14.65-33.39-13.05v-198.77c-52.1-2.64-87.58-12.1-88.19-12.27-.42-.11-.75-.44-.87-.86l-14.5-49.47c-.11-.35-.05-.73.15-1.03l6.93-10.79h-93.16c8.63,253.02,223.01,299.35,223.01,299.35,219.06-76.52,223.62-270.65,223.1-298.61l-81.71-.18-36.73,61.03Zm-70.95,221.13l-33.66,14.65-33.43-13.06v-8.39l33.45,13.06,33.64-14.63v8.38Z" style="fill:#115481;"/><path id="Path_1373" d="m382.5,272.4c1.02,2.1,1.97,4.18,2.88,6.25v1.64c0,.24-.07.47-.2.67l-48.91,76.9h48.73s.28-37.71.45-79.05c19.8,44.27,19.5,94.93-.83,138.96h-86.46l-6.82,10.72c30.69,8.68,62.38,13.39,94.27,14v-16.72l67.08-5.61v18.63c30.41-3.95,60.37-10.82,89.47-20.52l-65.28-.15,20.69-1.73c.51-.05.94-.4,1.1-.89,5.94-19.03,9.31-38.77,10.02-58.69l133.29.58v-184.62s-90.34.28-189.7.45l-.71,77.49c-21.57,6.31-43.67,10.63-66.03,12.9.15-43.95.13-87.33-.52-90.29-98.12.11-186.66-.41-189.05-.56v185.08h131.64l54.9-85.47Zm143.23-66.58l20.09,6.27,13.39-16.23,9.77,18.63,20.95-2.01-6.27,20.08,16.23,13.39-18.63,9.78,2.02,20.96-20.09-6.28-13.39,16.25-9.78-18.63-20.95,2,6.28-20.09-16.25-13.39,18.63-9.77-2.01-20.96Zm-59.53,42.98c2.87,2.51,17.07,15.77,27.68,40.12,10.85,24.86,20.07,66.7,2.59,125.05l-111.84,9.35c6.69-12.54,38.23-79.32-2.3-156.9,28.55-2.58,56.69-8.49,83.86-17.61" style="fill:#115481;"/></g></g></g></g></svg>